<?xml version="1.0" encoding="UTF-8" standalone="no"?>
<!DOCTYPE svg PUBLIC "-//W3C//DTD SVG 1.1//EN"
 "http://www.w3.org/Graphics/SVG/1.1/DTD/svg11.dtd">
<!-- Generated by graphviz version 14.0.2 (20251019.1705)
 -->
<!-- Pages: 1 -->
<svg width="1006pt" height="864pt"
 viewBox="0.00 0.00 1006.00 864.00" xmlns="http://www.w3.org/2000/svg" xmlns:xlink="http://www.w3.org/1999/xlink">
<g id="graph0" class="graph" transform="scale(1 1) rotate(0) translate(4 859.5)">
<polygon fill="#ffffff" stroke="none" points="-4,4 -4,-859.5 1001.5,-859.5 1001.5,4 -4,4"/>
<!-- IO_1P -->
<g id="node1" class="node">
<title>IO_1P</title>
<polygon fill="#ffffff" stroke="black" points="193.5,-665.62 65,-665.62 65,-333.12 193.5,-333.12 193.5,-665.62"/>
<polygon fill="none" stroke="black" points="65,-641.88 65,-665.62 193.5,-665.62 193.5,-641.88 65,-641.88"/>
<text xml:space="preserve" text-anchor="start" x="109.75" y="-648.33" font-family="arial" font-size="14.00">IO_1P</text>
<polygon fill="none" stroke="black" points="65,-618.12 65,-641.88 148,-641.88 148,-618.12 65,-618.12"/>
<text xml:space="preserve" text-anchor="start" x="69" y="-624.58" font-family="arial" font-size="14.00">XADRP&#45;28V</text>
<polygon fill="none" stroke="black" points="148,-618.12 148,-641.88 193.5,-641.88 193.5,-618.12 148,-618.12"/>
<text xml:space="preserve" text-anchor="start" x="152" y="-624.58" font-family="arial" font-size="14.00">28&#45;pin</text>
<polygon fill="none" stroke="black" points="65,-594.38 65,-618.12 193.5,-618.12 193.5,-594.38 65,-594.38"/>
<text xml:space="preserve" text-anchor="start" x="123.62" y="-600.83" font-family="arial" font-size="14.00">...</text>
<polygon fill="none" stroke="black" points="65,-570.62 65,-594.38 193.5,-594.38 193.5,-570.62 65,-570.62"/>
<text xml:space="preserve" text-anchor="start" x="121.75" y="-577.08" font-family="arial" font-size="14.00">17</text>
<polygon fill="none" stroke="black" points="65,-546.88 65,-570.62 193.5,-570.62 193.5,-546.88 65,-546.88"/>
<text xml:space="preserve" text-anchor="start" x="121.75" y="-553.33" font-family="arial" font-size="14.00">18</text>
<polygon fill="none" stroke="black" points="65,-523.12 65,-546.88 193.5,-546.88 193.5,-523.12 65,-523.12"/>
<text xml:space="preserve" text-anchor="start" x="121.75" y="-529.58" font-family="arial" font-size="14.00">19</text>
<polygon fill="none" stroke="black" points="65,-499.38 65,-523.12 193.5,-523.12 193.5,-499.38 65,-499.38"/>
<text xml:space="preserve" text-anchor="start" x="121.75" y="-505.82" font-family="arial" font-size="14.00">20</text>
<polygon fill="none" stroke="black" points="65,-475.62 65,-499.38 193.5,-499.38 193.5,-475.62 65,-475.62"/>
<text xml:space="preserve" text-anchor="start" x="121.75" y="-482.07" font-family="arial" font-size="14.00">....</text>
<polygon fill="none" stroke="black" points="65,-451.88 65,-475.62 193.5,-475.62 193.5,-451.88 65,-451.88"/>
<text xml:space="preserve" text-anchor="start" x="121.75" y="-458.32" font-family="arial" font-size="14.00">24</text>
<polygon fill="none" stroke="black" points="65,-428.12 65,-451.88 193.5,-451.88 193.5,-428.12 65,-428.12"/>
<text xml:space="preserve" text-anchor="start" x="121.75" y="-434.57" font-family="arial" font-size="14.00">25</text>
<polygon fill="none" stroke="black" points="65,-404.38 65,-428.12 193.5,-428.12 193.5,-404.38 65,-404.38"/>
<text xml:space="preserve" text-anchor="start" x="121.75" y="-410.82" font-family="arial" font-size="14.00">26</text>
<polygon fill="none" stroke="black" points="65,-380.62 65,-404.38 193.5,-404.38 193.5,-380.62 65,-380.62"/>
<text xml:space="preserve" text-anchor="start" x="121.75" y="-387.07" font-family="arial" font-size="14.00">27</text>
<polygon fill="none" stroke="black" points="65,-356.88 65,-380.62 193.5,-380.62 193.5,-356.88 65,-356.88"/>
<text xml:space="preserve" text-anchor="start" x="121.75" y="-363.32" font-family="arial" font-size="14.00">28</text>
<polygon fill="none" stroke="black" points="65,-333.12 65,-356.88 193.5,-356.88 193.5,-333.12 65,-333.12"/>
<text xml:space="preserve" text-anchor="start" x="69.62" y="-339.57" font-family="arial" font-size="14.00">Goes to relay board</text>
</g>
<!-- CN19_IO_1P_WIRES -->
<g id="node5" class="node">
<title>CN19_IO_1P_WIRES</title>
<polygon fill="#ffffff" stroke="black" points="693.12,-660 426.12,-660 426.12,-392.75 693.12,-392.75 693.12,-660"/>
<polygon fill="none" stroke="black" points="426.12,-636.25 426.12,-660 693.12,-660 693.12,-636.25 426.12,-636.25"/>
<text xml:space="preserve" text-anchor="start" x="492.88" y="-642.7" font-family="arial" font-size="14.00">CN19_IO_1P_WIRES</text>
<polygon fill="none" stroke="black" points="426.12,-612.5 426.12,-636.25 693.12,-636.25 693.12,-612.5 426.12,-612.5"/>
<text xml:space="preserve" text-anchor="start" x="552.5" y="-618.95" font-family="arial" font-size="14.00">7x</text>
<text xml:space="preserve" text-anchor="start" x="455.12" y="-597.2" font-family="arial" font-size="14.00"> </text>
<text xml:space="preserve" text-anchor="start" x="428.12" y="-577.45" font-family="arial" font-size="14.00">IO_1P:17</text>
<text xml:space="preserve" text-anchor="start" x="491.38" y="-577.45" font-family="arial" font-size="14.00"> &#160;&#160;&#160;&#160;1:YE &#160;&#160;&#160;</text>
<text xml:space="preserve" text-anchor="start" x="581.62" y="-577.45" font-family="arial" font-size="14.00">CN19:16:GND</text>
<polygon fill="#000000" stroke="none" points="426.12,-571 426.12,-573 693.12,-573 693.12,-571 426.12,-571"/>
<polygon fill="#ffff00" stroke="none" points="426.12,-569 426.12,-571 693.12,-571 693.12,-569 426.12,-569"/>
<polygon fill="#000000" stroke="none" points="426.12,-567 426.12,-569 693.12,-569 693.12,-567 426.12,-567"/>
<text xml:space="preserve" text-anchor="start" x="428.12" y="-551.7" font-family="arial" font-size="14.00">IO_1P:18</text>
<text xml:space="preserve" text-anchor="start" x="491" y="-551.7" font-family="arial" font-size="14.00"> &#160;&#160;&#160;&#160;2:BN &#160;&#160;&#160;</text>
<text xml:space="preserve" text-anchor="start" x="562.5" y="-551.7" font-family="arial" font-size="14.00">CN19:8:SENSOR LL</text>
<polygon fill="#000000" stroke="none" points="426.12,-545.25 426.12,-547.25 693.12,-547.25 693.12,-545.25 426.12,-545.25"/>
<polygon fill="#895956" stroke="none" points="426.12,-543.25 426.12,-545.25 693.12,-545.25 693.12,-543.25 426.12,-543.25"/>
<polygon fill="#000000" stroke="none" points="426.12,-541.25 426.12,-543.25 693.12,-543.25 693.12,-541.25 426.12,-541.25"/>
<text xml:space="preserve" text-anchor="start" x="428.12" y="-525.95" font-family="arial" font-size="14.00">IO_1P:19</text>
<text xml:space="preserve" text-anchor="start" x="489.88" y="-525.95" font-family="arial" font-size="14.00"> &#160;&#160;&#160;&#160;3:GN &#160;&#160;&#160;</text>
<text xml:space="preserve" text-anchor="start" x="561.38" y="-525.95" font-family="arial" font-size="14.00">CN19:9:SENSOR LR</text>
<polygon fill="#000000" stroke="none" points="426.12,-519.5 426.12,-521.5 693.12,-521.5 693.12,-519.5 426.12,-519.5"/>
<polygon fill="#00ff00" stroke="none" points="426.12,-517.5 426.12,-519.5 693.12,-519.5 693.12,-517.5 426.12,-517.5"/>
<polygon fill="#000000" stroke="none" points="426.12,-515.5 426.12,-517.5 693.12,-517.5 693.12,-515.5 426.12,-515.5"/>
<text xml:space="preserve" text-anchor="start" x="428.12" y="-500.2" font-family="arial" font-size="14.00">IO_1P:20</text>
<text xml:space="preserve" text-anchor="start" x="491.38" y="-500.2" font-family="arial" font-size="14.00"> &#160;&#160;&#160;&#160;4:BK &#160;&#160;&#160;</text>
<text xml:space="preserve" text-anchor="start" x="584.62" y="-500.2" font-family="arial" font-size="14.00">CN19:18:+5V</text>
<polygon fill="#000000" stroke="none" points="426.12,-493.75 426.12,-495.75 693.12,-495.75 693.12,-493.75 426.12,-493.75"/>
<polygon fill="#000000" stroke="none" points="426.12,-491.75 426.12,-493.75 693.12,-493.75 693.12,-491.75 426.12,-491.75"/>
<polygon fill="#000000" stroke="none" points="426.12,-489.75 426.12,-491.75 693.12,-491.75 693.12,-489.75 426.12,-489.75"/>
<text xml:space="preserve" text-anchor="start" x="428.12" y="-474.45" font-family="arial" font-size="14.00">IO_1P:24</text>
<text xml:space="preserve" text-anchor="start" x="491.38" y="-474.45" font-family="arial" font-size="14.00"> &#160;&#160;&#160;&#160;5:PK &#160;&#160;&#160;</text>
<text xml:space="preserve" text-anchor="start" x="560.62" y="-474.45" font-family="arial" font-size="14.00">CN19:2:1P TT LED R</text>
<polygon fill="#000000" stroke="none" points="426.12,-468 426.12,-470 693.12,-470 693.12,-468 426.12,-468"/>
<polygon fill="#ff66cc" stroke="none" points="426.12,-466 426.12,-468 693.12,-468 693.12,-466 426.12,-466"/>
<polygon fill="#000000" stroke="none" points="426.12,-464 426.12,-466 693.12,-466 693.12,-464 426.12,-464"/>
<text xml:space="preserve" text-anchor="start" x="428.12" y="-448.7" font-family="arial" font-size="14.00">IO_1P:25</text>
<text xml:space="preserve" text-anchor="start" x="489.88" y="-448.7" font-family="arial" font-size="14.00"> &#160;&#160;&#160;&#160;6:GN &#160;&#160;&#160;</text>
<text xml:space="preserve" text-anchor="start" x="559.88" y="-448.7" font-family="arial" font-size="14.00">CN19:3:1P TT LED G</text>
<polygon fill="#000000" stroke="none" points="426.12,-442.25 426.12,-444.25 693.12,-444.25 693.12,-442.25 426.12,-442.25"/>
<polygon fill="#00ff00" stroke="none" points="426.12,-440.25 426.12,-442.25 693.12,-442.25 693.12,-440.25 426.12,-440.25"/>
<polygon fill="#000000" stroke="none" points="426.12,-438.25 426.12,-440.25 693.12,-440.25 693.12,-438.25 426.12,-438.25"/>
<text xml:space="preserve" text-anchor="start" x="428.12" y="-422.95" font-family="arial" font-size="14.00">IO_1P:26</text>
<text xml:space="preserve" text-anchor="start" x="491" y="-422.95" font-family="arial" font-size="14.00"> &#160;&#160;&#160;&#160;7:BU &#160;&#160;&#160;</text>
<text xml:space="preserve" text-anchor="start" x="561" y="-422.95" font-family="arial" font-size="14.00">CN19:4:1P TT LED B</text>
<polygon fill="#000000" stroke="none" points="426.12,-416.5 426.12,-418.5 693.12,-418.5 693.12,-416.5 426.12,-416.5"/>
<polygon fill="#0066ff" stroke="none" points="426.12,-414.5 426.12,-416.5 693.12,-416.5 693.12,-414.5 426.12,-414.5"/>
<polygon fill="#000000" stroke="none" points="426.12,-412.5 426.12,-414.5 693.12,-414.5 693.12,-412.5 426.12,-412.5"/>
<text xml:space="preserve" text-anchor="start" x="455.12" y="-397.2" font-family="arial" font-size="14.00"> </text>
</g>
<!-- IO_1P&#45;&#45;CN19_IO_1P_WIRES -->
<g id="edge1" class="edge">
<title>IO_1P:e&#45;&#45;CN19_IO_1P_WIRES:w</title>
<path fill="none" stroke="#000000" stroke-width="2" d="M194.5,-461.75C297.26,-461.77 322.87,-465.02 425.12,-465"/>
<path fill="none" stroke="#ff66cc" stroke-width="2" d="M194.5,-463.75C297.01,-463.75 322.61,-467 425.12,-467"/>
<path fill="none" stroke="#000000" stroke-width="2" d="M194.5,-465.75C296.76,-465.73 322.36,-468.98 425.12,-469"/>
</g>
<!-- IO_1P&#45;&#45;CN19_IO_1P_WIRES -->
<g id="edge3" class="edge">
<title>IO_1P:e&#45;&#45;CN19_IO_1P_WIRES:w</title>
<path fill="none" stroke="#000000" stroke-width="2" d="M194.5,-438C297.1,-438 322.72,-439.25 425.12,-439.25"/>
<path fill="none" stroke="#00ff00" stroke-width="2" d="M194.5,-440C297,-440 322.62,-441.25 425.12,-441.25"/>
<path fill="none" stroke="#000000" stroke-width="2" d="M194.5,-442C296.9,-442 322.53,-443.25 425.12,-443.25"/>
</g>
<!-- IO_1P&#45;&#45;CN19_IO_1P_WIRES -->
<g id="edge5" class="edge">
<title>IO_1P:e&#45;&#45;CN19_IO_1P_WIRES:w</title>
<path fill="none" stroke="#000000" stroke-width="2" d="M194.5,-414.25C296.94,-414.25 322.57,-413.5 425.12,-413.5"/>
<path fill="none" stroke="#0066ff" stroke-width="2" d="M194.5,-416.25C297,-416.25 322.62,-415.5 425.12,-415.5"/>
<path fill="none" stroke="#000000" stroke-width="2" d="M194.5,-418.25C297.06,-418.25 322.68,-417.5 425.12,-417.5"/>
</g>
<!-- IO_1P&#45;&#45;CN19_IO_1P_WIRES -->
<g id="edge7" class="edge">
<title>IO_1P:e&#45;&#45;CN19_IO_1P_WIRES:w</title>
<path fill="none" stroke="#000000" stroke-width="2" d="M194.5,-580.5C296.27,-580.71 321.59,-568.21 425.12,-568"/>
<path fill="none" stroke="#ffff00" stroke-width="2" d="M194.5,-582.5C297.15,-582.5 322.47,-570 425.12,-570"/>
<path fill="none" stroke="#000000" stroke-width="2" d="M194.5,-584.5C298.04,-584.29 323.36,-571.79 425.12,-572"/>
</g>
<!-- IO_1P&#45;&#45;CN19_IO_1P_WIRES -->
<g id="edge9" class="edge">
<title>IO_1P:e&#45;&#45;CN19_IO_1P_WIRES:w</title>
<path fill="none" stroke="#000000" stroke-width="2" d="M194.5,-509.25C296.14,-509.64 321.11,-491.14 425.12,-490.75"/>
<path fill="none" stroke="#000000" stroke-width="2" d="M194.5,-511.25C297.33,-511.25 322.3,-492.75 425.12,-492.75"/>
<path fill="none" stroke="#000000" stroke-width="2" d="M194.5,-513.25C298.52,-512.86 323.49,-494.36 425.12,-494.75"/>
</g>
<!-- IO_1P&#45;&#45;CN19_IO_1P_WIRES -->
<g id="edge11" class="edge">
<title>IO_1P:e&#45;&#45;CN19_IO_1P_WIRES:w</title>
<path fill="none" stroke="#000000" stroke-width="2" d="M194.5,-556.75C296.21,-557.02 321.43,-542.52 425.12,-542.25"/>
<path fill="none" stroke="#895956" stroke-width="2" d="M194.5,-558.75C297.2,-558.75 322.42,-544.25 425.12,-544.25"/>
<path fill="none" stroke="#000000" stroke-width="2" d="M194.5,-560.75C298.2,-560.48 323.42,-545.98 425.12,-546.25"/>
</g>
<!-- IO_1P&#45;&#45;CN19_IO_1P_WIRES -->
<g id="edge13" class="edge">
<title>IO_1P:e&#45;&#45;CN19_IO_1P_WIRES:w</title>
<path fill="none" stroke="#000000" stroke-width="2" d="M194.5,-533C296.16,-533.33 321.26,-516.83 425.12,-516.5"/>
<path fill="none" stroke="#00ff00" stroke-width="2" d="M194.5,-535C297.26,-535 322.36,-518.5 425.12,-518.5"/>
<path fill="none" stroke="#000000" stroke-width="2" d="M194.5,-537C298.36,-536.67 323.46,-520.17 425.12,-520.5"/>
</g>
<!-- CN19 -->
<g id="node2" class="node">
<title>CN19</title>
<polygon fill="#ffffff" stroke="black" points="997.5,-550.62 860.75,-550.62 860.75,-28.12 997.5,-28.12 997.5,-550.62"/>
<polygon fill="none" stroke="black" points="860.75,-526.88 860.75,-550.62 997.5,-550.62 997.5,-526.88 860.75,-526.88"/>
<text xml:space="preserve" text-anchor="start" x="911.88" y="-533.33" font-family="arial" font-size="14.00">CN19</text>
<polygon fill="none" stroke="black" points="860.75,-503.12 860.75,-526.88 948.25,-526.88 948.25,-503.12 860.75,-503.12"/>
<text xml:space="preserve" text-anchor="start" x="866.62" y="-509.57" font-family="arial" font-size="14.00">PHDR&#45;20VS</text>
<polygon fill="none" stroke="black" points="948.25,-503.12 948.25,-526.88 997.5,-526.88 997.5,-503.12 948.25,-503.12"/>
<text xml:space="preserve" text-anchor="start" x="954.12" y="-509.57" font-family="arial" font-size="14.00">20&#45;pin</text>
<polygon fill="none" stroke="black" points="860.75,-479.38 860.75,-503.12 883.75,-503.12 883.75,-479.38 860.75,-479.38"/>
<text xml:space="preserve" text-anchor="start" x="868.5" y="-485.82" font-family="arial" font-size="14.00">1</text>
<polygon fill="none" stroke="black" points="883.75,-479.38 883.75,-503.12 997.5,-503.12 997.5,-479.38 883.75,-479.38"/>
<text xml:space="preserve" text-anchor="start" x="887.75" y="-485.82" font-family="arial" font-size="14.00">WOOFER LED B</text>
<polygon fill="none" stroke="black" points="860.75,-455.62 860.75,-479.38 883.75,-479.38 883.75,-455.62 860.75,-455.62"/>
<text xml:space="preserve" text-anchor="start" x="868.5" y="-462.07" font-family="arial" font-size="14.00">2</text>
<polygon fill="none" stroke="black" points="883.75,-455.62 883.75,-479.38 997.5,-479.38 997.5,-455.62 883.75,-455.62"/>
<text xml:space="preserve" text-anchor="start" x="900.5" y="-462.07" font-family="arial" font-size="14.00">1P TT LED R</text>
<polygon fill="none" stroke="black" points="860.75,-431.88 860.75,-455.62 883.75,-455.62 883.75,-431.88 860.75,-431.88"/>
<text xml:space="preserve" text-anchor="start" x="868.5" y="-438.32" font-family="arial" font-size="14.00">3</text>
<polygon fill="none" stroke="black" points="883.75,-431.88 883.75,-455.62 997.5,-455.62 997.5,-431.88 883.75,-431.88"/>
<text xml:space="preserve" text-anchor="start" x="899.75" y="-438.32" font-family="arial" font-size="14.00">1P TT LED G</text>
<polygon fill="none" stroke="black" points="860.75,-408.12 860.75,-431.88 883.75,-431.88 883.75,-408.12 860.75,-408.12"/>
<text xml:space="preserve" text-anchor="start" x="868.5" y="-414.57" font-family="arial" font-size="14.00">4</text>
<polygon fill="none" stroke="black" points="883.75,-408.12 883.75,-431.88 997.5,-431.88 997.5,-408.12 883.75,-408.12"/>
<text xml:space="preserve" text-anchor="start" x="900.88" y="-414.57" font-family="arial" font-size="14.00">1P TT LED B</text>
<polygon fill="none" stroke="black" points="860.75,-384.38 860.75,-408.12 883.75,-408.12 883.75,-384.38 860.75,-384.38"/>
<text xml:space="preserve" text-anchor="start" x="868.5" y="-390.82" font-family="arial" font-size="14.00">5</text>
<polygon fill="none" stroke="black" points="883.75,-384.38 883.75,-408.12 997.5,-408.12 997.5,-384.38 883.75,-384.38"/>
<text xml:space="preserve" text-anchor="start" x="900.5" y="-390.82" font-family="arial" font-size="14.00">2P TT LED R</text>
<polygon fill="none" stroke="black" points="860.75,-360.62 860.75,-384.38 883.75,-384.38 883.75,-360.62 860.75,-360.62"/>
<text xml:space="preserve" text-anchor="start" x="868.5" y="-367.07" font-family="arial" font-size="14.00">6</text>
<polygon fill="none" stroke="black" points="883.75,-360.62 883.75,-384.38 997.5,-384.38 997.5,-360.62 883.75,-360.62"/>
<text xml:space="preserve" text-anchor="start" x="899.75" y="-367.07" font-family="arial" font-size="14.00">2P TT LED G</text>
<polygon fill="none" stroke="black" points="860.75,-336.88 860.75,-360.62 883.75,-360.62 883.75,-336.88 860.75,-336.88"/>
<text xml:space="preserve" text-anchor="start" x="868.5" y="-343.32" font-family="arial" font-size="14.00">7</text>
<polygon fill="none" stroke="black" points="883.75,-336.88 883.75,-360.62 997.5,-360.62 997.5,-336.88 883.75,-336.88"/>
<text xml:space="preserve" text-anchor="start" x="900.88" y="-343.32" font-family="arial" font-size="14.00">2P TT LED B</text>
<polygon fill="none" stroke="black" points="860.75,-313.12 860.75,-336.88 883.75,-336.88 883.75,-313.12 860.75,-313.12"/>
<text xml:space="preserve" text-anchor="start" x="868.5" y="-319.57" font-family="arial" font-size="14.00">8</text>
<polygon fill="none" stroke="black" points="883.75,-313.12 883.75,-336.88 997.5,-336.88 997.5,-313.12 883.75,-313.12"/>
<text xml:space="preserve" text-anchor="start" x="902.38" y="-319.57" font-family="arial" font-size="14.00">SENSOR LL</text>
<polygon fill="none" stroke="black" points="860.75,-289.38 860.75,-313.12 883.75,-313.12 883.75,-289.38 860.75,-289.38"/>
<text xml:space="preserve" text-anchor="start" x="868.5" y="-295.82" font-family="arial" font-size="14.00">9</text>
<polygon fill="none" stroke="black" points="883.75,-289.38 883.75,-313.12 997.5,-313.12 997.5,-289.38 883.75,-289.38"/>
<text xml:space="preserve" text-anchor="start" x="901.25" y="-295.82" font-family="arial" font-size="14.00">SENSOR LR</text>
<polygon fill="none" stroke="black" points="860.75,-265.62 860.75,-289.38 883.75,-289.38 883.75,-265.62 860.75,-265.62"/>
<text xml:space="preserve" text-anchor="start" x="864.75" y="-272.07" font-family="arial" font-size="14.00">10</text>
<polygon fill="none" stroke="black" points="883.75,-265.62 883.75,-289.38 997.5,-289.38 997.5,-265.62 883.75,-265.62"/>
<text xml:space="preserve" text-anchor="start" x="901.25" y="-272.07" font-family="arial" font-size="14.00">SENSOR RL</text>
<polygon fill="none" stroke="black" points="860.75,-241.88 860.75,-265.62 883.75,-265.62 883.75,-241.88 860.75,-241.88"/>
<text xml:space="preserve" text-anchor="start" x="865.12" y="-248.32" font-family="arial" font-size="14.00">11</text>
<polygon fill="none" stroke="black" points="883.75,-241.88 883.75,-265.62 997.5,-265.62 997.5,-241.88 883.75,-241.88"/>
<text xml:space="preserve" text-anchor="start" x="900.12" y="-248.32" font-family="arial" font-size="14.00">SENSOR RR</text>
<polygon fill="none" stroke="black" points="860.75,-218.12 860.75,-241.88 883.75,-241.88 883.75,-218.12 860.75,-218.12"/>
<text xml:space="preserve" text-anchor="start" x="864.75" y="-224.57" font-family="arial" font-size="14.00">12</text>
<polygon fill="none" stroke="black" points="860.75,-194.38 860.75,-218.12 883.75,-218.12 883.75,-194.38 860.75,-194.38"/>
<text xml:space="preserve" text-anchor="start" x="864.75" y="-200.82" font-family="arial" font-size="14.00">13</text>
<polygon fill="none" stroke="black" points="860.75,-170.62 860.75,-194.38 883.75,-194.38 883.75,-170.62 860.75,-170.62"/>
<text xml:space="preserve" text-anchor="start" x="864.75" y="-177.07" font-family="arial" font-size="14.00">14</text>
<polygon fill="none" stroke="black" points="860.75,-146.88 860.75,-170.62 883.75,-170.62 883.75,-146.88 860.75,-146.88"/>
<text xml:space="preserve" text-anchor="start" x="864.75" y="-153.32" font-family="arial" font-size="14.00">15</text>
<polygon fill="none" stroke="black" points="860.75,-123.12 860.75,-146.88 883.75,-146.88 883.75,-123.12 860.75,-123.12"/>
<text xml:space="preserve" text-anchor="start" x="864.75" y="-129.57" font-family="arial" font-size="14.00">16</text>
<polygon fill="none" stroke="black" points="883.75,-123.12 883.75,-146.88 997.5,-146.88 997.5,-123.12 883.75,-123.12"/>
<text xml:space="preserve" text-anchor="start" x="925.25" y="-129.57" font-family="arial" font-size="14.00">GND</text>
<polygon fill="none" stroke="black" points="860.75,-99.38 860.75,-123.12 883.75,-123.12 883.75,-99.38 860.75,-99.38"/>
<text xml:space="preserve" text-anchor="start" x="864.75" y="-105.83" font-family="arial" font-size="14.00">17</text>
<polygon fill="none" stroke="black" points="883.75,-99.38 883.75,-123.12 997.5,-123.12 997.5,-99.38 883.75,-99.38"/>
<text xml:space="preserve" text-anchor="start" x="925.25" y="-105.83" font-family="arial" font-size="14.00">GND</text>
<polygon fill="none" stroke="black" points="860.75,-75.62 860.75,-99.38 883.75,-99.38 883.75,-75.62 860.75,-75.62"/>
<text xml:space="preserve" text-anchor="start" x="864.75" y="-82.08" font-family="arial" font-size="14.00">18</text>
<polygon fill="none" stroke="black" points="883.75,-75.62 883.75,-99.38 997.5,-99.38 997.5,-75.62 883.75,-75.62"/>
<text xml:space="preserve" text-anchor="start" x="928.25" y="-82.08" font-family="arial" font-size="14.00">+5V</text>
<polygon fill="none" stroke="black" points="860.75,-51.88 860.75,-75.62 883.75,-75.62 883.75,-51.88 860.75,-51.88"/>
<text xml:space="preserve" text-anchor="start" x="864.75" y="-58.33" font-family="arial" font-size="14.00">19</text>
<polygon fill="none" stroke="black" points="883.75,-51.88 883.75,-75.62 997.5,-75.62 997.5,-51.88 883.75,-51.88"/>
<text xml:space="preserve" text-anchor="start" x="924.5" y="-58.33" font-family="arial" font-size="14.00">+12V</text>
<polygon fill="none" stroke="black" points="860.75,-28.12 860.75,-51.88 883.75,-51.88 883.75,-28.12 860.75,-28.12"/>
<text xml:space="preserve" text-anchor="start" x="864.75" y="-34.58" font-family="arial" font-size="14.00">20</text>
<polygon fill="none" stroke="black" points="883.75,-28.12 883.75,-51.88 997.5,-51.88 997.5,-28.12 883.75,-28.12"/>
<text xml:space="preserve" text-anchor="start" x="924.5" y="-34.58" font-family="arial" font-size="14.00">+12V</text>
</g>
<!-- IO_2P -->
<g id="node3" class="node">
<title>IO_2P</title>
<polygon fill="#ffffff" stroke="black" points="193.5,-308.75 65,-308.75 65,0 193.5,0 193.5,-308.75"/>
<polygon fill="none" stroke="black" points="65,-285 65,-308.75 193.5,-308.75 193.5,-285 65,-285"/>
<text xml:space="preserve" text-anchor="start" x="109.75" y="-291.45" font-family="arial" font-size="14.00">IO_2P</text>
<polygon fill="none" stroke="black" points="65,-261.25 65,-285 148,-285 148,-261.25 65,-261.25"/>
<text xml:space="preserve" text-anchor="start" x="69" y="-267.7" font-family="arial" font-size="14.00">XADRP&#45;30V</text>
<polygon fill="none" stroke="black" points="148,-261.25 148,-285 193.5,-285 193.5,-261.25 148,-261.25"/>
<text xml:space="preserve" text-anchor="start" x="152" y="-267.7" font-family="arial" font-size="14.00">30&#45;pin</text>
<polygon fill="none" stroke="black" points="65,-237.5 65,-261.25 193.5,-261.25 193.5,-237.5 65,-237.5"/>
<text xml:space="preserve" text-anchor="start" x="123.62" y="-243.95" font-family="arial" font-size="14.00">...</text>
<polygon fill="none" stroke="black" points="65,-213.75 65,-237.5 193.5,-237.5 193.5,-213.75 65,-213.75"/>
<text xml:space="preserve" text-anchor="start" x="121.75" y="-220.2" font-family="arial" font-size="14.00">17</text>
<polygon fill="none" stroke="black" points="65,-190 65,-213.75 193.5,-213.75 193.5,-190 65,-190"/>
<text xml:space="preserve" text-anchor="start" x="121.75" y="-196.45" font-family="arial" font-size="14.00">18</text>
<polygon fill="none" stroke="black" points="65,-166.25 65,-190 193.5,-190 193.5,-166.25 65,-166.25"/>
<text xml:space="preserve" text-anchor="start" x="121.75" y="-172.7" font-family="arial" font-size="14.00">19</text>
<polygon fill="none" stroke="black" points="65,-142.5 65,-166.25 193.5,-166.25 193.5,-142.5 65,-142.5"/>
<text xml:space="preserve" text-anchor="start" x="121.75" y="-148.95" font-family="arial" font-size="14.00">20</text>
<polygon fill="none" stroke="black" points="65,-118.75 65,-142.5 193.5,-142.5 193.5,-118.75 65,-118.75"/>
<text xml:space="preserve" text-anchor="start" x="121.75" y="-125.2" font-family="arial" font-size="14.00">....</text>
<polygon fill="none" stroke="black" points="65,-95 65,-118.75 193.5,-118.75 193.5,-95 65,-95"/>
<text xml:space="preserve" text-anchor="start" x="121.75" y="-101.45" font-family="arial" font-size="14.00">24</text>
<polygon fill="none" stroke="black" points="65,-71.25 65,-95 193.5,-95 193.5,-71.25 65,-71.25"/>
<text xml:space="preserve" text-anchor="start" x="121.75" y="-77.7" font-family="arial" font-size="14.00">25</text>
<polygon fill="none" stroke="black" points="65,-47.5 65,-71.25 193.5,-71.25 193.5,-47.5 65,-47.5"/>
<text xml:space="preserve" text-anchor="start" x="121.75" y="-53.95" font-family="arial" font-size="14.00">26</text>
<polygon fill="none" stroke="black" points="65,-23.75 65,-47.5 193.5,-47.5 193.5,-23.75 65,-23.75"/>
<text xml:space="preserve" text-anchor="start" x="119.88" y="-30.2" font-family="arial" font-size="14.00">.....</text>
<polygon fill="none" stroke="black" points="65,0 65,-23.75 193.5,-23.75 193.5,0 65,0"/>
<text xml:space="preserve" text-anchor="start" x="69.62" y="-6.45" font-family="arial" font-size="14.00">Goes to relay board</text>
</g>
<!-- CN19_IO_2P_WIRES -->
<g id="node6" class="node">
<title>CN19_IO_2P_WIRES</title>
<polygon fill="#ffffff" stroke="black" points="696.12,-318 423.12,-318 423.12,-50.75 696.12,-50.75 696.12,-318"/>
<polygon fill="none" stroke="black" points="423.12,-294.25 423.12,-318 696.12,-318 696.12,-294.25 423.12,-294.25"/>
<text xml:space="preserve" text-anchor="start" x="492.88" y="-300.7" font-family="arial" font-size="14.00">CN19_IO_2P_WIRES</text>
<polygon fill="none" stroke="black" points="423.12,-270.5 423.12,-294.25 696.12,-294.25 696.12,-270.5 423.12,-270.5"/>
<text xml:space="preserve" text-anchor="start" x="552.5" y="-276.95" font-family="arial" font-size="14.00">7x</text>
<text xml:space="preserve" text-anchor="start" x="452.12" y="-255.2" font-family="arial" font-size="14.00"> </text>
<text xml:space="preserve" text-anchor="start" x="425.12" y="-235.45" font-family="arial" font-size="14.00">IO_2P:17</text>
<text xml:space="preserve" text-anchor="start" x="488.38" y="-235.45" font-family="arial" font-size="14.00"> &#160;&#160;&#160;&#160;1:YE &#160;&#160;&#160;</text>
<text xml:space="preserve" text-anchor="start" x="581.62" y="-235.45" font-family="arial" font-size="14.00">CN19:16:GND</text>
<polygon fill="#000000" stroke="none" points="423.12,-229 423.12,-231 696.12,-231 696.12,-229 423.12,-229"/>
<polygon fill="#ffff00" stroke="none" points="423.12,-227 423.12,-229 696.12,-229 696.12,-227 423.12,-227"/>
<polygon fill="#000000" stroke="none" points="423.12,-225 423.12,-227 696.12,-227 696.12,-225 423.12,-225"/>
<text xml:space="preserve" text-anchor="start" x="425.12" y="-209.7" font-family="arial" font-size="14.00">IO_2P:18</text>
<text xml:space="preserve" text-anchor="start" x="488" y="-209.7" font-family="arial" font-size="14.00"> &#160;&#160;&#160;&#160;2:BU &#160;&#160;&#160;</text>
<text xml:space="preserve" text-anchor="start" x="557.62" y="-209.7" font-family="arial" font-size="14.00">CN19:10:SENSOR RL</text>
<polygon fill="#000000" stroke="none" points="423.12,-203.25 423.12,-205.25 696.12,-205.25 696.12,-203.25 423.12,-203.25"/>
<polygon fill="#0066ff" stroke="none" points="423.12,-201.25 423.12,-203.25 696.12,-203.25 696.12,-201.25 423.12,-201.25"/>
<polygon fill="#000000" stroke="none" points="423.12,-199.25 423.12,-201.25 696.12,-201.25 696.12,-199.25 423.12,-199.25"/>
<text xml:space="preserve" text-anchor="start" x="425.12" y="-183.95" font-family="arial" font-size="14.00">IO_2P:19</text>
<text xml:space="preserve" text-anchor="start" x="488.75" y="-183.95" font-family="arial" font-size="14.00"> &#160;&#160;&#160;&#160;3:VT &#160;&#160;&#160;</text>
<text xml:space="preserve" text-anchor="start" x="556.88" y="-183.95" font-family="arial" font-size="14.00">CN19:11:SENSOR RR</text>
<polygon fill="#000000" stroke="none" points="423.12,-177.5 423.12,-179.5 696.12,-179.5 696.12,-177.5 423.12,-177.5"/>
<polygon fill="#8000ff" stroke="none" points="423.12,-175.5 423.12,-177.5 696.12,-177.5 696.12,-175.5 423.12,-175.5"/>
<polygon fill="#000000" stroke="none" points="423.12,-173.5 423.12,-175.5 696.12,-175.5 696.12,-173.5 423.12,-173.5"/>
<text xml:space="preserve" text-anchor="start" x="425.12" y="-158.2" font-family="arial" font-size="14.00">IO_2P:20</text>
<text xml:space="preserve" text-anchor="start" x="488.38" y="-158.2" font-family="arial" font-size="14.00"> &#160;&#160;&#160;&#160;4:BK &#160;&#160;&#160;</text>
<text xml:space="preserve" text-anchor="start" x="584.62" y="-158.2" font-family="arial" font-size="14.00">CN19:18:+5V</text>
<polygon fill="#000000" stroke="none" points="423.12,-151.75 423.12,-153.75 696.12,-153.75 696.12,-151.75 423.12,-151.75"/>
<polygon fill="#000000" stroke="none" points="423.12,-149.75 423.12,-151.75 696.12,-151.75 696.12,-149.75 423.12,-149.75"/>
<polygon fill="#000000" stroke="none" points="423.12,-147.75 423.12,-149.75 696.12,-149.75 696.12,-147.75 423.12,-147.75"/>
<text xml:space="preserve" text-anchor="start" x="425.12" y="-132.45" font-family="arial" font-size="14.00">IO_2P:24</text>
<text xml:space="preserve" text-anchor="start" x="488.38" y="-132.45" font-family="arial" font-size="14.00"> &#160;&#160;&#160;&#160;5:PK &#160;&#160;&#160;</text>
<text xml:space="preserve" text-anchor="start" x="560.62" y="-132.45" font-family="arial" font-size="14.00">CN19:5:2P TT LED R</text>
<polygon fill="#000000" stroke="none" points="423.12,-126 423.12,-128 696.12,-128 696.12,-126 423.12,-126"/>
<polygon fill="#ff66cc" stroke="none" points="423.12,-124 423.12,-126 696.12,-126 696.12,-124 423.12,-124"/>
<polygon fill="#000000" stroke="none" points="423.12,-122 423.12,-124 696.12,-124 696.12,-122 423.12,-122"/>
<text xml:space="preserve" text-anchor="start" x="425.12" y="-106.7" font-family="arial" font-size="14.00">IO_2P:25</text>
<text xml:space="preserve" text-anchor="start" x="486.88" y="-106.7" font-family="arial" font-size="14.00"> &#160;&#160;&#160;&#160;6:GN &#160;&#160;&#160;</text>
<text xml:space="preserve" text-anchor="start" x="559.88" y="-106.7" font-family="arial" font-size="14.00">CN19:6:2P TT LED G</text>
<polygon fill="#000000" stroke="none" points="423.12,-100.25 423.12,-102.25 696.12,-102.25 696.12,-100.25 423.12,-100.25"/>
<polygon fill="#00ff00" stroke="none" points="423.12,-98.25 423.12,-100.25 696.12,-100.25 696.12,-98.25 423.12,-98.25"/>
<polygon fill="#000000" stroke="none" points="423.12,-96.25 423.12,-98.25 696.12,-98.25 696.12,-96.25 423.12,-96.25"/>
<text xml:space="preserve" text-anchor="start" x="425.12" y="-80.95" font-family="arial" font-size="14.00">IO_2P:26</text>
<text xml:space="preserve" text-anchor="start" x="488" y="-80.95" font-family="arial" font-size="14.00"> &#160;&#160;&#160;&#160;7:BU &#160;&#160;&#160;</text>
<text xml:space="preserve" text-anchor="start" x="561" y="-80.95" font-family="arial" font-size="14.00">CN19:7:2P TT LED B</text>
<polygon fill="#000000" stroke="none" points="423.12,-74.5 423.12,-76.5 696.12,-76.5 696.12,-74.5 423.12,-74.5"/>
<polygon fill="#0066ff" stroke="none" points="423.12,-72.5 423.12,-74.5 696.12,-74.5 696.12,-72.5 423.12,-72.5"/>
<polygon fill="#000000" stroke="none" points="423.12,-70.5 423.12,-72.5 696.12,-72.5 696.12,-70.5 423.12,-70.5"/>
<text xml:space="preserve" text-anchor="start" x="452.12" y="-55.2" font-family="arial" font-size="14.00"> </text>
</g>
<!-- IO_2P&#45;&#45;CN19_IO_2P_WIRES -->
<g id="edge15" class="edge">
<title>IO_2P:e&#45;&#45;CN19_IO_2P_WIRES:w</title>
<path fill="none" stroke="#000000" stroke-width="2" d="M194.5,-104.88C297.17,-105.26 321.82,-123.39 422.12,-123"/>
<path fill="none" stroke="#ff66cc" stroke-width="2" d="M194.5,-106.88C295.99,-106.88 320.64,-125 422.12,-125"/>
<path fill="none" stroke="#000000" stroke-width="2" d="M194.5,-108.87C294.8,-108.49 319.45,-126.61 422.12,-127"/>
</g>
<!-- IO_2P&#45;&#45;CN19_IO_2P_WIRES -->
<g id="edge17" class="edge">
<title>IO_2P:e&#45;&#45;CN19_IO_2P_WIRES:w</title>
<path fill="none" stroke="#000000" stroke-width="2" d="M194.5,-81.13C297.01,-81.45 321.8,-97.57 422.12,-97.25"/>
<path fill="none" stroke="#00ff00" stroke-width="2" d="M194.5,-83.12C295.92,-83.12 320.7,-99.25 422.12,-99.25"/>
<path fill="none" stroke="#000000" stroke-width="2" d="M194.5,-85.12C294.83,-84.8 319.61,-100.93 422.12,-101.25"/>
</g>
<!-- IO_2P&#45;&#45;CN19_IO_2P_WIRES -->
<g id="edge19" class="edge">
<title>IO_2P:e&#45;&#45;CN19_IO_2P_WIRES:w</title>
<path fill="none" stroke="#000000" stroke-width="2" d="M194.5,-57.38C296.85,-57.64 321.75,-71.76 422.12,-71.5"/>
<path fill="none" stroke="#0066ff" stroke-width="2" d="M194.5,-59.38C295.86,-59.38 320.76,-73.5 422.12,-73.5"/>
<path fill="none" stroke="#000000" stroke-width="2" d="M194.5,-61.37C294.87,-61.11 319.78,-75.24 422.12,-75.5"/>
</g>
<!-- IO_2P&#45;&#45;CN19_IO_2P_WIRES -->
<g id="edge21" class="edge">
<title>IO_2P:e&#45;&#45;CN19_IO_2P_WIRES:w</title>
<path fill="none" stroke="#000000" stroke-width="2" d="M194.5,-223.63C295.86,-223.63 321.14,-226.01 422.12,-226"/>
<path fill="none" stroke="#ffff00" stroke-width="2" d="M194.5,-225.62C295.67,-225.63 320.95,-228 422.12,-228"/>
<path fill="none" stroke="#000000" stroke-width="2" d="M194.5,-227.62C295.49,-227.62 320.77,-229.99 422.12,-230"/>
</g>
<!-- IO_2P&#45;&#45;CN19_IO_2P_WIRES -->
<g id="edge23" class="edge">
<title>IO_2P:e&#45;&#45;CN19_IO_2P_WIRES:w</title>
<path fill="none" stroke="#000000" stroke-width="2" d="M194.5,-152.38C295.4,-152.4 320.66,-148.77 422.12,-148.75"/>
<path fill="none" stroke="#000000" stroke-width="2" d="M194.5,-154.38C295.68,-154.38 320.95,-150.75 422.12,-150.75"/>
<path fill="none" stroke="#000000" stroke-width="2" d="M194.5,-156.37C295.96,-156.35 321.23,-152.73 422.12,-152.75"/>
</g>
<!-- IO_2P&#45;&#45;CN19_IO_2P_WIRES -->
<g id="edge25" class="edge">
<title>IO_2P:e&#45;&#45;CN19_IO_2P_WIRES:w</title>
<path fill="none" stroke="#000000" stroke-width="2" d="M194.5,-199.88C295.7,-199.88 320.99,-200.25 422.12,-200.25"/>
<path fill="none" stroke="#0066ff" stroke-width="2" d="M194.5,-201.87C295.67,-201.87 320.96,-202.25 422.12,-202.25"/>
<path fill="none" stroke="#000000" stroke-width="2" d="M194.5,-203.87C295.64,-203.87 320.93,-204.25 422.12,-204.25"/>
</g>
<!-- IO_2P&#45;&#45;CN19_IO_2P_WIRES -->
<g id="edge27" class="edge">
<title>IO_2P:e&#45;&#45;CN19_IO_2P_WIRES:w</title>
<path fill="none" stroke="#000000" stroke-width="2" d="M194.5,-176.13C295.54,-176.13 320.83,-174.5 422.12,-174.5"/>
<path fill="none" stroke="#8000ff" stroke-width="2" d="M194.5,-178.12C295.67,-178.13 320.96,-176.5 422.12,-176.5"/>
<path fill="none" stroke="#000000" stroke-width="2" d="M194.5,-180.12C295.8,-180.12 321.08,-178.5 422.12,-178.5"/>
</g>
<!-- IC/W_LED -->
<g id="node4" class="node">
<title>IC/W_LED</title>
<polygon fill="#ffffff" stroke="black" points="258.5,-855.5 0,-855.5 0,-689.25 258.5,-689.25 258.5,-855.5"/>
<polygon fill="none" stroke="black" points="0,-831.75 0,-855.5 258.5,-855.5 258.5,-831.75 0,-831.75"/>
<text xml:space="preserve" text-anchor="start" x="97" y="-838.2" font-family="arial" font-size="14.00">IC/W_LED</text>
<polygon fill="none" stroke="black" points="0,-808 0,-831.75 143.5,-831.75 143.5,-808 0,-808"/>
<text xml:space="preserve" text-anchor="start" x="38.75" y="-814.45" font-family="arial" font-size="14.00">XADR&#45;12V</text>
<polygon fill="none" stroke="black" points="143.5,-808 143.5,-831.75 258.5,-831.75 258.5,-808 143.5,-808"/>
<text xml:space="preserve" text-anchor="start" x="182.25" y="-814.45" font-family="arial" font-size="14.00">12&#45;pin</text>
<polygon fill="none" stroke="black" points="0,-784.25 0,-808 258.5,-808 258.5,-784.25 0,-784.25"/>
<text xml:space="preserve" text-anchor="start" x="123.62" y="-790.7" font-family="arial" font-size="14.00">...</text>
<polygon fill="none" stroke="black" points="0,-760.5 0,-784.25 258.5,-784.25 258.5,-760.5 0,-760.5"/>
<text xml:space="preserve" text-anchor="start" x="121.75" y="-766.95" font-family="arial" font-size="14.00">10</text>
<polygon fill="none" stroke="black" points="0,-736.75 0,-760.5 258.5,-760.5 258.5,-736.75 0,-736.75"/>
<text xml:space="preserve" text-anchor="start" x="122.12" y="-743.2" font-family="arial" font-size="14.00">11</text>
<polygon fill="none" stroke="black" points="0,-713 0,-736.75 258.5,-736.75 258.5,-713 0,-713"/>
<text xml:space="preserve" text-anchor="start" x="121.75" y="-719.45" font-family="arial" font-size="14.00">12</text>
<polygon fill="none" stroke="black" points="0,-689.25 0,-713 258.5,-713 258.5,-689.25 0,-689.25"/>
<text xml:space="preserve" text-anchor="start" x="4" y="-695.7" font-family="arial" font-size="14.00">Color signal wires for IC and woofer LEDs</text>
</g>
<!-- CN19_IC/W_WIRES -->
<g id="node7" class="node">
<title>CN19_IC/W_WIRES</title>
<polygon fill="#ffffff" stroke="black" points="716.75,-829.75 402.5,-829.75 402.5,-717 716.75,-717 716.75,-829.75"/>
<polygon fill="none" stroke="black" points="402.5,-806 402.5,-829.75 716.75,-829.75 716.75,-806 402.5,-806"/>
<text xml:space="preserve" text-anchor="start" x="497" y="-812.45" font-family="arial" font-size="14.00">CN19_IC/W_WIRES</text>
<polygon fill="none" stroke="black" points="402.5,-782.25 402.5,-806 716.75,-806 716.75,-782.25 402.5,-782.25"/>
<text xml:space="preserve" text-anchor="start" x="552.5" y="-788.7" font-family="arial" font-size="14.00">1x</text>
<text xml:space="preserve" text-anchor="start" x="444.25" y="-766.95" font-family="arial" font-size="14.00"> </text>
<text xml:space="preserve" text-anchor="start" x="404.5" y="-747.2" font-family="arial" font-size="14.00">IC/W_LED:10</text>
<text xml:space="preserve" text-anchor="start" x="491.75" y="-747.2" font-family="arial" font-size="14.00"> &#160;&#160;&#160;&#160;1:BU &#160;&#160;&#160;</text>
<text xml:space="preserve" text-anchor="start" x="559.5" y="-747.2" font-family="arial" font-size="14.00">CN19:1:WOOFER LED B</text>
<polygon fill="#000000" stroke="none" points="402.5,-740.75 402.5,-742.75 716.75,-742.75 716.75,-740.75 402.5,-740.75"/>
<polygon fill="#0066ff" stroke="none" points="402.5,-738.75 402.5,-740.75 716.75,-740.75 716.75,-738.75 402.5,-738.75"/>
<polygon fill="#000000" stroke="none" points="402.5,-736.75 402.5,-738.75 716.75,-738.75 716.75,-736.75 402.5,-736.75"/>
<text xml:space="preserve" text-anchor="start" x="444.25" y="-721.45" font-family="arial" font-size="14.00"> </text>
</g>
<!-- IC/W_LED&#45;&#45;CN19_IC/W_WIRES -->
<g id="edge29" class="edge">
<title>IC/W_LED:e&#45;&#45;CN19_IC/W_WIRES:w</title>
<path fill="none" stroke="#000000" stroke-width="2" d="M258.5,-770.38C322.26,-771.65 335.02,-739.02 402.5,-737.75"/>
<path fill="none" stroke="#0066ff" stroke-width="2" d="M258.5,-772.38C324.12,-772.37 336.88,-739.75 402.5,-739.75"/>
<path fill="none" stroke="#000000" stroke-width="2" d="M258.5,-774.37C325.98,-773.1 338.74,-740.48 402.5,-741.75"/>
</g>
<!-- CN19_IO_1P_WIRES&#45;&#45;CN19 -->
<g id="edge2" class="edge">
<title>CN19_IO_1P_WIRES:e&#45;&#45;CN19:w</title>
<path fill="none" stroke="#000000" stroke-width="2" d="M694.12,-465C768.23,-465 786.75,-465.5 860.75,-465.5"/>
<path fill="none" stroke="#ff66cc" stroke-width="2" d="M694.12,-467C768.18,-467 786.69,-467.5 860.75,-467.5"/>
<path fill="none" stroke="#000000" stroke-width="2" d="M694.12,-469C768.13,-469 786.64,-469.5 860.75,-469.5"/>
</g>
<!-- CN19_IO_1P_WIRES&#45;&#45;CN19 -->
<g id="edge4" class="edge">
<title>CN19_IO_1P_WIRES:e&#45;&#45;CN19:w</title>
<path fill="none" stroke="#000000" stroke-width="2" d="M694.12,-439.25C768.46,-439.27 786.95,-441.77 860.75,-441.75"/>
<path fill="none" stroke="#00ff00" stroke-width="2" d="M694.12,-441.25C768.19,-441.25 786.69,-443.75 860.75,-443.75"/>
<path fill="none" stroke="#000000" stroke-width="2" d="M694.12,-443.25C767.92,-443.23 786.42,-445.73 860.75,-445.75"/>
</g>
<!-- CN19_IO_1P_WIRES&#45;&#45;CN19 -->
<g id="edge6" class="edge">
<title>CN19_IO_1P_WIRES:e&#45;&#45;CN19:w</title>
<path fill="none" stroke="#000000" stroke-width="2" d="M694.12,-413.5C768.68,-413.56 787.14,-418.06 860.75,-418"/>
<path fill="none" stroke="#0066ff" stroke-width="2" d="M694.12,-415.5C768.21,-415.5 786.67,-420 860.75,-420"/>
<path fill="none" stroke="#000000" stroke-width="2" d="M694.12,-417.5C767.73,-417.44 786.19,-421.94 860.75,-422"/>
</g>
<!-- CN19_IO_1P_WIRES&#45;&#45;CN19 -->
<g id="edge8" class="edge">
<title>CN19_IO_1P_WIRES:e&#45;&#45;CN19:w</title>
<path fill="none" stroke="#000000" stroke-width="2" d="M694.12,-568C899.42,-570.99 651.98,-135.99 860.75,-133"/>
<path fill="none" stroke="#ffff00" stroke-width="2" d="M694.12,-570C901.16,-570 653.72,-135 860.75,-135"/>
<path fill="none" stroke="#000000" stroke-width="2" d="M694.12,-572C902.89,-569.01 655.46,-134.01 860.75,-137"/>
</g>
<!-- CN19_IO_1P_WIRES&#45;&#45;CN19 -->
<g id="edge10" class="edge">
<title>CN19_IO_1P_WIRES:e&#45;&#45;CN19:w</title>
<path fill="none" stroke="#000000" stroke-width="2" d="M694.12,-490.75C887.11,-493.71 664.26,-88.46 860.75,-85.5"/>
<path fill="none" stroke="#000000" stroke-width="2" d="M694.12,-492.75C888.87,-492.75 666.01,-87.5 860.75,-87.5"/>
<path fill="none" stroke="#000000" stroke-width="2" d="M694.12,-494.75C890.62,-491.79 667.76,-86.54 860.75,-89.5"/>
</g>
<!-- CN19_IO_1P_WIRES&#45;&#45;CN19 -->
<g id="edge12" class="edge">
<title>CN19_IO_1P_WIRES:e&#45;&#45;CN19:w</title>
<path fill="none" stroke="#000000" stroke-width="2" d="M694.12,-542.25C814.63,-544.92 736.47,-325.67 860.75,-323"/>
<path fill="none" stroke="#895956" stroke-width="2" d="M694.12,-544.25C816.52,-544.25 738.36,-325 860.75,-325"/>
<path fill="none" stroke="#000000" stroke-width="2" d="M694.12,-546.25C818.4,-543.58 740.24,-324.33 860.75,-327"/>
</g>
<!-- CN19_IO_1P_WIRES&#45;&#45;CN19 -->
<g id="edge14" class="edge">
<title>CN19_IO_1P_WIRES:e&#45;&#45;CN19:w</title>
<path fill="none" stroke="#000000" stroke-width="2" d="M694.12,-516.5C813.92,-519.17 737.18,-301.92 860.75,-299.25"/>
<path fill="none" stroke="#00ff00" stroke-width="2" d="M694.12,-518.5C815.81,-518.5 739.07,-301.25 860.75,-301.25"/>
<path fill="none" stroke="#000000" stroke-width="2" d="M694.12,-520.5C817.7,-517.83 740.95,-300.58 860.75,-303.25"/>
</g>
<!-- CN19_IO_2P_WIRES&#45;&#45;CN19 -->
<g id="edge16" class="edge">
<title>CN19_IO_2P_WIRES:e&#45;&#45;CN19:w</title>
<path fill="none" stroke="#000000" stroke-width="2" d="M697.12,-123C839.75,-125.8 721.79,-397.05 860.75,-394.25"/>
<path fill="none" stroke="#ff66cc" stroke-width="2" d="M697.12,-125C837.92,-125 719.96,-396.25 860.75,-396.25"/>
<path fill="none" stroke="#000000" stroke-width="2" d="M697.12,-127C836.08,-124.2 718.12,-395.45 860.75,-398.25"/>
</g>
<!-- CN19_IO_2P_WIRES&#45;&#45;CN19 -->
<g id="edge18" class="edge">
<title>CN19_IO_2P_WIRES:e&#45;&#45;CN19:w</title>
<path fill="none" stroke="#000000" stroke-width="2" d="M697.12,-97.25C840.51,-100.05 721.03,-373.3 860.75,-370.5"/>
<path fill="none" stroke="#00ff00" stroke-width="2" d="M697.12,-99.25C838.68,-99.25 719.2,-372.5 860.75,-372.5"/>
<path fill="none" stroke="#000000" stroke-width="2" d="M697.12,-101.25C836.85,-98.45 717.36,-371.7 860.75,-374.5"/>
</g>
<!-- CN19_IO_2P_WIRES&#45;&#45;CN19 -->
<g id="edge20" class="edge">
<title>CN19_IO_2P_WIRES:e&#45;&#45;CN19:w</title>
<path fill="none" stroke="#000000" stroke-width="2" d="M697.12,-71.5C841.27,-74.3 720.26,-349.55 860.75,-346.75"/>
<path fill="none" stroke="#0066ff" stroke-width="2" d="M697.12,-73.5C839.44,-73.5 718.43,-348.75 860.75,-348.75"/>
<path fill="none" stroke="#000000" stroke-width="2" d="M697.12,-75.5C837.61,-72.7 716.6,-347.95 860.75,-350.75"/>
</g>
<!-- CN19_IO_2P_WIRES&#45;&#45;CN19 -->
<g id="edge22" class="edge">
<title>CN19_IO_2P_WIRES:e&#45;&#45;CN19:w</title>
<path fill="none" stroke="#000000" stroke-width="2" d="M697.12,-226C778.77,-228.08 775.1,-135.08 860.75,-133"/>
<path fill="none" stroke="#ffff00" stroke-width="2" d="M697.12,-228C780.77,-228 777.1,-135 860.75,-135"/>
<path fill="none" stroke="#000000" stroke-width="2" d="M697.12,-230C782.77,-227.92 779.1,-134.92 860.75,-137"/>
</g>
<!-- CN19_IO_2P_WIRES&#45;&#45;CN19 -->
<g id="edge24" class="edge">
<title>CN19_IO_2P_WIRES:e&#45;&#45;CN19:w</title>
<path fill="none" stroke="#000000" stroke-width="2" d="M697.12,-148.75C773.11,-150.51 780.8,-87.26 860.75,-85.5"/>
<path fill="none" stroke="#000000" stroke-width="2" d="M697.12,-150.75C775.09,-150.75 782.78,-87.5 860.75,-87.5"/>
<path fill="none" stroke="#000000" stroke-width="2" d="M697.12,-152.75C777.08,-150.99 784.77,-87.74 860.75,-89.5"/>
</g>
<!-- CN19_IO_2P_WIRES&#45;&#45;CN19 -->
<g id="edge26" class="edge">
<title>CN19_IO_2P_WIRES:e&#45;&#45;CN19:w</title>
<path fill="none" stroke="#000000" stroke-width="2" d="M697.12,-200.25C779.17,-202.16 782.7,-277.41 860.75,-275.5"/>
<path fill="none" stroke="#0066ff" stroke-width="2" d="M697.12,-202.25C777.17,-202.25 780.71,-277.5 860.75,-277.5"/>
<path fill="none" stroke="#000000" stroke-width="2" d="M697.12,-204.25C775.17,-202.34 778.71,-277.59 860.75,-279.5"/>
</g>
<!-- CN19_IO_2P_WIRES&#45;&#45;CN19 -->
<g id="edge28" class="edge">
<title>CN19_IO_2P_WIRES:e&#45;&#45;CN19:w</title>
<path fill="none" stroke="#000000" stroke-width="2" d="M697.12,-174.5C779.54,-176.43 782.33,-253.68 860.75,-251.75"/>
<path fill="none" stroke="#8000ff" stroke-width="2" d="M697.12,-176.5C777.54,-176.5 780.33,-253.75 860.75,-253.75"/>
<path fill="none" stroke="#000000" stroke-width="2" d="M697.12,-178.5C775.55,-176.57 778.33,-253.82 860.75,-255.75"/>
</g>
<!-- CN19_IC/W_WIRES&#45;&#45;CN19 -->
<g id="edge30" class="edge">
<title>CN19_IC/W_WIRES:e&#45;&#45;CN19:w</title>
<path fill="none" stroke="#000000" stroke-width="2" d="M716.75,-737.75C842.57,-740.57 731.28,-492.07 860.75,-489.25"/>
<path fill="none" stroke="#0066ff" stroke-width="2" d="M716.75,-739.75C844.4,-739.75 733.1,-491.25 860.75,-491.25"/>
<path fill="none" stroke="#000000" stroke-width="2" d="M716.75,-741.75C846.22,-738.93 734.93,-490.43 860.75,-493.25"/>
</g>
</g>
</svg>
