<?xml version="1.0" encoding="UTF-8" standalone="no"?>
<!DOCTYPE svg PUBLIC "-//W3C//DTD SVG 1.1//EN"
 "http://www.w3.org/Graphics/SVG/1.1/DTD/svg11.dtd">
<!-- Generated by graphviz version 14.0.2 (20251019.1705)
 -->
<!-- Pages: 1 -->
<svg width="884pt" height="325pt"
 viewBox="0.00 0.00 884.00 325.00" xmlns="http://www.w3.org/2000/svg" xmlns:xlink="http://www.w3.org/1999/xlink">
<g id="graph0" class="graph" transform="scale(1 1) rotate(0) translate(4 321.25)">
<polygon fill="#ffffff" stroke="none" points="-4,4 -4,-321.25 879.75,-321.25 879.75,4 -4,4"/>
<!-- BIO2_OUTPUT -->
<g id="node1" class="node">
<title>BIO2_OUTPUT</title>
<polygon fill="#ffffff" stroke="black" points="128.5,-307.25 0,-307.25 0,-93.5 128.5,-93.5 128.5,-307.25"/>
<polygon fill="none" stroke="black" points="0,-283.5 0,-307.25 128.5,-307.25 128.5,-283.5 0,-283.5"/>
<text xml:space="preserve" text-anchor="start" x="16.62" y="-289.95" font-family="arial" font-size="14.00">BIO2_OUTPUT</text>
<polygon fill="none" stroke="black" points="0,-259.75 0,-283.5 83,-283.5 83,-259.75 0,-259.75"/>
<text xml:space="preserve" text-anchor="start" x="4" y="-266.2" font-family="arial" font-size="14.00">XADRP&#45;20V</text>
<polygon fill="none" stroke="black" points="83,-259.75 83,-283.5 128.5,-283.5 128.5,-259.75 83,-259.75"/>
<text xml:space="preserve" text-anchor="start" x="87" y="-266.2" font-family="arial" font-size="14.00">20&#45;pin</text>
<polygon fill="none" stroke="black" points="0,-236 0,-259.75 128.5,-259.75 128.5,-236 0,-236"/>
<text xml:space="preserve" text-anchor="start" x="58.62" y="-242.45" font-family="arial" font-size="14.00">...</text>
<polygon fill="none" stroke="black" points="0,-212.25 0,-236 128.5,-236 128.5,-212.25 0,-212.25"/>
<text xml:space="preserve" text-anchor="start" x="56.75" y="-218.7" font-family="arial" font-size="14.00">16</text>
<polygon fill="none" stroke="black" points="0,-188.5 0,-212.25 128.5,-212.25 128.5,-188.5 0,-188.5"/>
<text xml:space="preserve" text-anchor="start" x="56.75" y="-194.95" font-family="arial" font-size="14.00">17</text>
<polygon fill="none" stroke="black" points="0,-164.75 0,-188.5 128.5,-188.5 128.5,-164.75 0,-164.75"/>
<text xml:space="preserve" text-anchor="start" x="56.75" y="-171.2" font-family="arial" font-size="14.00">18</text>
<polygon fill="none" stroke="black" points="0,-141 0,-164.75 128.5,-164.75 128.5,-141 0,-141"/>
<text xml:space="preserve" text-anchor="start" x="56.75" y="-147.45" font-family="arial" font-size="14.00">19</text>
<polygon fill="none" stroke="black" points="0,-117.25 0,-141 128.5,-141 128.5,-117.25 0,-117.25"/>
<text xml:space="preserve" text-anchor="start" x="56.75" y="-123.7" font-family="arial" font-size="14.00">20</text>
<polygon fill="none" stroke="black" points="0,-93.5 0,-117.25 128.5,-117.25 128.5,-93.5 0,-93.5"/>
<text xml:space="preserve" text-anchor="start" x="4.62" y="-99.95" font-family="arial" font-size="14.00">Goes to relay board</text>
</g>
<!-- CN19_BI2A_WIRES -->
<g id="node3" class="node">
<title>CN19_BI2A_WIRES</title>
<polygon fill="#ffffff" stroke="black" points="602.5,-317.25 272.5,-317.25 272.5,-101.5 602.5,-101.5 602.5,-317.25"/>
<polygon fill="none" stroke="black" points="272.5,-293.5 272.5,-317.25 602.5,-317.25 602.5,-293.5 272.5,-293.5"/>
<text xml:space="preserve" text-anchor="start" x="375.62" y="-299.95" font-family="arial" font-size="14.00">CN19_BI2A_WIRES</text>
<polygon fill="none" stroke="black" points="272.5,-269.75 272.5,-293.5 602.5,-293.5 602.5,-269.75 272.5,-269.75"/>
<text xml:space="preserve" text-anchor="start" x="430.38" y="-276.2" font-family="arial" font-size="14.00">5x</text>
<text xml:space="preserve" text-anchor="start" x="328.88" y="-254.45" font-family="arial" font-size="14.00"> </text>
<text xml:space="preserve" text-anchor="start" x="274.5" y="-234.7" font-family="arial" font-size="14.00">BIO2_OUTPUT:16</text>
<text xml:space="preserve" text-anchor="start" x="391" y="-234.7" font-family="arial" font-size="14.00"> &#160;&#160;&#160;&#160;1:WH &#160;&#160;&#160;</text>
<text xml:space="preserve" text-anchor="start" x="468.88" y="-234.7" font-family="arial" font-size="14.00">CN19:8:SENSOR LL</text>
<polygon fill="#000000" stroke="none" points="272.5,-228.25 272.5,-230.25 602.5,-230.25 602.5,-228.25 272.5,-228.25"/>
<polygon fill="#ffffff" stroke="none" points="272.5,-226.25 272.5,-228.25 602.5,-228.25 602.5,-226.25 272.5,-226.25"/>
<polygon fill="#000000" stroke="none" points="272.5,-224.25 272.5,-226.25 602.5,-226.25 602.5,-224.25 272.5,-224.25"/>
<text xml:space="preserve" text-anchor="start" x="274.5" y="-208.95" font-family="arial" font-size="14.00">BIO2_OUTPUT:17</text>
<text xml:space="preserve" text-anchor="start" x="391" y="-208.95" font-family="arial" font-size="14.00"> &#160;&#160;&#160;&#160;2:WH &#160;&#160;&#160;</text>
<text xml:space="preserve" text-anchor="start" x="467.75" y="-208.95" font-family="arial" font-size="14.00">CN19:9:SENSOR LR</text>
<polygon fill="#000000" stroke="none" points="272.5,-202.5 272.5,-204.5 602.5,-204.5 602.5,-202.5 272.5,-202.5"/>
<polygon fill="#ffffff" stroke="none" points="272.5,-200.5 272.5,-202.5 602.5,-202.5 602.5,-200.5 272.5,-200.5"/>
<polygon fill="#000000" stroke="none" points="272.5,-198.5 272.5,-200.5 602.5,-200.5 602.5,-198.5 272.5,-198.5"/>
<text xml:space="preserve" text-anchor="start" x="274.5" y="-183.2" font-family="arial" font-size="14.00">BIO2_OUTPUT:18</text>
<text xml:space="preserve" text-anchor="start" x="391" y="-183.2" font-family="arial" font-size="14.00"> &#160;&#160;&#160;&#160;3:WH &#160;&#160;&#160;</text>
<text xml:space="preserve" text-anchor="start" x="464" y="-183.2" font-family="arial" font-size="14.00">CN19:10:SENSOR RL</text>
<polygon fill="#000000" stroke="none" points="272.5,-176.75 272.5,-178.75 602.5,-178.75 602.5,-176.75 272.5,-176.75"/>
<polygon fill="#ffffff" stroke="none" points="272.5,-174.75 272.5,-176.75 602.5,-176.75 602.5,-174.75 272.5,-174.75"/>
<polygon fill="#000000" stroke="none" points="272.5,-172.75 272.5,-174.75 602.5,-174.75 602.5,-172.75 272.5,-172.75"/>
<text xml:space="preserve" text-anchor="start" x="274.5" y="-157.45" font-family="arial" font-size="14.00">BIO2_OUTPUT:19</text>
<text xml:space="preserve" text-anchor="start" x="391" y="-157.45" font-family="arial" font-size="14.00"> &#160;&#160;&#160;&#160;4:WH &#160;&#160;&#160;</text>
<text xml:space="preserve" text-anchor="start" x="463.25" y="-157.45" font-family="arial" font-size="14.00">CN19:11:SENSOR RR</text>
<polygon fill="#000000" stroke="none" points="272.5,-151 272.5,-153 602.5,-153 602.5,-151 272.5,-151"/>
<polygon fill="#ffffff" stroke="none" points="272.5,-149 272.5,-151 602.5,-151 602.5,-149 272.5,-149"/>
<polygon fill="#000000" stroke="none" points="272.5,-147 272.5,-149 602.5,-149 602.5,-147 272.5,-147"/>
<text xml:space="preserve" text-anchor="start" x="274.5" y="-131.7" font-family="arial" font-size="14.00">BIO2_OUTPUT:20</text>
<text xml:space="preserve" text-anchor="start" x="393.62" y="-131.7" font-family="arial" font-size="14.00"> &#160;&#160;&#160;&#160;5:BK &#160;&#160;&#160;</text>
<text xml:space="preserve" text-anchor="start" x="488" y="-131.7" font-family="arial" font-size="14.00">CN19:16:GND</text>
<polygon fill="#000000" stroke="none" points="272.5,-125.25 272.5,-127.25 602.5,-127.25 602.5,-125.25 272.5,-125.25"/>
<polygon fill="#000000" stroke="none" points="272.5,-123.25 272.5,-125.25 602.5,-125.25 602.5,-123.25 272.5,-123.25"/>
<polygon fill="#000000" stroke="none" points="272.5,-121.25 272.5,-123.25 602.5,-123.25 602.5,-121.25 272.5,-121.25"/>
<text xml:space="preserve" text-anchor="start" x="328.88" y="-105.95" font-family="arial" font-size="14.00"> </text>
</g>
<!-- BIO2_OUTPUT&#45;&#45;CN19_BI2A_WIRES -->
<g id="edge1" class="edge">
<title>BIO2_OUTPUT:e&#45;&#45;CN19_BI2A_WIRES:w</title>
<path fill="none" stroke="#000000" stroke-width="2" d="M128.5,-222.13C192.9,-222.16 208.87,-225.29 272.5,-225.25"/>
<path fill="none" stroke="#ffffff" stroke-width="2" d="M128.5,-224.12C192.52,-224.13 208.48,-227.25 272.5,-227.25"/>
<path fill="none" stroke="#000000" stroke-width="2" d="M128.5,-226.12C192.13,-226.09 208.1,-229.21 272.5,-229.25"/>
</g>
<!-- BIO2_OUTPUT&#45;&#45;CN19_BI2A_WIRES -->
<g id="edge3" class="edge">
<title>BIO2_OUTPUT:e&#45;&#45;CN19_BI2A_WIRES:w</title>
<path fill="none" stroke="#000000" stroke-width="2" d="M128.5,-198.38C192.64,-198.38 208.64,-199.5 272.5,-199.5"/>
<path fill="none" stroke="#ffffff" stroke-width="2" d="M128.5,-200.38C192.5,-200.37 208.5,-201.5 272.5,-201.5"/>
<path fill="none" stroke="#000000" stroke-width="2" d="M128.5,-202.37C192.36,-202.37 208.36,-203.5 272.5,-203.5"/>
</g>
<!-- BIO2_OUTPUT&#45;&#45;CN19_BI2A_WIRES -->
<g id="edge5" class="edge">
<title>BIO2_OUTPUT:e&#45;&#45;CN19_BI2A_WIRES:w</title>
<path fill="none" stroke="#000000" stroke-width="2" d="M128.5,-174.63C192.39,-174.63 208.39,-173.75 272.5,-173.75"/>
<path fill="none" stroke="#ffffff" stroke-width="2" d="M128.5,-176.62C192.5,-176.63 208.5,-175.75 272.5,-175.75"/>
<path fill="none" stroke="#000000" stroke-width="2" d="M128.5,-178.62C192.61,-178.62 208.61,-177.75 272.5,-177.75"/>
</g>
<!-- BIO2_OUTPUT&#45;&#45;CN19_BI2A_WIRES -->
<g id="edge7" class="edge">
<title>BIO2_OUTPUT:e&#45;&#45;CN19_BI2A_WIRES:w</title>
<path fill="none" stroke="#000000" stroke-width="2" d="M128.5,-150.88C192.16,-150.91 208.13,-148.03 272.5,-148"/>
<path fill="none" stroke="#ffffff" stroke-width="2" d="M128.5,-152.88C192.51,-152.88 208.49,-150 272.5,-150"/>
<path fill="none" stroke="#000000" stroke-width="2" d="M128.5,-154.87C192.87,-154.84 208.84,-151.97 272.5,-152"/>
</g>
<!-- BIO2_OUTPUT&#45;&#45;CN19_BI2A_WIRES -->
<g id="edge9" class="edge">
<title>BIO2_OUTPUT:e&#45;&#45;CN19_BI2A_WIRES:w</title>
<path fill="none" stroke="#000000" stroke-width="2" d="M128.5,-127.13C191.95,-127.21 207.88,-122.34 272.5,-122.25"/>
<path fill="none" stroke="#000000" stroke-width="2" d="M128.5,-129.12C192.54,-129.12 208.46,-124.25 272.5,-124.25"/>
<path fill="none" stroke="#000000" stroke-width="2" d="M128.5,-131.12C193.12,-131.04 209.05,-126.16 272.5,-126.25"/>
</g>
<!-- CN19 -->
<g id="node2" class="node">
<title>CN19</title>
<polygon fill="#ffffff" stroke="black" points="875.75,-308.75 746.5,-308.75 746.5,0 875.75,0 875.75,-308.75"/>
<polygon fill="none" stroke="black" points="746.5,-285 746.5,-308.75 875.75,-308.75 875.75,-285 746.5,-285"/>
<text xml:space="preserve" text-anchor="start" x="793.88" y="-291.45" font-family="arial" font-size="14.00">CN19</text>
<polygon fill="none" stroke="black" points="746.5,-261.25 746.5,-285 830.25,-285 830.25,-261.25 746.5,-261.25"/>
<text xml:space="preserve" text-anchor="start" x="750.5" y="-267.7" font-family="arial" font-size="14.00">PHDR&#45;20VS</text>
<polygon fill="none" stroke="black" points="830.25,-261.25 830.25,-285 875.75,-285 875.75,-261.25 830.25,-261.25"/>
<text xml:space="preserve" text-anchor="start" x="834.25" y="-267.7" font-family="arial" font-size="14.00">20&#45;pin</text>
<polygon fill="none" stroke="black" points="746.5,-237.5 746.5,-261.25 778.12,-261.25 778.12,-237.5 746.5,-237.5"/>
<text xml:space="preserve" text-anchor="start" x="756.69" y="-243.95" font-family="arial" font-size="14.00">...</text>
<polygon fill="none" stroke="black" points="746.5,-213.75 746.5,-237.5 778.12,-237.5 778.12,-213.75 746.5,-213.75"/>
<text xml:space="preserve" text-anchor="start" x="758.56" y="-220.2" font-family="arial" font-size="14.00">8</text>
<polygon fill="none" stroke="black" points="778.12,-213.75 778.12,-237.5 875.75,-237.5 875.75,-213.75 778.12,-213.75"/>
<text xml:space="preserve" text-anchor="start" x="788.69" y="-220.2" font-family="arial" font-size="14.00">SENSOR LL</text>
<polygon fill="none" stroke="black" points="746.5,-190 746.5,-213.75 778.12,-213.75 778.12,-190 746.5,-190"/>
<text xml:space="preserve" text-anchor="start" x="758.56" y="-196.45" font-family="arial" font-size="14.00">9</text>
<polygon fill="none" stroke="black" points="778.12,-190 778.12,-213.75 875.75,-213.75 875.75,-190 778.12,-190"/>
<text xml:space="preserve" text-anchor="start" x="787.56" y="-196.45" font-family="arial" font-size="14.00">SENSOR LR</text>
<polygon fill="none" stroke="black" points="746.5,-166.25 746.5,-190 778.12,-190 778.12,-166.25 746.5,-166.25"/>
<text xml:space="preserve" text-anchor="start" x="754.81" y="-172.7" font-family="arial" font-size="14.00">10</text>
<polygon fill="none" stroke="black" points="778.12,-166.25 778.12,-190 875.75,-190 875.75,-166.25 778.12,-166.25"/>
<text xml:space="preserve" text-anchor="start" x="787.56" y="-172.7" font-family="arial" font-size="14.00">SENSOR RL</text>
<polygon fill="none" stroke="black" points="746.5,-142.5 746.5,-166.25 778.12,-166.25 778.12,-142.5 746.5,-142.5"/>
<text xml:space="preserve" text-anchor="start" x="755.19" y="-148.95" font-family="arial" font-size="14.00">11</text>
<polygon fill="none" stroke="black" points="778.12,-142.5 778.12,-166.25 875.75,-166.25 875.75,-142.5 778.12,-142.5"/>
<text xml:space="preserve" text-anchor="start" x="786.44" y="-148.95" font-family="arial" font-size="14.00">SENSOR RR</text>
<polygon fill="none" stroke="black" points="746.5,-118.75 746.5,-142.5 778.12,-142.5 778.12,-118.75 746.5,-118.75"/>
<text xml:space="preserve" text-anchor="start" x="754.81" y="-125.2" font-family="arial" font-size="14.00">12</text>
<polygon fill="none" stroke="black" points="746.5,-95 746.5,-118.75 778.12,-118.75 778.12,-95 746.5,-95"/>
<text xml:space="preserve" text-anchor="start" x="754.81" y="-101.45" font-family="arial" font-size="14.00">13</text>
<polygon fill="none" stroke="black" points="746.5,-71.25 746.5,-95 778.12,-95 778.12,-71.25 746.5,-71.25"/>
<text xml:space="preserve" text-anchor="start" x="754.81" y="-77.7" font-family="arial" font-size="14.00">14</text>
<polygon fill="none" stroke="black" points="746.5,-47.5 746.5,-71.25 778.12,-71.25 778.12,-47.5 746.5,-47.5"/>
<text xml:space="preserve" text-anchor="start" x="754.81" y="-53.95" font-family="arial" font-size="14.00">15</text>
<polygon fill="none" stroke="black" points="746.5,-23.75 746.5,-47.5 778.12,-47.5 778.12,-23.75 746.5,-23.75"/>
<text xml:space="preserve" text-anchor="start" x="754.81" y="-30.2" font-family="arial" font-size="14.00">16</text>
<polygon fill="none" stroke="black" points="778.12,-23.75 778.12,-47.5 875.75,-47.5 875.75,-23.75 778.12,-23.75"/>
<text xml:space="preserve" text-anchor="start" x="811.56" y="-30.2" font-family="arial" font-size="14.00">GND</text>
<polygon fill="none" stroke="black" points="746.5,0 746.5,-23.75 778.12,-23.75 778.12,0 746.5,0"/>
<text xml:space="preserve" text-anchor="start" x="754.81" y="-6.45" font-family="arial" font-size="14.00">....</text>
</g>
<!-- CN19_BI2A_WIRES&#45;&#45;CN19 -->
<g id="edge2" class="edge">
<title>CN19_BI2A_WIRES:e&#45;&#45;CN19:w</title>
<path fill="none" stroke="#000000" stroke-width="2" d="M602.5,-225.25C666.3,-225.26 682.29,-223.64 746.5,-223.63"/>
<path fill="none" stroke="#ffffff" stroke-width="2" d="M602.5,-227.25C666.5,-227.25 682.5,-225.62 746.5,-225.62"/>
<path fill="none" stroke="#000000" stroke-width="2" d="M602.5,-229.25C666.71,-229.24 682.7,-227.61 746.5,-227.62"/>
</g>
<!-- CN19_BI2A_WIRES&#45;&#45;CN19 -->
<g id="edge4" class="edge">
<title>CN19_BI2A_WIRES:e&#45;&#45;CN19:w</title>
<path fill="none" stroke="#000000" stroke-width="2" d="M602.5,-199.5C666.55,-199.5 682.55,-199.88 746.5,-199.88"/>
<path fill="none" stroke="#ffffff" stroke-width="2" d="M602.5,-201.5C666.5,-201.5 682.5,-201.87 746.5,-201.87"/>
<path fill="none" stroke="#000000" stroke-width="2" d="M602.5,-203.5C666.45,-203.5 682.45,-203.87 746.5,-203.87"/>
</g>
<!-- CN19_BI2A_WIRES&#45;&#45;CN19 -->
<g id="edge6" class="edge">
<title>CN19_BI2A_WIRES:e&#45;&#45;CN19:w</title>
<path fill="none" stroke="#000000" stroke-width="2" d="M602.5,-173.75C666.8,-173.77 682.79,-176.15 746.5,-176.13"/>
<path fill="none" stroke="#ffffff" stroke-width="2" d="M602.5,-175.75C666.51,-175.75 682.49,-178.12 746.5,-178.12"/>
<path fill="none" stroke="#000000" stroke-width="2" d="M602.5,-177.75C666.21,-177.73 682.2,-180.1 746.5,-180.12"/>
</g>
<!-- CN19_BI2A_WIRES&#45;&#45;CN19 -->
<g id="edge8" class="edge">
<title>CN19_BI2A_WIRES:e&#45;&#45;CN19:w</title>
<path fill="none" stroke="#000000" stroke-width="2" d="M602.5,-148C667.06,-148.07 683,-152.45 746.5,-152.38"/>
<path fill="none" stroke="#ffffff" stroke-width="2" d="M602.5,-150C666.53,-150 682.47,-154.38 746.5,-154.38"/>
<path fill="none" stroke="#000000" stroke-width="2" d="M602.5,-152C666,-151.93 681.94,-156.3 746.5,-156.37"/>
</g>
<!-- CN19_BI2A_WIRES&#45;&#45;CN19 -->
<g id="edge10" class="edge">
<title>CN19_BI2A_WIRES:e&#45;&#45;CN19:w</title>
<path fill="none" stroke="#000000" stroke-width="2" d="M602.5,-122.25C675.65,-124.39 669.36,-35.77 746.5,-33.63"/>
<path fill="none" stroke="#000000" stroke-width="2" d="M602.5,-124.25C677.65,-124.25 671.35,-35.62 746.5,-35.63"/>
<path fill="none" stroke="#000000" stroke-width="2" d="M602.5,-126.25C679.64,-124.11 673.35,-35.48 746.5,-37.62"/>
</g>
</g>
</svg>
