<?xml version="1.0" encoding="UTF-8" standalone="no"?>
<!DOCTYPE svg PUBLIC "-//W3C//DTD SVG 1.1//EN"
 "http://www.w3.org/Graphics/SVG/1.1/DTD/svg11.dtd">
<!-- Generated by graphviz version 14.0.2 (20251019.1705)
 -->
<!-- Pages: 1 -->
<svg width="904pt" height="507pt"
 viewBox="0.00 0.00 904.00 507.00" xmlns="http://www.w3.org/2000/svg" xmlns:xlink="http://www.w3.org/1999/xlink">
<g id="graph0" class="graph" transform="scale(1 1) rotate(0) translate(4 502.75)">
<polygon fill="#ffffff" stroke="none" points="-4,4 -4,-502.75 899.5,-502.75 899.5,4 -4,4"/>
<!-- IO_1P -->
<g id="node1" class="node">
<title>IO_1P</title>
<polygon fill="#ffffff" stroke="black" points="155,-480 27.75,-480 27.75,-218.75 155,-218.75 155,-480"/>
<polygon fill="none" stroke="black" points="27.75,-456.25 27.75,-480 155,-480 155,-456.25 27.75,-456.25"/>
<text xml:space="preserve" text-anchor="start" x="71.88" y="-462.7" font-family="arial" font-size="14.00">IO_1P</text>
<polygon fill="none" stroke="black" points="27.75,-432.5 27.75,-456.25 105.62,-456.25 105.62,-432.5 27.75,-432.5"/>
<text xml:space="preserve" text-anchor="start" x="33.69" y="-438.95" font-family="arial" font-size="14.00">XADR&#45;28V</text>
<polygon fill="none" stroke="black" points="105.62,-432.5 105.62,-456.25 155,-456.25 155,-432.5 105.62,-432.5"/>
<text xml:space="preserve" text-anchor="start" x="111.56" y="-438.95" font-family="arial" font-size="14.00">28&#45;pin</text>
<polygon fill="none" stroke="black" points="27.75,-408.75 27.75,-432.5 155,-432.5 155,-408.75 27.75,-408.75"/>
<text xml:space="preserve" text-anchor="start" x="85.75" y="-415.2" font-family="arial" font-size="14.00">...</text>
<polygon fill="none" stroke="black" points="27.75,-385 27.75,-408.75 155,-408.75 155,-385 27.75,-385"/>
<text xml:space="preserve" text-anchor="start" x="83.88" y="-391.45" font-family="arial" font-size="14.00">10</text>
<polygon fill="none" stroke="black" points="27.75,-361.25 27.75,-385 155,-385 155,-361.25 27.75,-361.25"/>
<text xml:space="preserve" text-anchor="start" x="84.25" y="-367.7" font-family="arial" font-size="14.00">11</text>
<polygon fill="none" stroke="black" points="27.75,-337.5 27.75,-361.25 155,-361.25 155,-337.5 27.75,-337.5"/>
<text xml:space="preserve" text-anchor="start" x="83.88" y="-343.95" font-family="arial" font-size="14.00">12</text>
<polygon fill="none" stroke="black" points="27.75,-313.75 27.75,-337.5 155,-337.5 155,-313.75 27.75,-313.75"/>
<text xml:space="preserve" text-anchor="start" x="83.88" y="-320.2" font-family="arial" font-size="14.00">13</text>
<polygon fill="none" stroke="black" points="27.75,-290 27.75,-313.75 155,-313.75 155,-290 27.75,-290"/>
<text xml:space="preserve" text-anchor="start" x="83.88" y="-296.45" font-family="arial" font-size="14.00">14</text>
<polygon fill="none" stroke="black" points="27.75,-266.25 27.75,-290 155,-290 155,-266.25 27.75,-266.25"/>
<text xml:space="preserve" text-anchor="start" x="83.88" y="-272.7" font-family="arial" font-size="14.00">15</text>
<polygon fill="none" stroke="black" points="27.75,-242.5 27.75,-266.25 155,-266.25 155,-242.5 27.75,-242.5"/>
<text xml:space="preserve" text-anchor="start" x="83.88" y="-248.95" font-family="arial" font-size="14.00">....</text>
<polygon fill="none" stroke="black" points="27.75,-218.75 27.75,-242.5 155,-242.5 155,-218.75 27.75,-218.75"/>
<text xml:space="preserve" text-anchor="start" x="31.75" y="-225.2" font-family="arial" font-size="14.00">Goes to relay board</text>
</g>
<!-- CN15_BI2X_WIRES -->
<g id="node4" class="node">
<title>CN15_BI2X_WIRES</title>
<polygon fill="#ffffff" stroke="black" points="593.75,-491.12 347,-491.12 347,-249.62 593.75,-249.62 593.75,-491.12"/>
<polygon fill="none" stroke="black" points="347,-467.38 347,-491.12 593.75,-491.12 593.75,-467.38 347,-467.38"/>
<text xml:space="preserve" text-anchor="start" x="408.5" y="-473.82" font-family="arial" font-size="14.00">CN15_BI2X_WIRES</text>
<polygon fill="none" stroke="black" points="347,-443.62 347,-467.38 593.75,-467.38 593.75,-443.62 347,-443.62"/>
<text xml:space="preserve" text-anchor="start" x="463.25" y="-450.07" font-family="arial" font-size="14.00">6x</text>
<text xml:space="preserve" text-anchor="start" x="376" y="-428.32" font-family="arial" font-size="14.00"> </text>
<text xml:space="preserve" text-anchor="start" x="349" y="-408.57" font-family="arial" font-size="14.00">IO_1P:10</text>
<text xml:space="preserve" text-anchor="start" x="411.88" y="-408.57" font-family="arial" font-size="14.00"> &#160;&#160;&#160;&#160;1:GN &#160;&#160;&#160;</text>
<text xml:space="preserve" text-anchor="start" x="483" y="-408.57" font-family="arial" font-size="14.00">CN15:3:SW2 (1P)</text>
<polygon fill="#000000" stroke="none" points="347,-402.12 347,-404.12 593.75,-404.12 593.75,-402.12 347,-402.12"/>
<polygon fill="#00ff00" stroke="none" points="347,-400.12 347,-402.12 593.75,-402.12 593.75,-400.12 347,-400.12"/>
<polygon fill="#000000" stroke="none" points="347,-398.12 347,-400.12 593.75,-400.12 593.75,-398.12 347,-398.12"/>
<text xml:space="preserve" text-anchor="start" x="349.38" y="-382.82" font-family="arial" font-size="14.00">IO_1P:11</text>
<text xml:space="preserve" text-anchor="start" x="413" y="-382.82" font-family="arial" font-size="14.00"> &#160;&#160;&#160;&#160;2:BU &#160;&#160;&#160;</text>
<text xml:space="preserve" text-anchor="start" x="483" y="-382.82" font-family="arial" font-size="14.00">CN15:4:SW3 (1P)</text>
<polygon fill="#000000" stroke="none" points="347,-376.38 347,-378.38 593.75,-378.38 593.75,-376.38 347,-376.38"/>
<polygon fill="#0066ff" stroke="none" points="347,-374.38 347,-376.38 593.75,-376.38 593.75,-374.38 347,-374.38"/>
<polygon fill="#000000" stroke="none" points="347,-372.38 347,-374.38 593.75,-374.38 593.75,-372.38 347,-372.38"/>
<text xml:space="preserve" text-anchor="start" x="349" y="-357.07" font-family="arial" font-size="14.00">IO_1P:12</text>
<text xml:space="preserve" text-anchor="start" x="413.75" y="-357.07" font-family="arial" font-size="14.00"> &#160;&#160;&#160;&#160;3:VT &#160;&#160;&#160;</text>
<text xml:space="preserve" text-anchor="start" x="483" y="-357.07" font-family="arial" font-size="14.00">CN15:5:SW4 (1P)</text>
<polygon fill="#000000" stroke="none" points="347,-350.62 347,-352.62 593.75,-352.62 593.75,-350.62 347,-350.62"/>
<polygon fill="#8000ff" stroke="none" points="347,-348.62 347,-350.62 593.75,-350.62 593.75,-348.62 347,-348.62"/>
<polygon fill="#000000" stroke="none" points="347,-346.62 347,-348.62 593.75,-348.62 593.75,-346.62 347,-346.62"/>
<text xml:space="preserve" text-anchor="start" x="349" y="-331.32" font-family="arial" font-size="14.00">IO_1P:13</text>
<text xml:space="preserve" text-anchor="start" x="412.25" y="-331.32" font-family="arial" font-size="14.00"> &#160;&#160;&#160;&#160;4:GY &#160;&#160;&#160;</text>
<text xml:space="preserve" text-anchor="start" x="483" y="-331.32" font-family="arial" font-size="14.00">CN15:6:SW5 (1P)</text>
<polygon fill="#000000" stroke="none" points="347,-324.88 347,-326.88 593.75,-326.88 593.75,-324.88 347,-324.88"/>
<polygon fill="#999999" stroke="none" points="347,-322.88 347,-324.88 593.75,-324.88 593.75,-322.88 347,-322.88"/>
<polygon fill="#000000" stroke="none" points="347,-320.88 347,-322.88 593.75,-322.88 593.75,-320.88 347,-320.88"/>
<text xml:space="preserve" text-anchor="start" x="349" y="-305.57" font-family="arial" font-size="14.00">IO_1P:14</text>
<text xml:space="preserve" text-anchor="start" x="410.75" y="-305.57" font-family="arial" font-size="14.00"> &#160;&#160;&#160;&#160;5:WH &#160;&#160;&#160;</text>
<text xml:space="preserve" text-anchor="start" x="483" y="-305.57" font-family="arial" font-size="14.00">CN15:7:SW6 (1P)</text>
<polygon fill="#000000" stroke="none" points="347,-299.12 347,-301.12 593.75,-301.12 593.75,-299.12 347,-299.12"/>
<polygon fill="#ffffff" stroke="none" points="347,-297.12 347,-299.12 593.75,-299.12 593.75,-297.12 347,-297.12"/>
<polygon fill="#000000" stroke="none" points="347,-295.12 347,-297.12 593.75,-297.12 593.75,-295.12 347,-295.12"/>
<text xml:space="preserve" text-anchor="start" x="349" y="-279.82" font-family="arial" font-size="14.00">IO_1P:15</text>
<text xml:space="preserve" text-anchor="start" x="413.38" y="-279.82" font-family="arial" font-size="14.00"> &#160;&#160;&#160;&#160;6:PK &#160;&#160;&#160;</text>
<text xml:space="preserve" text-anchor="start" x="483" y="-279.82" font-family="arial" font-size="14.00">CN15:8:SW7 (1P)</text>
<polygon fill="#000000" stroke="none" points="347,-273.38 347,-275.38 593.75,-275.38 593.75,-273.38 347,-273.38"/>
<polygon fill="#ff66cc" stroke="none" points="347,-271.38 347,-273.38 593.75,-273.38 593.75,-271.38 347,-271.38"/>
<polygon fill="#000000" stroke="none" points="347,-269.38 347,-271.38 593.75,-271.38 593.75,-269.38 347,-269.38"/>
<text xml:space="preserve" text-anchor="start" x="376" y="-254.07" font-family="arial" font-size="14.00"> </text>
</g>
<!-- IO_1P&#45;&#45;CN15_BI2X_WIRES -->
<g id="edge1" class="edge">
<title>IO_1P:e&#45;&#45;CN15_BI2X_WIRES:w</title>
<path fill="none" stroke="#000000" stroke-width="2" d="M156,-394.88C240.86,-394.91 261.93,-399.16 346,-399.13"/>
<path fill="none" stroke="#00ff00" stroke-width="2" d="M156,-396.88C240.47,-396.88 261.53,-401.12 346,-401.13"/>
<path fill="none" stroke="#000000" stroke-width="2" d="M156,-398.87C240.07,-398.84 261.14,-403.09 346,-403.12"/>
</g>
<!-- IO_1P&#45;&#45;CN15_BI2X_WIRES -->
<g id="edge3" class="edge">
<title>IO_1P:e&#45;&#45;CN15_BI2X_WIRES:w</title>
<path fill="none" stroke="#000000" stroke-width="2" d="M156,-371.13C240.66,-371.14 261.76,-373.39 346,-373.38"/>
<path fill="none" stroke="#0066ff" stroke-width="2" d="M156,-373.12C240.45,-373.12 261.55,-375.37 346,-375.38"/>
<path fill="none" stroke="#000000" stroke-width="2" d="M156,-375.12C240.24,-375.11 261.34,-377.36 346,-377.37"/>
</g>
<!-- IO_1P&#45;&#45;CN15_BI2X_WIRES -->
<g id="edge5" class="edge">
<title>IO_1P:e&#45;&#45;CN15_BI2X_WIRES:w</title>
<path fill="none" stroke="#000000" stroke-width="2" d="M156,-347.38C240.47,-347.38 261.58,-347.63 346,-347.63"/>
<path fill="none" stroke="#8000ff" stroke-width="2" d="M156,-349.38C240.44,-349.38 261.56,-349.62 346,-349.63"/>
<path fill="none" stroke="#000000" stroke-width="2" d="M156,-351.37C240.42,-351.37 261.53,-351.62 346,-351.62"/>
</g>
<!-- IO_1P&#45;&#45;CN15_BI2X_WIRES -->
<g id="edge7" class="edge">
<title>IO_1P:e&#45;&#45;CN15_BI2X_WIRES:w</title>
<path fill="none" stroke="#000000" stroke-width="2" d="M156,-323.63C240.28,-323.63 261.39,-321.88 346,-321.88"/>
<path fill="none" stroke="#999999" stroke-width="2" d="M156,-325.62C240.45,-325.63 261.55,-323.88 346,-323.88"/>
<path fill="none" stroke="#000000" stroke-width="2" d="M156,-327.62C240.61,-327.62 261.72,-325.87 346,-325.87"/>
</g>
<!-- IO_1P&#45;&#45;CN15_BI2X_WIRES -->
<g id="edge9" class="edge">
<title>IO_1P:e&#45;&#45;CN15_BI2X_WIRES:w</title>
<path fill="none" stroke="#000000" stroke-width="2" d="M156,-299.88C240.11,-299.91 261.19,-296.16 346,-296.13"/>
<path fill="none" stroke="#ffffff" stroke-width="2" d="M156,-301.88C240.46,-301.88 261.54,-298.12 346,-298.12"/>
<path fill="none" stroke="#000000" stroke-width="2" d="M156,-303.87C240.81,-303.84 261.89,-300.09 346,-300.12"/>
</g>
<!-- IO_1P&#45;&#45;CN15_BI2X_WIRES -->
<g id="edge11" class="edge">
<title>IO_1P:e&#45;&#45;CN15_BI2X_WIRES:w</title>
<path fill="none" stroke="#000000" stroke-width="2" d="M156,-276.13C239.96,-276.2 260.99,-270.45 346,-270.38"/>
<path fill="none" stroke="#ff66cc" stroke-width="2" d="M156,-278.12C240.48,-278.12 261.52,-272.37 346,-272.38"/>
<path fill="none" stroke="#000000" stroke-width="2" d="M156,-280.12C241.01,-280.05 262.04,-274.3 346,-274.37"/>
</g>
<!-- CN15 -->
<g id="node2" class="node">
<title>CN15</title>
<polygon fill="#ffffff" stroke="black" points="895.5,-498.75 758,-498.75 758,0 895.5,0 895.5,-498.75"/>
<polygon fill="none" stroke="black" points="758,-475 758,-498.75 895.5,-498.75 895.5,-475 758,-475"/>
<text xml:space="preserve" text-anchor="start" x="809.5" y="-481.45" font-family="arial" font-size="14.00">CN15</text>
<polygon fill="none" stroke="black" points="758,-451.25 758,-475 845.88,-475 845.88,-451.25 758,-451.25"/>
<text xml:space="preserve" text-anchor="start" x="764.06" y="-457.7" font-family="arial" font-size="14.00">PHDR&#45;26VS</text>
<polygon fill="none" stroke="black" points="845.88,-451.25 845.88,-475 895.5,-475 895.5,-451.25 845.88,-451.25"/>
<text xml:space="preserve" text-anchor="start" x="851.94" y="-457.7" font-family="arial" font-size="14.00">26&#45;pin</text>
<polygon fill="none" stroke="black" points="758,-427.5 758,-451.25 781,-451.25 781,-427.5 758,-427.5"/>
<text xml:space="preserve" text-anchor="start" x="765.75" y="-433.95" font-family="arial" font-size="14.00">1</text>
<polygon fill="none" stroke="black" points="758,-403.75 758,-427.5 781,-427.5 781,-403.75 758,-403.75"/>
<text xml:space="preserve" text-anchor="start" x="765.75" y="-410.2" font-family="arial" font-size="14.00">2</text>
<polygon fill="none" stroke="black" points="758,-380 758,-403.75 781,-403.75 781,-380 758,-380"/>
<text xml:space="preserve" text-anchor="start" x="765.75" y="-386.45" font-family="arial" font-size="14.00">3</text>
<polygon fill="none" stroke="black" points="781,-380 781,-403.75 895.5,-403.75 895.5,-380 781,-380"/>
<text xml:space="preserve" text-anchor="start" x="808.62" y="-386.45" font-family="arial" font-size="14.00">SW2 (1P)</text>
<polygon fill="none" stroke="black" points="758,-356.25 758,-380 781,-380 781,-356.25 758,-356.25"/>
<text xml:space="preserve" text-anchor="start" x="765.75" y="-362.7" font-family="arial" font-size="14.00">4</text>
<polygon fill="none" stroke="black" points="781,-356.25 781,-380 895.5,-380 895.5,-356.25 781,-356.25"/>
<text xml:space="preserve" text-anchor="start" x="808.62" y="-362.7" font-family="arial" font-size="14.00">SW3 (1P)</text>
<polygon fill="none" stroke="black" points="758,-332.5 758,-356.25 781,-356.25 781,-332.5 758,-332.5"/>
<text xml:space="preserve" text-anchor="start" x="765.75" y="-338.95" font-family="arial" font-size="14.00">5</text>
<polygon fill="none" stroke="black" points="781,-332.5 781,-356.25 895.5,-356.25 895.5,-332.5 781,-332.5"/>
<text xml:space="preserve" text-anchor="start" x="808.62" y="-338.95" font-family="arial" font-size="14.00">SW4 (1P)</text>
<polygon fill="none" stroke="black" points="758,-308.75 758,-332.5 781,-332.5 781,-308.75 758,-308.75"/>
<text xml:space="preserve" text-anchor="start" x="765.75" y="-315.2" font-family="arial" font-size="14.00">6</text>
<polygon fill="none" stroke="black" points="781,-308.75 781,-332.5 895.5,-332.5 895.5,-308.75 781,-308.75"/>
<text xml:space="preserve" text-anchor="start" x="808.62" y="-315.2" font-family="arial" font-size="14.00">SW5 (1P)</text>
<polygon fill="none" stroke="black" points="758,-285 758,-308.75 781,-308.75 781,-285 758,-285"/>
<text xml:space="preserve" text-anchor="start" x="765.75" y="-291.45" font-family="arial" font-size="14.00">7</text>
<polygon fill="none" stroke="black" points="781,-285 781,-308.75 895.5,-308.75 895.5,-285 781,-285"/>
<text xml:space="preserve" text-anchor="start" x="808.62" y="-291.45" font-family="arial" font-size="14.00">SW6 (1P)</text>
<polygon fill="none" stroke="black" points="758,-261.25 758,-285 781,-285 781,-261.25 758,-261.25"/>
<text xml:space="preserve" text-anchor="start" x="765.75" y="-267.7" font-family="arial" font-size="14.00">8</text>
<polygon fill="none" stroke="black" points="781,-261.25 781,-285 895.5,-285 895.5,-261.25 781,-261.25"/>
<text xml:space="preserve" text-anchor="start" x="808.62" y="-267.7" font-family="arial" font-size="14.00">SW7 (1P)</text>
<polygon fill="none" stroke="black" points="758,-237.5 758,-261.25 781,-261.25 781,-237.5 758,-237.5"/>
<text xml:space="preserve" text-anchor="start" x="765.75" y="-243.95" font-family="arial" font-size="14.00">9</text>
<polygon fill="none" stroke="black" points="758,-213.75 758,-237.5 781,-237.5 781,-213.75 758,-213.75"/>
<text xml:space="preserve" text-anchor="start" x="762" y="-220.2" font-family="arial" font-size="14.00">10</text>
<polygon fill="none" stroke="black" points="781,-213.75 781,-237.5 895.5,-237.5 895.5,-213.75 781,-213.75"/>
<text xml:space="preserve" text-anchor="start" x="789.88" y="-220.2" font-family="arial" font-size="14.00">HP DETECT 1P</text>
<polygon fill="none" stroke="black" points="758,-190 758,-213.75 781,-213.75 781,-190 758,-190"/>
<text xml:space="preserve" text-anchor="start" x="762.38" y="-196.45" font-family="arial" font-size="14.00">11</text>
<polygon fill="none" stroke="black" points="781,-190 781,-213.75 895.5,-213.75 895.5,-190 781,-190"/>
<text xml:space="preserve" text-anchor="start" x="789.88" y="-196.45" font-family="arial" font-size="14.00">HP DETECT 2P</text>
<polygon fill="none" stroke="black" points="758,-166.25 758,-190 781,-190 781,-166.25 758,-166.25"/>
<text xml:space="preserve" text-anchor="start" x="762" y="-172.7" font-family="arial" font-size="14.00">12</text>
<polygon fill="none" stroke="black" points="781,-166.25 781,-190 895.5,-190 895.5,-166.25 781,-166.25"/>
<text xml:space="preserve" text-anchor="start" x="785" y="-172.7" font-family="arial" font-size="14.00">REC DETECT 1P</text>
<polygon fill="none" stroke="black" points="758,-142.5 758,-166.25 781,-166.25 781,-142.5 758,-142.5"/>
<text xml:space="preserve" text-anchor="start" x="762" y="-148.95" font-family="arial" font-size="14.00">13</text>
<polygon fill="none" stroke="black" points="781,-142.5 781,-166.25 895.5,-166.25 895.5,-142.5 781,-142.5"/>
<text xml:space="preserve" text-anchor="start" x="785" y="-148.95" font-family="arial" font-size="14.00">REC DETECT 2P</text>
<polygon fill="none" stroke="black" points="758,-118.75 758,-142.5 781,-142.5 781,-118.75 758,-118.75"/>
<text xml:space="preserve" text-anchor="start" x="762" y="-125.2" font-family="arial" font-size="14.00">14</text>
<polygon fill="none" stroke="black" points="758,-95 758,-118.75 781,-118.75 781,-95 758,-95"/>
<text xml:space="preserve" text-anchor="start" x="763.88" y="-101.45" font-family="arial" font-size="14.00">...</text>
<polygon fill="none" stroke="black" points="758,-71.25 758,-95 781,-95 781,-71.25 758,-71.25"/>
<text xml:space="preserve" text-anchor="start" x="762" y="-77.7" font-family="arial" font-size="14.00">21</text>
<polygon fill="none" stroke="black" points="781,-71.25 781,-95 895.5,-95 895.5,-71.25 781,-71.25"/>
<text xml:space="preserve" text-anchor="start" x="822.88" y="-77.7" font-family="arial" font-size="14.00">GND</text>
<polygon fill="none" stroke="black" points="758,-47.5 758,-71.25 781,-71.25 781,-47.5 758,-47.5"/>
<text xml:space="preserve" text-anchor="start" x="762" y="-53.95" font-family="arial" font-size="14.00">22</text>
<polygon fill="none" stroke="black" points="758,-23.75 758,-47.5 781,-47.5 781,-23.75 758,-23.75"/>
<text xml:space="preserve" text-anchor="start" x="762" y="-30.2" font-family="arial" font-size="14.00">....</text>
<polygon fill="none" stroke="black" points="758,0 758,-23.75 781,-23.75 781,0 758,0"/>
<text xml:space="preserve" text-anchor="start" x="762" y="-6.45" font-family="arial" font-size="14.00">26</text>
</g>
<!-- JACK -->
<g id="node3" class="node">
<title>JACK</title>
<polygon fill="#ffffff" stroke="black" points="182.75,-191.38 0,-191.38 0,-1.38 182.75,-1.38 182.75,-191.38"/>
<polygon fill="none" stroke="black" points="0,-167.62 0,-191.38 182.75,-191.38 182.75,-167.62 0,-167.62"/>
<text xml:space="preserve" text-anchor="start" x="74.12" y="-174.07" font-family="arial" font-size="14.00">JACK</text>
<polygon fill="none" stroke="black" points="0,-143.88 0,-167.62 106,-167.62 106,-143.88 0,-143.88"/>
<text xml:space="preserve" text-anchor="start" x="23.38" y="-150.32" font-family="arial" font-size="14.00">XMR&#45;05V</text>
<polygon fill="none" stroke="black" points="106,-143.88 106,-167.62 182.75,-167.62 182.75,-143.88 106,-143.88"/>
<text xml:space="preserve" text-anchor="start" x="129.38" y="-150.32" font-family="arial" font-size="14.00">5&#45;pin</text>
<polygon fill="none" stroke="black" points="0,-120.12 0,-143.88 182.75,-143.88 182.75,-120.12 0,-120.12"/>
<text xml:space="preserve" text-anchor="start" x="87.62" y="-126.58" font-family="arial" font-size="14.00">1</text>
<polygon fill="none" stroke="black" points="0,-96.38 0,-120.12 182.75,-120.12 182.75,-96.38 0,-96.38"/>
<text xml:space="preserve" text-anchor="start" x="87.62" y="-102.83" font-family="arial" font-size="14.00">2</text>
<polygon fill="none" stroke="black" points="0,-72.62 0,-96.38 182.75,-96.38 182.75,-72.62 0,-72.62"/>
<text xml:space="preserve" text-anchor="start" x="87.62" y="-79.08" font-family="arial" font-size="14.00">3</text>
<polygon fill="none" stroke="black" points="0,-48.88 0,-72.62 182.75,-72.62 182.75,-48.88 0,-48.88"/>
<text xml:space="preserve" text-anchor="start" x="87.62" y="-55.33" font-family="arial" font-size="14.00">4</text>
<polygon fill="none" stroke="black" points="0,-25.12 0,-48.88 182.75,-48.88 182.75,-25.12 0,-25.12"/>
<text xml:space="preserve" text-anchor="start" x="87.62" y="-31.57" font-family="arial" font-size="14.00">5</text>
<polygon fill="none" stroke="black" points="0,-1.38 0,-25.12 182.75,-25.12 182.75,-1.38 0,-1.38"/>
<text xml:space="preserve" text-anchor="start" x="4" y="-7.83" font-family="arial" font-size="14.00">Goes to headphone amplifier</text>
</g>
<!-- JACK_WIRES -->
<g id="node5" class="node">
<title>JACK_WIRES</title>
<polygon fill="#ffffff" stroke="black" points="614,-225.25 326.75,-225.25 326.75,-9.5 614,-9.5 614,-225.25"/>
<polygon fill="none" stroke="black" points="326.75,-201.5 326.75,-225.25 614,-225.25 614,-201.5 326.75,-201.5"/>
<text xml:space="preserve" text-anchor="start" x="426.88" y="-207.95" font-family="arial" font-size="14.00">JACK_WIRES</text>
<polygon fill="none" stroke="black" points="326.75,-177.75 326.75,-201.5 614,-201.5 614,-177.75 326.75,-177.75"/>
<text xml:space="preserve" text-anchor="start" x="463.25" y="-184.2" font-family="arial" font-size="14.00">5x</text>
<text xml:space="preserve" text-anchor="start" x="349.75" y="-162.45" font-family="arial" font-size="14.00"> </text>
<text xml:space="preserve" text-anchor="start" x="328.75" y="-142.7" font-family="arial" font-size="14.00">JACK:1</text>
<text xml:space="preserve" text-anchor="start" x="378.5" y="-142.7" font-family="arial" font-size="14.00"> &#160;&#160;&#160;&#160;1:GN &#160;&#160;&#160;</text>
<text xml:space="preserve" text-anchor="start" x="453.38" y="-142.7" font-family="arial" font-size="14.00">CN15:10:HP DETECT 1P</text>
<polygon fill="#000000" stroke="none" points="326.75,-136.25 326.75,-138.25 614,-138.25 614,-136.25 326.75,-136.25"/>
<polygon fill="#00ff00" stroke="none" points="326.75,-134.25 326.75,-136.25 614,-136.25 614,-134.25 326.75,-134.25"/>
<polygon fill="#000000" stroke="none" points="326.75,-132.25 326.75,-134.25 614,-134.25 614,-132.25 326.75,-132.25"/>
<text xml:space="preserve" text-anchor="start" x="328.75" y="-116.95" font-family="arial" font-size="14.00">JACK:2</text>
<text xml:space="preserve" text-anchor="start" x="379.62" y="-116.95" font-family="arial" font-size="14.00"> &#160;&#160;&#160;&#160;2:BU &#160;&#160;&#160;</text>
<text xml:space="preserve" text-anchor="start" x="453.75" y="-116.95" font-family="arial" font-size="14.00">CN15:11:HP DETECT 2P</text>
<polygon fill="#000000" stroke="none" points="326.75,-110.5 326.75,-112.5 614,-112.5 614,-110.5 326.75,-110.5"/>
<polygon fill="#0066ff" stroke="none" points="326.75,-108.5 326.75,-110.5 614,-110.5 614,-108.5 326.75,-108.5"/>
<polygon fill="#000000" stroke="none" points="326.75,-106.5 326.75,-108.5 614,-108.5 614,-106.5 326.75,-106.5"/>
<text xml:space="preserve" text-anchor="start" x="328.75" y="-91.2" font-family="arial" font-size="14.00">JACK:3</text>
<text xml:space="preserve" text-anchor="start" x="380.38" y="-91.2" font-family="arial" font-size="14.00"> &#160;&#160;&#160;&#160;3:VT &#160;&#160;&#160;</text>
<text xml:space="preserve" text-anchor="start" x="448.5" y="-91.2" font-family="arial" font-size="14.00">CN15:12:REC DETECT 1P</text>
<polygon fill="#000000" stroke="none" points="326.75,-84.75 326.75,-86.75 614,-86.75 614,-84.75 326.75,-84.75"/>
<polygon fill="#8000ff" stroke="none" points="326.75,-82.75 326.75,-84.75 614,-84.75 614,-82.75 326.75,-82.75"/>
<polygon fill="#000000" stroke="none" points="326.75,-80.75 326.75,-82.75 614,-82.75 614,-80.75 326.75,-80.75"/>
<text xml:space="preserve" text-anchor="start" x="328.75" y="-65.45" font-family="arial" font-size="14.00">JACK:4</text>
<text xml:space="preserve" text-anchor="start" x="378.88" y="-65.45" font-family="arial" font-size="14.00"> &#160;&#160;&#160;&#160;4:GY &#160;&#160;&#160;</text>
<text xml:space="preserve" text-anchor="start" x="448.5" y="-65.45" font-family="arial" font-size="14.00">CN15:13:REC DETECT 2P</text>
<polygon fill="#000000" stroke="none" points="326.75,-59 326.75,-61 614,-61 614,-59 326.75,-59"/>
<polygon fill="#999999" stroke="none" points="326.75,-57 326.75,-59 614,-59 614,-57 326.75,-57"/>
<polygon fill="#000000" stroke="none" points="326.75,-55 326.75,-57 614,-57 614,-55 326.75,-55"/>
<text xml:space="preserve" text-anchor="start" x="328.75" y="-39.7" font-family="arial" font-size="14.00">JACK:5</text>
<text xml:space="preserve" text-anchor="start" x="380" y="-39.7" font-family="arial" font-size="14.00"> &#160;&#160;&#160;&#160;5:BK &#160;&#160;&#160;</text>
<text xml:space="preserve" text-anchor="start" x="486.38" y="-39.7" font-family="arial" font-size="14.00">CN15:21:GND</text>
<polygon fill="#000000" stroke="none" points="326.75,-33.25 326.75,-35.25 614,-35.25 614,-33.25 326.75,-33.25"/>
<polygon fill="#000000" stroke="none" points="326.75,-31.25 326.75,-33.25 614,-33.25 614,-31.25 326.75,-31.25"/>
<polygon fill="#000000" stroke="none" points="326.75,-29.25 326.75,-31.25 614,-31.25 614,-29.25 326.75,-29.25"/>
<text xml:space="preserve" text-anchor="start" x="349.75" y="-13.95" font-family="arial" font-size="14.00"> </text>
</g>
<!-- JACK&#45;&#45;JACK_WIRES -->
<g id="edge13" class="edge">
<title>JACK:e&#45;&#45;JACK_WIRES:w</title>
<path fill="none" stroke="#000000" stroke-width="2" d="M182.75,-130C247.17,-130.04 263.13,-133.29 326.75,-133.25"/>
<path fill="none" stroke="#00ff00" stroke-width="2" d="M182.75,-132C246.77,-132 262.73,-135.25 326.75,-135.25"/>
<path fill="none" stroke="#000000" stroke-width="2" d="M182.75,-134C246.37,-133.96 262.33,-137.21 326.75,-137.25"/>
</g>
<!-- JACK&#45;&#45;JACK_WIRES -->
<g id="edge15" class="edge">
<title>JACK:e&#45;&#45;JACK_WIRES:w</title>
<path fill="none" stroke="#000000" stroke-width="2" d="M182.75,-106.25C246.91,-106.26 262.9,-107.51 326.75,-107.5"/>
<path fill="none" stroke="#0066ff" stroke-width="2" d="M182.75,-108.25C246.75,-108.25 262.75,-109.5 326.75,-109.5"/>
<path fill="none" stroke="#000000" stroke-width="2" d="M182.75,-110.25C246.6,-110.24 262.59,-111.49 326.75,-111.5"/>
</g>
<!-- JACK&#45;&#45;JACK_WIRES -->
<g id="edge17" class="edge">
<title>JACK:e&#45;&#45;JACK_WIRES:w</title>
<path fill="none" stroke="#000000" stroke-width="2" d="M182.75,-82.5C246.66,-82.5 262.66,-81.75 326.75,-81.75"/>
<path fill="none" stroke="#8000ff" stroke-width="2" d="M182.75,-84.5C246.75,-84.5 262.75,-83.75 326.75,-83.75"/>
<path fill="none" stroke="#000000" stroke-width="2" d="M182.75,-86.5C246.84,-86.5 262.84,-85.75 326.75,-85.75"/>
</g>
<!-- JACK&#45;&#45;JACK_WIRES -->
<g id="edge19" class="edge">
<title>JACK:e&#45;&#45;JACK_WIRES:w</title>
<path fill="none" stroke="#000000" stroke-width="2" d="M182.75,-58.75C246.42,-58.78 262.4,-56.03 326.75,-56"/>
<path fill="none" stroke="#999999" stroke-width="2" d="M182.75,-60.75C246.76,-60.75 262.74,-58 326.75,-58"/>
<path fill="none" stroke="#000000" stroke-width="2" d="M182.75,-62.75C247.1,-62.72 263.08,-59.97 326.75,-60"/>
</g>
<!-- JACK&#45;&#45;JACK_WIRES -->
<g id="edge21" class="edge">
<title>JACK:e&#45;&#45;JACK_WIRES:w</title>
<path fill="none" stroke="#000000" stroke-width="2" d="M182.75,-35C246.21,-35.08 262.14,-30.33 326.75,-30.25"/>
<path fill="none" stroke="#000000" stroke-width="2" d="M182.75,-37C246.78,-37 262.72,-32.25 326.75,-32.25"/>
<path fill="none" stroke="#000000" stroke-width="2" d="M182.75,-39C247.36,-38.92 263.29,-34.17 326.75,-34.25"/>
</g>
<!-- CN15_BI2X_WIRES&#45;&#45;CN15 -->
<g id="edge2" class="edge">
<title>CN15_BI2X_WIRES:e&#45;&#45;CN15:w</title>
<path fill="none" stroke="#000000" stroke-width="2" d="M594.75,-399.13C666.5,-399.35 684.41,-390.1 758,-389.88"/>
<path fill="none" stroke="#00ff00" stroke-width="2" d="M594.75,-401.12C667.42,-401.12 685.33,-391.88 758,-391.88"/>
<path fill="none" stroke="#000000" stroke-width="2" d="M594.75,-403.12C668.34,-402.9 686.25,-393.65 758,-393.87"/>
</g>
<!-- CN15_BI2X_WIRES&#45;&#45;CN15 -->
<g id="edge4" class="edge">
<title>CN15_BI2X_WIRES:e&#45;&#45;CN15:w</title>
<path fill="none" stroke="#000000" stroke-width="2" d="M594.75,-373.38C666.63,-373.52 684.63,-366.27 758,-366.13"/>
<path fill="none" stroke="#0066ff" stroke-width="2" d="M594.75,-375.37C667.38,-375.38 685.37,-368.12 758,-368.12"/>
<path fill="none" stroke="#000000" stroke-width="2" d="M594.75,-377.37C668.12,-377.23 686.12,-369.98 758,-370.12"/>
</g>
<!-- CN15_BI2X_WIRES&#45;&#45;CN15 -->
<g id="edge6" class="edge">
<title>CN15_BI2X_WIRES:e&#45;&#45;CN15:w</title>
<path fill="none" stroke="#000000" stroke-width="2" d="M594.75,-347.63C666.78,-347.7 684.85,-342.45 758,-342.38"/>
<path fill="none" stroke="#8000ff" stroke-width="2" d="M594.75,-349.62C667.34,-349.63 685.41,-344.38 758,-344.38"/>
<path fill="none" stroke="#000000" stroke-width="2" d="M594.75,-351.62C667.9,-351.55 685.97,-346.3 758,-346.37"/>
</g>
<!-- CN15_BI2X_WIRES&#45;&#45;CN15 -->
<g id="edge8" class="edge">
<title>CN15_BI2X_WIRES:e&#45;&#45;CN15:w</title>
<path fill="none" stroke="#000000" stroke-width="2" d="M594.75,-321.88C666.97,-321.91 685.08,-318.66 758,-318.63"/>
<path fill="none" stroke="#999999" stroke-width="2" d="M594.75,-323.88C667.32,-323.88 685.43,-320.62 758,-320.62"/>
<path fill="none" stroke="#000000" stroke-width="2" d="M594.75,-325.87C667.67,-325.84 685.78,-322.59 758,-322.62"/>
</g>
<!-- CN15_BI2X_WIRES&#45;&#45;CN15 -->
<g id="edge10" class="edge">
<title>CN15_BI2X_WIRES:e&#45;&#45;CN15:w</title>
<path fill="none" stroke="#000000" stroke-width="2" d="M594.75,-296.13C667.17,-296.13 685.3,-294.88 758,-294.88"/>
<path fill="none" stroke="#ffffff" stroke-width="2" d="M594.75,-298.12C667.31,-298.12 685.44,-296.88 758,-296.88"/>
<path fill="none" stroke="#000000" stroke-width="2" d="M594.75,-300.12C667.45,-300.12 685.58,-298.87 758,-298.87"/>
</g>
<!-- CN15_BI2X_WIRES&#45;&#45;CN15 -->
<g id="edge12" class="edge">
<title>CN15_BI2X_WIRES:e&#45;&#45;CN15:w</title>
<path fill="none" stroke="#000000" stroke-width="2" d="M594.75,-270.38C667.39,-270.38 685.53,-271.13 758,-271.13"/>
<path fill="none" stroke="#ff66cc" stroke-width="2" d="M594.75,-272.38C667.31,-272.37 685.44,-273.12 758,-273.13"/>
<path fill="none" stroke="#000000" stroke-width="2" d="M594.75,-274.37C667.22,-274.37 685.36,-275.12 758,-275.12"/>
</g>
<!-- JACK_WIRES&#45;&#45;CN15 -->
<g id="edge14" class="edge">
<title>JACK_WIRES:e&#45;&#45;CN15:w</title>
<path fill="none" stroke="#000000" stroke-width="2" d="M614,-133.25C691.55,-135.41 684.43,-225.78 758,-223.63"/>
<path fill="none" stroke="#00ff00" stroke-width="2" d="M614,-135.25C689.56,-135.25 682.44,-225.62 758,-225.62"/>
<path fill="none" stroke="#000000" stroke-width="2" d="M614,-137.25C687.57,-135.09 680.45,-225.47 758,-227.62"/>
</g>
<!-- JACK_WIRES&#45;&#45;CN15 -->
<g id="edge16" class="edge">
<title>JACK_WIRES:e&#45;&#45;CN15:w</title>
<path fill="none" stroke="#000000" stroke-width="2" d="M614,-107.5C692.03,-109.67 683.96,-202.05 758,-199.88"/>
<path fill="none" stroke="#0066ff" stroke-width="2" d="M614,-109.5C690.04,-109.5 681.96,-201.87 758,-201.88"/>
<path fill="none" stroke="#000000" stroke-width="2" d="M614,-111.5C688.04,-109.33 679.97,-201.7 758,-203.87"/>
</g>
<!-- JACK_WIRES&#45;&#45;CN15 -->
<g id="edge18" class="edge">
<title>JACK_WIRES:e&#45;&#45;CN15:w</title>
<path fill="none" stroke="#000000" stroke-width="2" d="M614,-81.75C692.51,-83.94 683.47,-178.32 758,-176.13"/>
<path fill="none" stroke="#8000ff" stroke-width="2" d="M614,-83.75C690.52,-83.75 681.48,-178.12 758,-178.12"/>
<path fill="none" stroke="#000000" stroke-width="2" d="M614,-85.75C688.53,-83.56 679.49,-177.93 758,-180.12"/>
</g>
<!-- JACK_WIRES&#45;&#45;CN15 -->
<g id="edge20" class="edge">
<title>JACK_WIRES:e&#45;&#45;CN15:w</title>
<path fill="none" stroke="#000000" stroke-width="2" d="M614,-56C693,-58.21 682.98,-154.58 758,-152.38"/>
<path fill="none" stroke="#999999" stroke-width="2" d="M614,-58C691.01,-58 680.99,-154.37 758,-154.38"/>
<path fill="none" stroke="#000000" stroke-width="2" d="M614,-60C689.02,-57.79 679,-154.17 758,-156.37"/>
</g>
<!-- JACK_WIRES&#45;&#45;CN15 -->
<g id="edge22" class="edge">
<title>JACK_WIRES:e&#45;&#45;CN15:w</title>
<path fill="none" stroke="#000000" stroke-width="2" d="M614,-30.25C683.85,-31.93 692.1,-82.8 758,-81.13"/>
<path fill="none" stroke="#000000" stroke-width="2" d="M614,-32.25C681.88,-32.25 690.12,-83.12 758,-83.12"/>
<path fill="none" stroke="#000000" stroke-width="2" d="M614,-34.25C679.9,-32.57 688.15,-83.45 758,-85.12"/>
</g>
</g>
</svg>
