<?xml version="1.0" encoding="UTF-8" standalone="no"?>
<!DOCTYPE svg PUBLIC "-//W3C//DTD SVG 1.1//EN"
 "http://www.w3.org/Graphics/SVG/1.1/DTD/svg11.dtd">
<!-- Generated by graphviz version 14.0.2 (20251019.1705)
 -->
<!-- Pages: 1 -->
<svg width="883pt" height="354pt"
 viewBox="0.00 0.00 883.00 354.00" xmlns="http://www.w3.org/2000/svg" xmlns:xlink="http://www.w3.org/1999/xlink">
<g id="graph0" class="graph" transform="scale(1 1) rotate(0) translate(4 349.88)">
<polygon fill="#ffffff" stroke="none" points="-4,4 -4,-349.88 878.5,-349.88 878.5,4 -4,4"/>
<!-- CN15_EXT -->
<g id="node1" class="node">
<title>CN15_EXT</title>
<polygon fill="#ffffff" stroke="black" points="127.25,-309 0,-309 0,-47.75 127.25,-47.75 127.25,-309"/>
<polygon fill="none" stroke="black" points="0,-285.25 0,-309 127.25,-309 127.25,-285.25 0,-285.25"/>
<text xml:space="preserve" text-anchor="start" x="29.5" y="-291.7" font-family="arial" font-size="14.00">CN15_EXT</text>
<polygon fill="none" stroke="black" points="0,-261.5 0,-285.25 78.25,-285.25 78.25,-261.5 0,-261.5"/>
<text xml:space="preserve" text-anchor="start" x="9.5" y="-267.95" font-family="arial" font-size="14.00">XMR&#45;08V</text>
<polygon fill="none" stroke="black" points="78.25,-261.5 78.25,-285.25 127.25,-285.25 127.25,-261.5 78.25,-261.5"/>
<text xml:space="preserve" text-anchor="start" x="87.75" y="-267.95" font-family="arial" font-size="14.00">8&#45;pin</text>
<polygon fill="none" stroke="black" points="0,-237.75 0,-261.5 89.5,-261.5 89.5,-237.75 0,-237.75"/>
<text xml:space="preserve" text-anchor="start" x="29.38" y="-244.2" font-family="arial" font-size="14.00">GND</text>
<polygon fill="none" stroke="black" points="89.5,-237.75 89.5,-261.5 127.25,-261.5 127.25,-237.75 89.5,-237.75"/>
<text xml:space="preserve" text-anchor="start" x="104.62" y="-244.2" font-family="arial" font-size="14.00">1</text>
<polygon fill="none" stroke="black" points="0,-214 0,-237.75 89.5,-237.75 89.5,-214 0,-214"/>
<text xml:space="preserve" text-anchor="start" x="15.12" y="-220.45" font-family="arial" font-size="14.00">SW2 (1P)</text>
<polygon fill="none" stroke="black" points="89.5,-214 89.5,-237.75 127.25,-237.75 127.25,-214 89.5,-214"/>
<text xml:space="preserve" text-anchor="start" x="104.62" y="-220.45" font-family="arial" font-size="14.00">2</text>
<polygon fill="none" stroke="black" points="0,-190.25 0,-214 89.5,-214 89.5,-190.25 0,-190.25"/>
<text xml:space="preserve" text-anchor="start" x="15.12" y="-196.7" font-family="arial" font-size="14.00">SW3 (1P)</text>
<polygon fill="none" stroke="black" points="89.5,-190.25 89.5,-214 127.25,-214 127.25,-190.25 89.5,-190.25"/>
<text xml:space="preserve" text-anchor="start" x="104.62" y="-196.7" font-family="arial" font-size="14.00">3</text>
<polygon fill="none" stroke="black" points="0,-166.5 0,-190.25 89.5,-190.25 89.5,-166.5 0,-166.5"/>
<text xml:space="preserve" text-anchor="start" x="15.12" y="-172.95" font-family="arial" font-size="14.00">SW4 (1P)</text>
<polygon fill="none" stroke="black" points="89.5,-166.5 89.5,-190.25 127.25,-190.25 127.25,-166.5 89.5,-166.5"/>
<text xml:space="preserve" text-anchor="start" x="104.62" y="-172.95" font-family="arial" font-size="14.00">4</text>
<polygon fill="none" stroke="black" points="0,-142.75 0,-166.5 89.5,-166.5 89.5,-142.75 0,-142.75"/>
<text xml:space="preserve" text-anchor="start" x="15.12" y="-149.2" font-family="arial" font-size="14.00">SW5 (1P)</text>
<polygon fill="none" stroke="black" points="89.5,-142.75 89.5,-166.5 127.25,-166.5 127.25,-142.75 89.5,-142.75"/>
<text xml:space="preserve" text-anchor="start" x="104.62" y="-149.2" font-family="arial" font-size="14.00">5</text>
<polygon fill="none" stroke="black" points="0,-119 0,-142.75 89.5,-142.75 89.5,-119 0,-119"/>
<text xml:space="preserve" text-anchor="start" x="15.12" y="-125.45" font-family="arial" font-size="14.00">SW6 (1P)</text>
<polygon fill="none" stroke="black" points="89.5,-119 89.5,-142.75 127.25,-142.75 127.25,-119 89.5,-119"/>
<text xml:space="preserve" text-anchor="start" x="104.62" y="-125.45" font-family="arial" font-size="14.00">6</text>
<polygon fill="none" stroke="black" points="0,-95.25 0,-119 89.5,-119 89.5,-95.25 0,-95.25"/>
<text xml:space="preserve" text-anchor="start" x="15.12" y="-101.7" font-family="arial" font-size="14.00">SW7 (1P)</text>
<polygon fill="none" stroke="black" points="89.5,-95.25 89.5,-119 127.25,-119 127.25,-95.25 89.5,-95.25"/>
<text xml:space="preserve" text-anchor="start" x="104.62" y="-101.7" font-family="arial" font-size="14.00">7</text>
<polygon fill="none" stroke="black" points="0,-71.5 0,-95.25 89.5,-95.25 89.5,-71.5 0,-71.5"/>
<text xml:space="preserve" text-anchor="start" x="30.5" y="-77.95" font-family="arial" font-size="14.00">IN16</text>
<polygon fill="none" stroke="black" points="89.5,-71.5 89.5,-95.25 127.25,-95.25 127.25,-71.5 89.5,-71.5"/>
<text xml:space="preserve" text-anchor="start" x="104.62" y="-77.95" font-family="arial" font-size="14.00">8</text>
<polygon fill="none" stroke="black" points="0,-47.75 0,-71.5 127.25,-71.5 127.25,-47.75 0,-47.75"/>
<text xml:space="preserve" text-anchor="start" x="4" y="-54.2" font-family="arial" font-size="14.00">Goes to relay board</text>
</g>
<!-- CN15_BI2A_WIRES -->
<g id="node3" class="node">
<title>CN15_BI2A_WIRES</title>
<polygon fill="#ffffff" stroke="black" points="601.25,-345.88 271.25,-345.88 271.25,-52.88 601.25,-52.88 601.25,-345.88"/>
<polygon fill="none" stroke="black" points="271.25,-322.12 271.25,-345.88 601.25,-345.88 601.25,-322.12 271.25,-322.12"/>
<text xml:space="preserve" text-anchor="start" x="374.38" y="-328.57" font-family="arial" font-size="14.00">CN15_BI2A_WIRES</text>
<polygon fill="none" stroke="black" points="271.25,-298.38 271.25,-322.12 601.25,-322.12 601.25,-298.38 271.25,-298.38"/>
<text xml:space="preserve" text-anchor="start" x="429.12" y="-304.82" font-family="arial" font-size="14.00">8x</text>
<text xml:space="preserve" text-anchor="start" x="341.88" y="-283.07" font-family="arial" font-size="14.00"> </text>
<text xml:space="preserve" text-anchor="start" x="287.5" y="-263.32" font-family="arial" font-size="14.00">CN15_EXT:1:GND</text>
<text xml:space="preserve" text-anchor="start" x="420.88" y="-263.32" font-family="arial" font-size="14.00"> &#160;&#160;&#160;&#160;1:BK &#160;&#160;&#160;</text>
<text xml:space="preserve" text-anchor="start" x="504.75" y="-263.32" font-family="arial" font-size="14.00">CN15:1:GND</text>
<polygon fill="#000000" stroke="none" points="271.25,-256.88 271.25,-258.88 601.25,-258.88 601.25,-256.88 271.25,-256.88"/>
<polygon fill="#000000" stroke="none" points="271.25,-254.88 271.25,-256.88 601.25,-256.88 601.25,-254.88 271.25,-254.88"/>
<polygon fill="#000000" stroke="none" points="271.25,-252.88 271.25,-254.88 601.25,-254.88 601.25,-252.88 271.25,-252.88"/>
<text xml:space="preserve" text-anchor="start" x="273.25" y="-237.57" font-family="arial" font-size="14.00">CN15_EXT:2:SW2 (1P)</text>
<text xml:space="preserve" text-anchor="start" x="419.38" y="-237.57" font-family="arial" font-size="14.00"> &#160;&#160;&#160;&#160;2:GN &#160;&#160;&#160;</text>
<text xml:space="preserve" text-anchor="start" x="490.5" y="-237.57" font-family="arial" font-size="14.00">CN15:2:SW2 (1P)</text>
<polygon fill="#000000" stroke="none" points="271.25,-231.12 271.25,-233.12 601.25,-233.12 601.25,-231.12 271.25,-231.12"/>
<polygon fill="#00ff00" stroke="none" points="271.25,-229.12 271.25,-231.12 601.25,-231.12 601.25,-229.12 271.25,-229.12"/>
<polygon fill="#000000" stroke="none" points="271.25,-227.12 271.25,-229.12 601.25,-229.12 601.25,-227.12 271.25,-227.12"/>
<text xml:space="preserve" text-anchor="start" x="273.25" y="-211.82" font-family="arial" font-size="14.00">CN15_EXT:3:SW3 (1P)</text>
<text xml:space="preserve" text-anchor="start" x="420.5" y="-211.82" font-family="arial" font-size="14.00"> &#160;&#160;&#160;&#160;3:BU &#160;&#160;&#160;</text>
<text xml:space="preserve" text-anchor="start" x="490.5" y="-211.82" font-family="arial" font-size="14.00">CN15:3:SW3 (1P)</text>
<polygon fill="#000000" stroke="none" points="271.25,-205.38 271.25,-207.38 601.25,-207.38 601.25,-205.38 271.25,-205.38"/>
<polygon fill="#0066ff" stroke="none" points="271.25,-203.38 271.25,-205.38 601.25,-205.38 601.25,-203.38 271.25,-203.38"/>
<polygon fill="#000000" stroke="none" points="271.25,-201.38 271.25,-203.38 601.25,-203.38 601.25,-201.38 271.25,-201.38"/>
<text xml:space="preserve" text-anchor="start" x="273.25" y="-186.07" font-family="arial" font-size="14.00">CN15_EXT:4:SW4 (1P)</text>
<text xml:space="preserve" text-anchor="start" x="421.25" y="-186.07" font-family="arial" font-size="14.00"> &#160;&#160;&#160;&#160;4:VT &#160;&#160;&#160;</text>
<text xml:space="preserve" text-anchor="start" x="490.5" y="-186.07" font-family="arial" font-size="14.00">CN15:4:SW4 (1P)</text>
<polygon fill="#000000" stroke="none" points="271.25,-179.62 271.25,-181.62 601.25,-181.62 601.25,-179.62 271.25,-179.62"/>
<polygon fill="#8000ff" stroke="none" points="271.25,-177.62 271.25,-179.62 601.25,-179.62 601.25,-177.62 271.25,-177.62"/>
<polygon fill="#000000" stroke="none" points="271.25,-175.62 271.25,-177.62 601.25,-177.62 601.25,-175.62 271.25,-175.62"/>
<text xml:space="preserve" text-anchor="start" x="273.25" y="-160.32" font-family="arial" font-size="14.00">CN15_EXT:5:SW5 (1P)</text>
<text xml:space="preserve" text-anchor="start" x="419.75" y="-160.32" font-family="arial" font-size="14.00"> &#160;&#160;&#160;&#160;5:GY &#160;&#160;&#160;</text>
<text xml:space="preserve" text-anchor="start" x="490.5" y="-160.32" font-family="arial" font-size="14.00">CN15:5:SW5 (1P)</text>
<polygon fill="#000000" stroke="none" points="271.25,-153.88 271.25,-155.88 601.25,-155.88 601.25,-153.88 271.25,-153.88"/>
<polygon fill="#999999" stroke="none" points="271.25,-151.88 271.25,-153.88 601.25,-153.88 601.25,-151.88 271.25,-151.88"/>
<polygon fill="#000000" stroke="none" points="271.25,-149.88 271.25,-151.88 601.25,-151.88 601.25,-149.88 271.25,-149.88"/>
<text xml:space="preserve" text-anchor="start" x="273.25" y="-134.57" font-family="arial" font-size="14.00">CN15_EXT:6:SW6 (1P)</text>
<text xml:space="preserve" text-anchor="start" x="418.25" y="-134.57" font-family="arial" font-size="14.00"> &#160;&#160;&#160;&#160;6:WH &#160;&#160;&#160;</text>
<text xml:space="preserve" text-anchor="start" x="490.5" y="-134.57" font-family="arial" font-size="14.00">CN15:6:SW6 (1P)</text>
<polygon fill="#000000" stroke="none" points="271.25,-128.12 271.25,-130.12 601.25,-130.12 601.25,-128.12 271.25,-128.12"/>
<polygon fill="#ffffff" stroke="none" points="271.25,-126.12 271.25,-128.12 601.25,-128.12 601.25,-126.12 271.25,-126.12"/>
<polygon fill="#000000" stroke="none" points="271.25,-124.12 271.25,-126.12 601.25,-126.12 601.25,-124.12 271.25,-124.12"/>
<text xml:space="preserve" text-anchor="start" x="273.25" y="-108.83" font-family="arial" font-size="14.00">CN15_EXT:7:SW7 (1P)</text>
<text xml:space="preserve" text-anchor="start" x="420.88" y="-108.83" font-family="arial" font-size="14.00"> &#160;&#160;&#160;&#160;7:PK &#160;&#160;&#160;</text>
<text xml:space="preserve" text-anchor="start" x="490.5" y="-108.83" font-family="arial" font-size="14.00">CN15:7:SW7 (1P)</text>
<polygon fill="#000000" stroke="none" points="271.25,-102.38 271.25,-104.38 601.25,-104.38 601.25,-102.38 271.25,-102.38"/>
<polygon fill="#ff66cc" stroke="none" points="271.25,-100.38 271.25,-102.38 601.25,-102.38 601.25,-100.38 271.25,-100.38"/>
<polygon fill="#000000" stroke="none" points="271.25,-98.38 271.25,-100.38 601.25,-100.38 601.25,-98.38 271.25,-98.38"/>
<text xml:space="preserve" text-anchor="start" x="288.62" y="-83.08" font-family="arial" font-size="14.00">CN15_EXT:8:IN16</text>
<text xml:space="preserve" text-anchor="start" x="419.38" y="-83.08" font-family="arial" font-size="14.00"> &#160;&#160;&#160;&#160;8:GN &#160;&#160;&#160;</text>
<text xml:space="preserve" text-anchor="start" x="505.88" y="-83.08" font-family="arial" font-size="14.00">CN15:8:IN16</text>
<polygon fill="#000000" stroke="none" points="271.25,-76.62 271.25,-78.62 601.25,-78.62 601.25,-76.62 271.25,-76.62"/>
<polygon fill="#00ff00" stroke="none" points="271.25,-74.62 271.25,-76.62 601.25,-76.62 601.25,-74.62 271.25,-74.62"/>
<polygon fill="#000000" stroke="none" points="271.25,-72.62 271.25,-74.62 601.25,-74.62 601.25,-72.62 271.25,-72.62"/>
<text xml:space="preserve" text-anchor="start" x="341.88" y="-57.33" font-family="arial" font-size="14.00"> </text>
</g>
<!-- CN15_EXT&#45;&#45;CN15_BI2A_WIRES -->
<g id="edge1" class="edge">
<title>CN15_EXT:e&#45;&#45;CN15_BI2A_WIRES:w</title>
<path fill="none" stroke="#000000" stroke-width="2" d="M127.25,-247.63C192.04,-247.76 207.92,-254.01 271.25,-253.88"/>
<path fill="none" stroke="#000000" stroke-width="2" d="M127.25,-249.63C191.31,-249.62 207.19,-255.87 271.25,-255.88"/>
<path fill="none" stroke="#000000" stroke-width="2" d="M127.25,-251.62C190.58,-251.49 206.46,-257.74 271.25,-257.87"/>
</g>
<!-- CN15_EXT&#45;&#45;CN15_BI2A_WIRES -->
<g id="edge3" class="edge">
<title>CN15_EXT:e&#45;&#45;CN15_BI2A_WIRES:w</title>
<path fill="none" stroke="#000000" stroke-width="2" d="M127.25,-223.88C191.79,-223.94 207.74,-228.19 271.25,-228.13"/>
<path fill="none" stroke="#00ff00" stroke-width="2" d="M127.25,-225.88C191.28,-225.87 207.22,-230.12 271.25,-230.12"/>
<path fill="none" stroke="#000000" stroke-width="2" d="M127.25,-227.87C190.76,-227.81 206.71,-232.06 271.25,-232.12"/>
</g>
<!-- CN15_EXT&#45;&#45;CN15_BI2A_WIRES -->
<g id="edge5" class="edge">
<title>CN15_EXT:e&#45;&#45;CN15_BI2A_WIRES:w</title>
<path fill="none" stroke="#000000" stroke-width="2" d="M127.25,-200.13C191.54,-200.14 207.52,-202.39 271.25,-202.38"/>
<path fill="none" stroke="#0066ff" stroke-width="2" d="M127.25,-202.12C191.26,-202.12 207.24,-204.38 271.25,-204.38"/>
<path fill="none" stroke="#000000" stroke-width="2" d="M127.25,-204.12C190.98,-204.11 206.96,-206.36 271.25,-206.37"/>
</g>
<!-- CN15_EXT&#45;&#45;CN15_BI2A_WIRES -->
<g id="edge7" class="edge">
<title>CN15_EXT:e&#45;&#45;CN15_BI2A_WIRES:w</title>
<path fill="none" stroke="#000000" stroke-width="2" d="M127.25,-176.38C191.28,-176.38 207.28,-176.63 271.25,-176.63"/>
<path fill="none" stroke="#8000ff" stroke-width="2" d="M127.25,-178.38C191.25,-178.38 207.25,-178.62 271.25,-178.62"/>
<path fill="none" stroke="#000000" stroke-width="2" d="M127.25,-180.37C191.22,-180.37 207.22,-180.62 271.25,-180.62"/>
</g>
<!-- CN15_EXT&#45;&#45;CN15_BI2A_WIRES -->
<g id="edge9" class="edge">
<title>CN15_EXT:e&#45;&#45;CN15_BI2A_WIRES:w</title>
<path fill="none" stroke="#000000" stroke-width="2" d="M127.25,-152.63C191.04,-152.64 207.03,-150.89 271.25,-150.88"/>
<path fill="none" stroke="#999999" stroke-width="2" d="M127.25,-154.62C191.25,-154.63 207.25,-152.88 271.25,-152.87"/>
<path fill="none" stroke="#000000" stroke-width="2" d="M127.25,-156.62C191.47,-156.61 207.46,-154.86 271.25,-154.87"/>
</g>
<!-- CN15_EXT&#45;&#45;CN15_BI2A_WIRES -->
<g id="edge11" class="edge">
<title>CN15_EXT:e&#45;&#45;CN15_BI2A_WIRES:w</title>
<path fill="none" stroke="#000000" stroke-width="2" d="M127.25,-128.88C190.81,-128.93 206.77,-125.18 271.25,-125.13"/>
<path fill="none" stroke="#ffffff" stroke-width="2" d="M127.25,-130.88C191.27,-130.88 207.23,-127.12 271.25,-127.12"/>
<path fill="none" stroke="#000000" stroke-width="2" d="M127.25,-132.87C191.73,-132.82 207.69,-129.07 271.25,-129.12"/>
</g>
<!-- CN15_EXT&#45;&#45;CN15_BI2A_WIRES -->
<g id="edge13" class="edge">
<title>CN15_EXT:e&#45;&#45;CN15_BI2A_WIRES:w</title>
<path fill="none" stroke="#000000" stroke-width="2" d="M127.25,-105.13C190.62,-105.24 206.52,-99.49 271.25,-99.38"/>
<path fill="none" stroke="#ff66cc" stroke-width="2" d="M127.25,-107.12C191.3,-107.12 207.2,-101.37 271.25,-101.38"/>
<path fill="none" stroke="#000000" stroke-width="2" d="M127.25,-109.12C191.98,-109.01 207.88,-103.26 271.25,-103.37"/>
</g>
<!-- CN15_EXT&#45;&#45;CN15_BI2A_WIRES -->
<g id="edge15" class="edge">
<title>CN15_EXT:e&#45;&#45;CN15_BI2A_WIRES:w</title>
<path fill="none" stroke="#000000" stroke-width="2" d="M127.25,-81.38C190.46,-81.58 206.28,-73.83 271.25,-73.63"/>
<path fill="none" stroke="#00ff00" stroke-width="2" d="M127.25,-83.38C191.34,-83.37 207.16,-75.62 271.25,-75.62"/>
<path fill="none" stroke="#000000" stroke-width="2" d="M127.25,-85.37C192.22,-85.17 208.04,-77.42 271.25,-77.62"/>
</g>
<!-- CN15 -->
<g id="node2" class="node">
<title>CN15</title>
<polygon fill="#ffffff" stroke="black" points="874.5,-308.75 745.25,-308.75 745.25,0 874.5,0 874.5,-308.75"/>
<polygon fill="none" stroke="black" points="745.25,-285 745.25,-308.75 874.5,-308.75 874.5,-285 745.25,-285"/>
<text xml:space="preserve" text-anchor="start" x="792.62" y="-291.45" font-family="arial" font-size="14.00">CN15</text>
<polygon fill="none" stroke="black" points="745.25,-261.25 745.25,-285 829,-285 829,-261.25 745.25,-261.25"/>
<text xml:space="preserve" text-anchor="start" x="749.25" y="-267.7" font-family="arial" font-size="14.00">PHDR&#45;26VS</text>
<polygon fill="none" stroke="black" points="829,-261.25 829,-285 874.5,-285 874.5,-261.25 829,-261.25"/>
<text xml:space="preserve" text-anchor="start" x="833" y="-267.7" font-family="arial" font-size="14.00">26&#45;pin</text>
<polygon fill="none" stroke="black" points="745.25,-237.5 745.25,-261.25 787.75,-261.25 787.75,-237.5 745.25,-237.5"/>
<text xml:space="preserve" text-anchor="start" x="762.75" y="-243.95" font-family="arial" font-size="14.00">1</text>
<polygon fill="none" stroke="black" points="787.75,-237.5 787.75,-261.25 874.5,-261.25 874.5,-237.5 787.75,-237.5"/>
<text xml:space="preserve" text-anchor="start" x="815.75" y="-243.95" font-family="arial" font-size="14.00">GND</text>
<polygon fill="none" stroke="black" points="745.25,-213.75 745.25,-237.5 787.75,-237.5 787.75,-213.75 745.25,-213.75"/>
<text xml:space="preserve" text-anchor="start" x="762.75" y="-220.2" font-family="arial" font-size="14.00">2</text>
<polygon fill="none" stroke="black" points="787.75,-213.75 787.75,-237.5 874.5,-237.5 874.5,-213.75 787.75,-213.75"/>
<text xml:space="preserve" text-anchor="start" x="801.5" y="-220.2" font-family="arial" font-size="14.00">SW2 (1P)</text>
<polygon fill="none" stroke="black" points="745.25,-190 745.25,-213.75 787.75,-213.75 787.75,-190 745.25,-190"/>
<text xml:space="preserve" text-anchor="start" x="762.75" y="-196.45" font-family="arial" font-size="14.00">3</text>
<polygon fill="none" stroke="black" points="787.75,-190 787.75,-213.75 874.5,-213.75 874.5,-190 787.75,-190"/>
<text xml:space="preserve" text-anchor="start" x="801.5" y="-196.45" font-family="arial" font-size="14.00">SW3 (1P)</text>
<polygon fill="none" stroke="black" points="745.25,-166.25 745.25,-190 787.75,-190 787.75,-166.25 745.25,-166.25"/>
<text xml:space="preserve" text-anchor="start" x="762.75" y="-172.7" font-family="arial" font-size="14.00">4</text>
<polygon fill="none" stroke="black" points="787.75,-166.25 787.75,-190 874.5,-190 874.5,-166.25 787.75,-166.25"/>
<text xml:space="preserve" text-anchor="start" x="801.5" y="-172.7" font-family="arial" font-size="14.00">SW4 (1P)</text>
<polygon fill="none" stroke="black" points="745.25,-142.5 745.25,-166.25 787.75,-166.25 787.75,-142.5 745.25,-142.5"/>
<text xml:space="preserve" text-anchor="start" x="762.75" y="-148.95" font-family="arial" font-size="14.00">5</text>
<polygon fill="none" stroke="black" points="787.75,-142.5 787.75,-166.25 874.5,-166.25 874.5,-142.5 787.75,-142.5"/>
<text xml:space="preserve" text-anchor="start" x="801.5" y="-148.95" font-family="arial" font-size="14.00">SW5 (1P)</text>
<polygon fill="none" stroke="black" points="745.25,-118.75 745.25,-142.5 787.75,-142.5 787.75,-118.75 745.25,-118.75"/>
<text xml:space="preserve" text-anchor="start" x="762.75" y="-125.2" font-family="arial" font-size="14.00">6</text>
<polygon fill="none" stroke="black" points="787.75,-118.75 787.75,-142.5 874.5,-142.5 874.5,-118.75 787.75,-118.75"/>
<text xml:space="preserve" text-anchor="start" x="801.5" y="-125.2" font-family="arial" font-size="14.00">SW6 (1P)</text>
<polygon fill="none" stroke="black" points="745.25,-95 745.25,-118.75 787.75,-118.75 787.75,-95 745.25,-95"/>
<text xml:space="preserve" text-anchor="start" x="762.75" y="-101.45" font-family="arial" font-size="14.00">7</text>
<polygon fill="none" stroke="black" points="787.75,-95 787.75,-118.75 874.5,-118.75 874.5,-95 787.75,-95"/>
<text xml:space="preserve" text-anchor="start" x="801.5" y="-101.45" font-family="arial" font-size="14.00">SW7 (1P)</text>
<polygon fill="none" stroke="black" points="745.25,-71.25 745.25,-95 787.75,-95 787.75,-71.25 745.25,-71.25"/>
<text xml:space="preserve" text-anchor="start" x="762.75" y="-77.7" font-family="arial" font-size="14.00">8</text>
<polygon fill="none" stroke="black" points="787.75,-71.25 787.75,-95 874.5,-95 874.5,-71.25 787.75,-71.25"/>
<text xml:space="preserve" text-anchor="start" x="816.88" y="-77.7" font-family="arial" font-size="14.00">IN16</text>
<polygon fill="none" stroke="black" points="745.25,-47.5 745.25,-71.25 787.75,-71.25 787.75,-47.5 745.25,-47.5"/>
<text xml:space="preserve" text-anchor="start" x="762.75" y="-53.95" font-family="arial" font-size="14.00">9</text>
<polygon fill="none" stroke="black" points="745.25,-23.75 745.25,-47.5 787.75,-47.5 787.75,-23.75 745.25,-23.75"/>
<text xml:space="preserve" text-anchor="start" x="760.88" y="-30.2" font-family="arial" font-size="14.00">...</text>
<polygon fill="none" stroke="black" points="745.25,0 745.25,-23.75 787.75,-23.75 787.75,0 745.25,0"/>
<text xml:space="preserve" text-anchor="start" x="759" y="-6.45" font-family="arial" font-size="14.00">26</text>
</g>
<!-- CN15_BI2A_WIRES&#45;&#45;CN15 -->
<g id="edge2" class="edge">
<title>CN15_BI2A_WIRES:e&#45;&#45;CN15:w</title>
<path fill="none" stroke="#000000" stroke-width="2" d="M601.25,-253.88C664.56,-254.02 680.43,-247.52 745.25,-247.38"/>
<path fill="none" stroke="#000000" stroke-width="2" d="M601.25,-255.88C665.32,-255.88 681.18,-249.38 745.25,-249.38"/>
<path fill="none" stroke="#000000" stroke-width="2" d="M601.25,-257.87C666.07,-257.73 681.94,-251.23 745.25,-251.37"/>
</g>
<!-- CN15_BI2A_WIRES&#45;&#45;CN15 -->
<g id="edge4" class="edge">
<title>CN15_BI2A_WIRES:e&#45;&#45;CN15:w</title>
<path fill="none" stroke="#000000" stroke-width="2" d="M601.25,-228.13C664.74,-228.2 680.68,-223.7 745.25,-223.63"/>
<path fill="none" stroke="#00ff00" stroke-width="2" d="M601.25,-230.13C665.28,-230.12 681.22,-225.62 745.25,-225.63"/>
<path fill="none" stroke="#000000" stroke-width="2" d="M601.25,-232.12C665.82,-232.05 681.76,-227.55 745.25,-227.62"/>
</g>
<!-- CN15_BI2A_WIRES&#45;&#45;CN15 -->
<g id="edge6" class="edge">
<title>CN15_BI2A_WIRES:e&#45;&#45;CN15:w</title>
<path fill="none" stroke="#000000" stroke-width="2" d="M601.25,-202.38C664.95,-202.4 680.93,-199.9 745.25,-199.88"/>
<path fill="none" stroke="#0066ff" stroke-width="2" d="M601.25,-204.37C665.26,-204.38 681.24,-201.88 745.25,-201.87"/>
<path fill="none" stroke="#000000" stroke-width="2" d="M601.25,-206.37C665.57,-206.35 681.55,-203.85 745.25,-203.87"/>
</g>
<!-- CN15_BI2A_WIRES&#45;&#45;CN15 -->
<g id="edge8" class="edge">
<title>CN15_BI2A_WIRES:e&#45;&#45;CN15:w</title>
<path fill="none" stroke="#000000" stroke-width="2" d="M601.25,-176.63C665.19,-176.63 681.19,-176.13 745.25,-176.13"/>
<path fill="none" stroke="#8000ff" stroke-width="2" d="M601.25,-178.62C665.25,-178.62 681.25,-178.12 745.25,-178.12"/>
<path fill="none" stroke="#000000" stroke-width="2" d="M601.25,-180.62C665.31,-180.62 681.31,-180.12 745.25,-180.12"/>
</g>
<!-- CN15_BI2A_WIRES&#45;&#45;CN15 -->
<g id="edge10" class="edge">
<title>CN15_BI2A_WIRES:e&#45;&#45;CN15:w</title>
<path fill="none" stroke="#000000" stroke-width="2" d="M601.25,-150.88C665.44,-150.88 681.43,-152.38 745.25,-152.38"/>
<path fill="none" stroke="#999999" stroke-width="2" d="M601.25,-152.88C665.25,-152.88 681.25,-154.38 745.25,-154.38"/>
<path fill="none" stroke="#000000" stroke-width="2" d="M601.25,-154.87C665.07,-154.87 681.06,-156.37 745.25,-156.37"/>
</g>
<!-- CN15_BI2A_WIRES&#45;&#45;CN15 -->
<g id="edge12" class="edge">
<title>CN15_BI2A_WIRES:e&#45;&#45;CN15:w</title>
<path fill="none" stroke="#000000" stroke-width="2" d="M601.25,-125.13C665.7,-125.17 681.66,-128.67 745.25,-128.63"/>
<path fill="none" stroke="#ffffff" stroke-width="2" d="M601.25,-127.12C665.27,-127.12 681.23,-130.62 745.25,-130.62"/>
<path fill="none" stroke="#000000" stroke-width="2" d="M601.25,-129.12C664.84,-129.08 680.8,-132.58 745.25,-132.62"/>
</g>
<!-- CN15_BI2A_WIRES&#45;&#45;CN15 -->
<g id="edge14" class="edge">
<title>CN15_BI2A_WIRES:e&#45;&#45;CN15:w</title>
<path fill="none" stroke="#000000" stroke-width="2" d="M601.25,-99.38C665.95,-99.48 681.86,-104.98 745.25,-104.88"/>
<path fill="none" stroke="#ff66cc" stroke-width="2" d="M601.25,-101.38C665.3,-101.38 681.2,-106.88 745.25,-106.88"/>
<path fill="none" stroke="#000000" stroke-width="2" d="M601.25,-103.37C664.64,-103.27 680.55,-108.77 745.25,-108.87"/>
</g>
<!-- CN15_BI2A_WIRES&#45;&#45;CN15 -->
<g id="edge16" class="edge">
<title>CN15_BI2A_WIRES:e&#45;&#45;CN15:w</title>
<path fill="none" stroke="#000000" stroke-width="2" d="M601.25,-73.63C666.19,-73.82 682.02,-81.32 745.25,-81.13"/>
<path fill="none" stroke="#00ff00" stroke-width="2" d="M601.25,-75.62C665.34,-75.62 681.16,-83.12 745.25,-83.12"/>
<path fill="none" stroke="#000000" stroke-width="2" d="M601.25,-77.62C664.48,-77.43 680.31,-84.93 745.25,-85.12"/>
</g>
</g>
</svg>
