<?xml version="1.0" encoding="UTF-8" standalone="no"?>
<!DOCTYPE svg PUBLIC "-//W3C//DTD SVG 1.1//EN"
 "http://www.w3.org/Graphics/SVG/1.1/DTD/svg11.dtd">
<!-- Generated by graphviz version 14.0.2 (20251019.1705)
 -->
<!-- Pages: 1 -->
<svg width="1039pt" height="645pt"
 viewBox="0.00 0.00 1039.00 645.00" xmlns="http://www.w3.org/2000/svg" xmlns:xlink="http://www.w3.org/1999/xlink">
<g id="graph0" class="graph" transform="scale(1 1) rotate(0) translate(4 641.25)">
<polygon fill="#ffffff" stroke="none" points="-4,4 -4,-641.25 1034.5,-641.25 1034.5,4 -4,4"/>
<!-- CN15_EXT -->
<g id="node1" class="node">
<title>CN15_EXT</title>
<polygon fill="#ffffff" stroke="black" points="213.5,-601.12 0,-601.12 0,-292.38 213.5,-292.38 213.5,-601.12"/>
<polygon fill="none" stroke="black" points="0,-577.38 0,-601.12 213.5,-601.12 213.5,-577.38 0,-577.38"/>
<text xml:space="preserve" text-anchor="start" x="72.62" y="-583.83" font-family="arial" font-size="14.00">CN15_EXT</text>
<polygon fill="none" stroke="black" points="0,-553.62 0,-577.38 121.38,-577.38 121.38,-553.62 0,-553.62"/>
<text xml:space="preserve" text-anchor="start" x="31.06" y="-560.08" font-family="arial" font-size="14.00">XMR&#45;08V</text>
<polygon fill="none" stroke="black" points="121.38,-553.62 121.38,-577.38 213.5,-577.38 213.5,-553.62 121.38,-553.62"/>
<text xml:space="preserve" text-anchor="start" x="152.44" y="-560.08" font-family="arial" font-size="14.00">8&#45;pin</text>
<polygon fill="none" stroke="black" points="0,-529.88 0,-553.62 132.62,-553.62 132.62,-529.88 0,-529.88"/>
<text xml:space="preserve" text-anchor="start" x="50.94" y="-536.33" font-family="arial" font-size="14.00">GND</text>
<polygon fill="none" stroke="black" points="132.62,-529.88 132.62,-553.62 213.5,-553.62 213.5,-529.88 132.62,-529.88"/>
<text xml:space="preserve" text-anchor="start" x="169.31" y="-536.33" font-family="arial" font-size="14.00">1</text>
<polygon fill="none" stroke="black" points="0,-506.12 0,-529.88 132.62,-529.88 132.62,-506.12 0,-506.12"/>
<text xml:space="preserve" text-anchor="start" x="36.69" y="-512.58" font-family="arial" font-size="14.00">SW2 (1P)</text>
<polygon fill="none" stroke="black" points="132.62,-506.12 132.62,-529.88 213.5,-529.88 213.5,-506.12 132.62,-506.12"/>
<text xml:space="preserve" text-anchor="start" x="169.31" y="-512.58" font-family="arial" font-size="14.00">2</text>
<polygon fill="none" stroke="black" points="0,-482.38 0,-506.12 132.62,-506.12 132.62,-482.38 0,-482.38"/>
<text xml:space="preserve" text-anchor="start" x="36.69" y="-488.82" font-family="arial" font-size="14.00">SW3 (1P)</text>
<polygon fill="none" stroke="black" points="132.62,-482.38 132.62,-506.12 213.5,-506.12 213.5,-482.38 132.62,-482.38"/>
<text xml:space="preserve" text-anchor="start" x="169.31" y="-488.82" font-family="arial" font-size="14.00">3</text>
<polygon fill="none" stroke="black" points="0,-458.62 0,-482.38 132.62,-482.38 132.62,-458.62 0,-458.62"/>
<text xml:space="preserve" text-anchor="start" x="36.69" y="-465.07" font-family="arial" font-size="14.00">SW4 (1P)</text>
<polygon fill="none" stroke="black" points="132.62,-458.62 132.62,-482.38 213.5,-482.38 213.5,-458.62 132.62,-458.62"/>
<text xml:space="preserve" text-anchor="start" x="169.31" y="-465.07" font-family="arial" font-size="14.00">4</text>
<polygon fill="none" stroke="black" points="0,-434.88 0,-458.62 132.62,-458.62 132.62,-434.88 0,-434.88"/>
<text xml:space="preserve" text-anchor="start" x="36.69" y="-441.32" font-family="arial" font-size="14.00">SW5 (1P)</text>
<polygon fill="none" stroke="black" points="132.62,-434.88 132.62,-458.62 213.5,-458.62 213.5,-434.88 132.62,-434.88"/>
<text xml:space="preserve" text-anchor="start" x="169.31" y="-441.32" font-family="arial" font-size="14.00">5</text>
<polygon fill="none" stroke="black" points="0,-411.12 0,-434.88 132.62,-434.88 132.62,-411.12 0,-411.12"/>
<text xml:space="preserve" text-anchor="start" x="36.69" y="-417.57" font-family="arial" font-size="14.00">SW6 (1P)</text>
<polygon fill="none" stroke="black" points="132.62,-411.12 132.62,-434.88 213.5,-434.88 213.5,-411.12 132.62,-411.12"/>
<text xml:space="preserve" text-anchor="start" x="169.31" y="-417.57" font-family="arial" font-size="14.00">6</text>
<polygon fill="none" stroke="black" points="0,-387.38 0,-411.12 132.62,-411.12 132.62,-387.38 0,-387.38"/>
<text xml:space="preserve" text-anchor="start" x="36.69" y="-393.82" font-family="arial" font-size="14.00">SW7 (1P)</text>
<polygon fill="none" stroke="black" points="132.62,-387.38 132.62,-411.12 213.5,-411.12 213.5,-387.38 132.62,-387.38"/>
<text xml:space="preserve" text-anchor="start" x="169.31" y="-393.82" font-family="arial" font-size="14.00">7</text>
<polygon fill="none" stroke="black" points="0,-363.62 0,-387.38 132.62,-387.38 132.62,-363.62 0,-363.62"/>
<text xml:space="preserve" text-anchor="start" x="52.06" y="-370.07" font-family="arial" font-size="14.00">IN16</text>
<polygon fill="none" stroke="black" points="132.62,-363.62 132.62,-387.38 213.5,-387.38 213.5,-363.62 132.62,-363.62"/>
<text xml:space="preserve" text-anchor="start" x="169.31" y="-370.07" font-family="arial" font-size="14.00">8</text>
<polygon fill="none" stroke="black" points="0,-339.88 0,-363.62 213.5,-363.62 213.5,-339.88 0,-339.88"/>
<text xml:space="preserve" text-anchor="start" x="38.12" y="-346.32" font-family="arial" font-size="14.00">Additional components</text>
<polygon fill="none" stroke="black" points="0,-316.12 0,-339.88 213.5,-339.88 213.5,-316.12 0,-316.12"/>
<text xml:space="preserve" text-anchor="start" x="4" y="-322.57" font-family="arial" font-size="14.00">8 x #4 (SXM&#45;001T&#45;P0.6 terminals)</text>
<polygon fill="none" stroke="black" points="0,-292.38 0,-316.12 213.5,-316.12 213.5,-292.38 0,-292.38"/>
<text xml:space="preserve" text-anchor="start" x="19" y="-298.82" font-family="arial" font-size="14.00">Same as original CN15 cable</text>
</g>
<!-- CN15_WIRES -->
<g id="node3" class="node">
<title>CN15_WIRES</title>
<polygon fill="#ffffff" stroke="black" points="688.5,-637.25 358.5,-637.25 358.5,-344.25 688.5,-344.25 688.5,-637.25"/>
<polygon fill="none" stroke="black" points="358.5,-613.5 358.5,-637.25 688.5,-637.25 688.5,-613.5 358.5,-613.5"/>
<text xml:space="preserve" text-anchor="start" x="480" y="-619.95" font-family="arial" font-size="14.00">CN15_WIRES</text>
<polygon fill="none" stroke="black" points="358.5,-589.75 358.5,-613.5 504.75,-613.5 504.75,-589.75 358.5,-589.75"/>
<text xml:space="preserve" text-anchor="start" x="424.5" y="-596.2" font-family="arial" font-size="14.00">8x</text>
<polygon fill="none" stroke="black" points="504.75,-589.75 504.75,-613.5 688.5,-613.5 688.5,-589.75 504.75,-589.75"/>
<text xml:space="preserve" text-anchor="start" x="570.75" y="-596.2" font-family="arial" font-size="14.00">26 AWG</text>
<text xml:space="preserve" text-anchor="start" x="429.12" y="-574.45" font-family="arial" font-size="14.00"> </text>
<text xml:space="preserve" text-anchor="start" x="374.75" y="-554.7" font-family="arial" font-size="14.00">CN15_EXT:1:GND</text>
<text xml:space="preserve" text-anchor="start" x="508.12" y="-554.7" font-family="arial" font-size="14.00"> &#160;&#160;&#160;&#160;1:BK &#160;&#160;&#160;</text>
<text xml:space="preserve" text-anchor="start" x="592" y="-554.7" font-family="arial" font-size="14.00">CN15:1:GND</text>
<polygon fill="#000000" stroke="none" points="358.5,-548.25 358.5,-550.25 688.5,-550.25 688.5,-548.25 358.5,-548.25"/>
<polygon fill="#000000" stroke="none" points="358.5,-546.25 358.5,-548.25 688.5,-548.25 688.5,-546.25 358.5,-546.25"/>
<polygon fill="#000000" stroke="none" points="358.5,-544.25 358.5,-546.25 688.5,-546.25 688.5,-544.25 358.5,-544.25"/>
<text xml:space="preserve" text-anchor="start" x="360.5" y="-528.95" font-family="arial" font-size="14.00">CN15_EXT:2:SW2 (1P)</text>
<text xml:space="preserve" text-anchor="start" x="506.62" y="-528.95" font-family="arial" font-size="14.00"> &#160;&#160;&#160;&#160;2:GN &#160;&#160;&#160;</text>
<text xml:space="preserve" text-anchor="start" x="577.75" y="-528.95" font-family="arial" font-size="14.00">CN15:2:SW2 (1P)</text>
<polygon fill="#000000" stroke="none" points="358.5,-522.5 358.5,-524.5 688.5,-524.5 688.5,-522.5 358.5,-522.5"/>
<polygon fill="#00ff00" stroke="none" points="358.5,-520.5 358.5,-522.5 688.5,-522.5 688.5,-520.5 358.5,-520.5"/>
<polygon fill="#000000" stroke="none" points="358.5,-518.5 358.5,-520.5 688.5,-520.5 688.5,-518.5 358.5,-518.5"/>
<text xml:space="preserve" text-anchor="start" x="360.5" y="-503.2" font-family="arial" font-size="14.00">CN15_EXT:3:SW3 (1P)</text>
<text xml:space="preserve" text-anchor="start" x="507.75" y="-503.2" font-family="arial" font-size="14.00"> &#160;&#160;&#160;&#160;3:BU &#160;&#160;&#160;</text>
<text xml:space="preserve" text-anchor="start" x="577.75" y="-503.2" font-family="arial" font-size="14.00">CN15:3:SW3 (1P)</text>
<polygon fill="#000000" stroke="none" points="358.5,-496.75 358.5,-498.75 688.5,-498.75 688.5,-496.75 358.5,-496.75"/>
<polygon fill="#0066ff" stroke="none" points="358.5,-494.75 358.5,-496.75 688.5,-496.75 688.5,-494.75 358.5,-494.75"/>
<polygon fill="#000000" stroke="none" points="358.5,-492.75 358.5,-494.75 688.5,-494.75 688.5,-492.75 358.5,-492.75"/>
<text xml:space="preserve" text-anchor="start" x="360.5" y="-477.45" font-family="arial" font-size="14.00">CN15_EXT:4:SW4 (1P)</text>
<text xml:space="preserve" text-anchor="start" x="508.5" y="-477.45" font-family="arial" font-size="14.00"> &#160;&#160;&#160;&#160;4:VT &#160;&#160;&#160;</text>
<text xml:space="preserve" text-anchor="start" x="577.75" y="-477.45" font-family="arial" font-size="14.00">CN15:4:SW4 (1P)</text>
<polygon fill="#000000" stroke="none" points="358.5,-471 358.5,-473 688.5,-473 688.5,-471 358.5,-471"/>
<polygon fill="#8000ff" stroke="none" points="358.5,-469 358.5,-471 688.5,-471 688.5,-469 358.5,-469"/>
<polygon fill="#000000" stroke="none" points="358.5,-467 358.5,-469 688.5,-469 688.5,-467 358.5,-467"/>
<text xml:space="preserve" text-anchor="start" x="360.5" y="-451.7" font-family="arial" font-size="14.00">CN15_EXT:5:SW5 (1P)</text>
<text xml:space="preserve" text-anchor="start" x="507" y="-451.7" font-family="arial" font-size="14.00"> &#160;&#160;&#160;&#160;5:GY &#160;&#160;&#160;</text>
<text xml:space="preserve" text-anchor="start" x="577.75" y="-451.7" font-family="arial" font-size="14.00">CN15:5:SW5 (1P)</text>
<polygon fill="#000000" stroke="none" points="358.5,-445.25 358.5,-447.25 688.5,-447.25 688.5,-445.25 358.5,-445.25"/>
<polygon fill="#999999" stroke="none" points="358.5,-443.25 358.5,-445.25 688.5,-445.25 688.5,-443.25 358.5,-443.25"/>
<polygon fill="#000000" stroke="none" points="358.5,-441.25 358.5,-443.25 688.5,-443.25 688.5,-441.25 358.5,-441.25"/>
<text xml:space="preserve" text-anchor="start" x="360.5" y="-425.95" font-family="arial" font-size="14.00">CN15_EXT:6:SW6 (1P)</text>
<text xml:space="preserve" text-anchor="start" x="505.5" y="-425.95" font-family="arial" font-size="14.00"> &#160;&#160;&#160;&#160;6:WH &#160;&#160;&#160;</text>
<text xml:space="preserve" text-anchor="start" x="577.75" y="-425.95" font-family="arial" font-size="14.00">CN15:6:SW6 (1P)</text>
<polygon fill="#000000" stroke="none" points="358.5,-419.5 358.5,-421.5 688.5,-421.5 688.5,-419.5 358.5,-419.5"/>
<polygon fill="#ffffff" stroke="none" points="358.5,-417.5 358.5,-419.5 688.5,-419.5 688.5,-417.5 358.5,-417.5"/>
<polygon fill="#000000" stroke="none" points="358.5,-415.5 358.5,-417.5 688.5,-417.5 688.5,-415.5 358.5,-415.5"/>
<text xml:space="preserve" text-anchor="start" x="360.5" y="-400.2" font-family="arial" font-size="14.00">CN15_EXT:7:SW7 (1P)</text>
<text xml:space="preserve" text-anchor="start" x="508.12" y="-400.2" font-family="arial" font-size="14.00"> &#160;&#160;&#160;&#160;7:PK &#160;&#160;&#160;</text>
<text xml:space="preserve" text-anchor="start" x="577.75" y="-400.2" font-family="arial" font-size="14.00">CN15:7:SW7 (1P)</text>
<polygon fill="#000000" stroke="none" points="358.5,-393.75 358.5,-395.75 688.5,-395.75 688.5,-393.75 358.5,-393.75"/>
<polygon fill="#ff66cc" stroke="none" points="358.5,-391.75 358.5,-393.75 688.5,-393.75 688.5,-391.75 358.5,-391.75"/>
<polygon fill="#000000" stroke="none" points="358.5,-389.75 358.5,-391.75 688.5,-391.75 688.5,-389.75 358.5,-389.75"/>
<text xml:space="preserve" text-anchor="start" x="375.88" y="-374.45" font-family="arial" font-size="14.00">CN15_EXT:8:IN16</text>
<text xml:space="preserve" text-anchor="start" x="506.62" y="-374.45" font-family="arial" font-size="14.00"> &#160;&#160;&#160;&#160;8:GN &#160;&#160;&#160;</text>
<text xml:space="preserve" text-anchor="start" x="593.12" y="-374.45" font-family="arial" font-size="14.00">CN15:8:IN16</text>
<polygon fill="#000000" stroke="none" points="358.5,-368 358.5,-370 688.5,-370 688.5,-368 358.5,-368"/>
<polygon fill="#00ff00" stroke="none" points="358.5,-366 358.5,-368 688.5,-368 688.5,-366 358.5,-366"/>
<polygon fill="#000000" stroke="none" points="358.5,-364 358.5,-366 688.5,-366 688.5,-364 358.5,-364"/>
<text xml:space="preserve" text-anchor="start" x="429.12" y="-348.7" font-family="arial" font-size="14.00"> </text>
</g>
<!-- CN15_EXT&#45;&#45;CN15_WIRES -->
<g id="edge5" class="edge">
<title>CN15_EXT:e&#45;&#45;CN15_WIRES:w</title>
<path fill="none" stroke="#000000" stroke-width="2" d="M213.5,-539.75C246.96,-540.2 254.61,-546.42 285.61,-547.75 316.98,-549.78 325.1,-545.48 358.5,-545.25"/>
<path fill="none" stroke="#000000" stroke-width="2" d="M213.5,-541.75C245.7,-541.75 253.35,-547.97 285.5,-549.75 317.91,-551.55 326.04,-547.25 358.5,-547.25"/>
<path fill="none" stroke="#000000" stroke-width="2" d="M213.5,-543.75C244.44,-543.3 252.09,-549.52 285.39,-551.75 318.85,-553.31 326.97,-549.02 358.5,-549.25"/>
</g>
<!-- CN15_EXT&#45;&#45;CN15_WIRES -->
<g id="edge7" class="edge">
<title>CN15_EXT:e&#45;&#45;CN15_WIRES:w</title>
<path fill="none" stroke="#000000" stroke-width="2" d="M213.5,-516C278.39,-516.05 294.46,-519.55 358.5,-519.5"/>
<path fill="none" stroke="#00ff00" stroke-width="2" d="M213.5,-518C277.96,-518 294.04,-521.5 358.5,-521.5"/>
<path fill="none" stroke="#000000" stroke-width="2" d="M213.5,-520C277.54,-519.95 293.61,-523.45 358.5,-523.5"/>
</g>
<!-- CN15_EXT&#45;&#45;CN15_WIRES -->
<g id="edge9" class="edge">
<title>CN15_EXT:e&#45;&#45;CN15_WIRES:w</title>
<path fill="none" stroke="#000000" stroke-width="2" d="M213.5,-492.25C278.13,-492.26 294.24,-493.76 358.5,-493.75"/>
<path fill="none" stroke="#0066ff" stroke-width="2" d="M213.5,-494.25C277.95,-494.25 294.05,-495.75 358.5,-495.75"/>
<path fill="none" stroke="#000000" stroke-width="2" d="M213.5,-496.25C277.76,-496.24 293.87,-497.74 358.5,-497.75"/>
</g>
<!-- CN15_EXT&#45;&#45;CN15_WIRES -->
<g id="edge11" class="edge">
<title>CN15_EXT:e&#45;&#45;CN15_WIRES:w</title>
<path fill="none" stroke="#000000" stroke-width="2" d="M213.5,-468.5C277.88,-468.5 293.99,-468 358.5,-468"/>
<path fill="none" stroke="#8000ff" stroke-width="2" d="M213.5,-470.5C277.94,-470.5 294.06,-470 358.5,-470"/>
<path fill="none" stroke="#000000" stroke-width="2" d="M213.5,-472.5C278.01,-472.5 294.12,-472 358.5,-472"/>
</g>
<!-- CN15_EXT&#45;&#45;CN15_WIRES -->
<g id="edge13" class="edge">
<title>CN15_EXT:e&#45;&#45;CN15_WIRES:w</title>
<path fill="none" stroke="#000000" stroke-width="2" d="M213.5,-444.75C277.65,-444.77 293.74,-442.27 358.5,-442.25"/>
<path fill="none" stroke="#999999" stroke-width="2" d="M213.5,-446.75C277.95,-446.75 294.05,-444.25 358.5,-444.25"/>
<path fill="none" stroke="#000000" stroke-width="2" d="M213.5,-448.75C278.26,-448.73 294.35,-446.23 358.5,-446.25"/>
</g>
<!-- CN15_EXT&#45;&#45;CN15_WIRES -->
<g id="edge15" class="edge">
<title>CN15_EXT:e&#45;&#45;CN15_WIRES:w</title>
<path fill="none" stroke="#000000" stroke-width="2" d="M213.5,-421C277.44,-421.07 293.48,-416.57 358.5,-416.5"/>
<path fill="none" stroke="#ffffff" stroke-width="2" d="M213.5,-423C277.98,-423 294.02,-418.5 358.5,-418.5"/>
<path fill="none" stroke="#000000" stroke-width="2" d="M213.5,-425C278.52,-424.93 294.56,-420.43 358.5,-420.5"/>
</g>
<!-- CN15_EXT&#45;&#45;CN15_WIRES -->
<g id="edge17" class="edge">
<title>CN15_EXT:e&#45;&#45;CN15_WIRES:w</title>
<path fill="none" stroke="#000000" stroke-width="2" d="M213.5,-397.25C277.26,-397.4 293.24,-390.9 358.5,-390.75"/>
<path fill="none" stroke="#ff66cc" stroke-width="2" d="M213.5,-399.25C278.01,-399.25 293.99,-392.75 358.5,-392.75"/>
<path fill="none" stroke="#000000" stroke-width="2" d="M213.5,-401.25C278.76,-401.1 294.74,-394.6 358.5,-394.75"/>
</g>
<!-- CN15_EXT&#45;&#45;CN15_WIRES -->
<g id="edge19" class="edge">
<title>CN15_EXT:e&#45;&#45;CN15_WIRES:w</title>
<path fill="none" stroke="#000000" stroke-width="2" d="M213.5,-373.5C277.11,-373.74 293,-365.24 358.5,-365"/>
<path fill="none" stroke="#00ff00" stroke-width="2" d="M213.5,-375.5C278.06,-375.5 293.94,-367 358.5,-367"/>
<path fill="none" stroke="#000000" stroke-width="2" d="M213.5,-377.5C279,-377.26 294.89,-368.76 358.5,-369"/>
</g>
<!-- CN15 -->
<g id="node2" class="node">
<title>CN15</title>
<polygon fill="#ffffff" stroke="black" points="1030.5,-601.5 833.5,-601.5 833.5,0 1030.5,0 1030.5,-601.5"/>
<polygon fill="none" stroke="black" points="833.5,-577.75 833.5,-601.5 1030.5,-601.5 1030.5,-577.75 833.5,-577.75"/>
<text xml:space="preserve" text-anchor="start" x="914.75" y="-584.2" font-family="arial" font-size="14.00">CN15</text>
<polygon fill="none" stroke="black" points="833.5,-554 833.5,-577.75 951.12,-577.75 951.12,-554 833.5,-554"/>
<text xml:space="preserve" text-anchor="start" x="854.44" y="-560.45" font-family="arial" font-size="14.00">PHDR&#45;26VS</text>
<polygon fill="none" stroke="black" points="951.12,-554 951.12,-577.75 1030.5,-577.75 1030.5,-554 951.12,-554"/>
<text xml:space="preserve" text-anchor="start" x="972.06" y="-560.45" font-family="arial" font-size="14.00">26&#45;pin</text>
<polygon fill="none" stroke="black" points="833.5,-530.25 833.5,-554 894.88,-554 894.88,-530.25 833.5,-530.25"/>
<text xml:space="preserve" text-anchor="start" x="860.44" y="-536.7" font-family="arial" font-size="14.00">1</text>
<polygon fill="none" stroke="black" points="894.88,-530.25 894.88,-554 1030.5,-554 1030.5,-530.25 894.88,-530.25"/>
<text xml:space="preserve" text-anchor="start" x="947.31" y="-536.7" font-family="arial" font-size="14.00">GND</text>
<polygon fill="none" stroke="black" points="833.5,-506.5 833.5,-530.25 894.88,-530.25 894.88,-506.5 833.5,-506.5"/>
<text xml:space="preserve" text-anchor="start" x="860.44" y="-512.95" font-family="arial" font-size="14.00">2</text>
<polygon fill="none" stroke="black" points="894.88,-506.5 894.88,-530.25 1030.5,-530.25 1030.5,-506.5 894.88,-506.5"/>
<text xml:space="preserve" text-anchor="start" x="933.06" y="-512.95" font-family="arial" font-size="14.00">SW2 (1P)</text>
<polygon fill="none" stroke="black" points="833.5,-482.75 833.5,-506.5 894.88,-506.5 894.88,-482.75 833.5,-482.75"/>
<text xml:space="preserve" text-anchor="start" x="860.44" y="-489.2" font-family="arial" font-size="14.00">3</text>
<polygon fill="none" stroke="black" points="894.88,-482.75 894.88,-506.5 1030.5,-506.5 1030.5,-482.75 894.88,-482.75"/>
<text xml:space="preserve" text-anchor="start" x="933.06" y="-489.2" font-family="arial" font-size="14.00">SW3 (1P)</text>
<polygon fill="none" stroke="black" points="833.5,-459 833.5,-482.75 894.88,-482.75 894.88,-459 833.5,-459"/>
<text xml:space="preserve" text-anchor="start" x="860.44" y="-465.45" font-family="arial" font-size="14.00">4</text>
<polygon fill="none" stroke="black" points="894.88,-459 894.88,-482.75 1030.5,-482.75 1030.5,-459 894.88,-459"/>
<text xml:space="preserve" text-anchor="start" x="933.06" y="-465.45" font-family="arial" font-size="14.00">SW4 (1P)</text>
<polygon fill="none" stroke="black" points="833.5,-435.25 833.5,-459 894.88,-459 894.88,-435.25 833.5,-435.25"/>
<text xml:space="preserve" text-anchor="start" x="860.44" y="-441.7" font-family="arial" font-size="14.00">5</text>
<polygon fill="none" stroke="black" points="894.88,-435.25 894.88,-459 1030.5,-459 1030.5,-435.25 894.88,-435.25"/>
<text xml:space="preserve" text-anchor="start" x="933.06" y="-441.7" font-family="arial" font-size="14.00">SW5 (1P)</text>
<polygon fill="none" stroke="black" points="833.5,-411.5 833.5,-435.25 894.88,-435.25 894.88,-411.5 833.5,-411.5"/>
<text xml:space="preserve" text-anchor="start" x="860.44" y="-417.95" font-family="arial" font-size="14.00">6</text>
<polygon fill="none" stroke="black" points="894.88,-411.5 894.88,-435.25 1030.5,-435.25 1030.5,-411.5 894.88,-411.5"/>
<text xml:space="preserve" text-anchor="start" x="933.06" y="-417.95" font-family="arial" font-size="14.00">SW6 (1P)</text>
<polygon fill="none" stroke="black" points="833.5,-387.75 833.5,-411.5 894.88,-411.5 894.88,-387.75 833.5,-387.75"/>
<text xml:space="preserve" text-anchor="start" x="860.44" y="-394.2" font-family="arial" font-size="14.00">7</text>
<polygon fill="none" stroke="black" points="894.88,-387.75 894.88,-411.5 1030.5,-411.5 1030.5,-387.75 894.88,-387.75"/>
<text xml:space="preserve" text-anchor="start" x="933.06" y="-394.2" font-family="arial" font-size="14.00">SW7 (1P)</text>
<polygon fill="none" stroke="black" points="833.5,-364 833.5,-387.75 894.88,-387.75 894.88,-364 833.5,-364"/>
<text xml:space="preserve" text-anchor="start" x="860.44" y="-370.45" font-family="arial" font-size="14.00">8</text>
<polygon fill="none" stroke="black" points="894.88,-364 894.88,-387.75 1030.5,-387.75 1030.5,-364 894.88,-364"/>
<text xml:space="preserve" text-anchor="start" x="948.44" y="-370.45" font-family="arial" font-size="14.00">IN16</text>
<polygon fill="none" stroke="black" points="833.5,-340.25 833.5,-364 894.88,-364 894.88,-340.25 833.5,-340.25"/>
<text xml:space="preserve" text-anchor="start" x="860.44" y="-346.7" font-family="arial" font-size="14.00">9</text>
<polygon fill="none" stroke="black" points="833.5,-316.5 833.5,-340.25 894.88,-340.25 894.88,-316.5 833.5,-316.5"/>
<text xml:space="preserve" text-anchor="start" x="856.69" y="-322.95" font-family="arial" font-size="14.00">10</text>
<polygon fill="none" stroke="black" points="894.88,-316.5 894.88,-340.25 1030.5,-340.25 1030.5,-316.5 894.88,-316.5"/>
<text xml:space="preserve" text-anchor="start" x="914.31" y="-322.95" font-family="arial" font-size="14.00">HP DETECT 1P</text>
<polygon fill="none" stroke="black" points="833.5,-292.75 833.5,-316.5 894.88,-316.5 894.88,-292.75 833.5,-292.75"/>
<text xml:space="preserve" text-anchor="start" x="857.06" y="-299.2" font-family="arial" font-size="14.00">11</text>
<polygon fill="none" stroke="black" points="894.88,-292.75 894.88,-316.5 1030.5,-316.5 1030.5,-292.75 894.88,-292.75"/>
<text xml:space="preserve" text-anchor="start" x="914.31" y="-299.2" font-family="arial" font-size="14.00">HP DETECT 2P</text>
<polygon fill="none" stroke="black" points="833.5,-269 833.5,-292.75 894.88,-292.75 894.88,-269 833.5,-269"/>
<text xml:space="preserve" text-anchor="start" x="856.69" y="-275.45" font-family="arial" font-size="14.00">12</text>
<polygon fill="none" stroke="black" points="894.88,-269 894.88,-292.75 1030.5,-292.75 1030.5,-269 894.88,-269"/>
<text xml:space="preserve" text-anchor="start" x="909.44" y="-275.45" font-family="arial" font-size="14.00">REC DETECT 1P</text>
<polygon fill="none" stroke="black" points="833.5,-245.25 833.5,-269 894.88,-269 894.88,-245.25 833.5,-245.25"/>
<text xml:space="preserve" text-anchor="start" x="856.69" y="-251.7" font-family="arial" font-size="14.00">13</text>
<polygon fill="none" stroke="black" points="894.88,-245.25 894.88,-269 1030.5,-269 1030.5,-245.25 894.88,-245.25"/>
<text xml:space="preserve" text-anchor="start" x="909.44" y="-251.7" font-family="arial" font-size="14.00">REC DETECT 2P</text>
<polygon fill="none" stroke="black" points="833.5,-221.5 833.5,-245.25 894.88,-245.25 894.88,-221.5 833.5,-221.5"/>
<text xml:space="preserve" text-anchor="start" x="856.69" y="-227.95" font-family="arial" font-size="14.00">14</text>
<polygon fill="none" stroke="black" points="833.5,-197.75 833.5,-221.5 894.88,-221.5 894.88,-197.75 833.5,-197.75"/>
<text xml:space="preserve" text-anchor="start" x="858.56" y="-204.2" font-family="arial" font-size="14.00">...</text>
<polygon fill="none" stroke="black" points="833.5,-174 833.5,-197.75 894.88,-197.75 894.88,-174 833.5,-174"/>
<text xml:space="preserve" text-anchor="start" x="856.69" y="-180.45" font-family="arial" font-size="14.00">21</text>
<polygon fill="none" stroke="black" points="833.5,-150.25 833.5,-174 894.88,-174 894.88,-150.25 833.5,-150.25"/>
<text xml:space="preserve" text-anchor="start" x="856.69" y="-156.7" font-family="arial" font-size="14.00">22</text>
<polygon fill="none" stroke="black" points="833.5,-126.5 833.5,-150.25 894.88,-150.25 894.88,-126.5 833.5,-126.5"/>
<text xml:space="preserve" text-anchor="start" x="856.69" y="-132.95" font-family="arial" font-size="14.00">....</text>
<polygon fill="none" stroke="black" points="833.5,-102.75 833.5,-126.5 894.88,-126.5 894.88,-102.75 833.5,-102.75"/>
<text xml:space="preserve" text-anchor="start" x="856.69" y="-109.2" font-family="arial" font-size="14.00">26</text>
<polygon fill="none" stroke="black" points="833.5,-79 833.5,-102.75 894.88,-102.75 894.88,-79 833.5,-79"/>
<text xml:space="preserve" text-anchor="start" x="848.06" y="-85.45" font-family="arial" font-size="14.00">None</text>
<polygon fill="none" stroke="black" points="833.5,-55.25 833.5,-79 894.88,-79 894.88,-55.25 833.5,-55.25"/>
<text xml:space="preserve" text-anchor="start" x="848.06" y="-61.7" font-family="arial" font-size="14.00">None</text>
<polygon fill="none" stroke="black" points="894.88,-55.25 894.88,-79 1030.5,-79 1030.5,-55.25 894.88,-55.25"/>
<text xml:space="preserve" text-anchor="start" x="947.31" y="-61.7" font-family="arial" font-size="14.00">GND</text>
<polygon fill="none" stroke="black" points="833.5,0 833.5,-55.25 1030.5,-55.25 1030.5,0 833.5,0"/>
<text xml:space="preserve" text-anchor="start" x="837.5" y="-37.95" font-family="arial" font-size="14.00">HP pins are shorted to GND </text>
<text xml:space="preserve" text-anchor="start" x="837.5" y="-22.2" font-family="arial" font-size="14.00">in order to activate headphones</text>
<text xml:space="preserve" text-anchor="start" x="837.5" y="-6.45" font-family="arial" font-size="14.00">REC pins are not used</text>
</g>
<!-- CN15&#45;&#45;CN15 -->
<g id="edge1" class="edge">
<title>CN15:w&#45;&#45;CN15:w</title>
<path fill="none" stroke="#000000" stroke-width="2" d="M834.28,-330.22C805,-342.38 748,-342.38 746,-197.75 748,-53.12 805,-53.12 834.28,-65.28"/>
<path fill="none" stroke="#ffffff" stroke-width="2" d="M833.5,-328.38C805,-340.38 748,-340.38 748,-197.75 748,-55.12 805,-55.12 833.5,-67.12"/>
<path fill="none" stroke="#000000" stroke-width="2" d="M832.72,-326.53C805,-338.38 748,-338.38 750,-197.75 748,-57.12 805,-57.12 832.72,-68.97"/>
<text xml:space="preserve" text-anchor="middle" x="746.12" y="-295.32" font-family="arial" font-size="14.00"> </text>
</g>
<!-- CN15&#45;&#45;CN15 -->
<g id="edge2" class="edge">
<title>CN15:w&#45;&#45;CN15:w</title>
<path fill="none" stroke="#000000" stroke-width="2" d="M834.28,-306.47C805,-318.62 748,-318.62 746,-185.88 748,-53.12 805,-53.12 834.28,-65.28"/>
<path fill="none" stroke="#ffffff" stroke-width="2" d="M833.5,-304.62C805,-316.62 748,-316.62 748,-185.88 748,-55.12 805,-55.12 833.5,-67.12"/>
<path fill="none" stroke="#000000" stroke-width="2" d="M832.72,-302.78C805,-314.62 748,-314.62 750,-185.88 748,-57.12 805,-57.12 832.72,-68.97"/>
<text xml:space="preserve" text-anchor="middle" x="746.12" y="-295.32" font-family="arial" font-size="14.00"> </text>
</g>
<!-- CN15&#45;&#45;CN15 -->
<g id="edge3" class="edge">
<title>CN15:w&#45;&#45;CN15:w</title>
<path fill="none" stroke="#000000" stroke-width="2" d="M834.28,-282.72C805,-294.88 748,-294.88 746,-174 748,-53.12 805,-53.12 834.28,-65.28"/>
<path fill="none" stroke="#ffffff" stroke-width="2" d="M833.5,-280.88C805,-292.88 748,-292.88 748,-174 748,-55.12 805,-55.12 833.5,-67.12"/>
<path fill="none" stroke="#000000" stroke-width="2" d="M832.72,-279.03C805,-290.88 748,-290.88 750,-174 748,-57.12 805,-57.12 832.72,-68.97"/>
<text xml:space="preserve" text-anchor="middle" x="746.12" y="-295.32" font-family="arial" font-size="14.00"> </text>
</g>
<!-- CN15&#45;&#45;CN15 -->
<g id="edge4" class="edge">
<title>CN15:w&#45;&#45;CN15:w</title>
<path fill="none" stroke="#000000" stroke-width="2" d="M834.28,-258.97C805,-271.12 748,-271.12 746,-162.12 748,-53.12 805,-53.12 834.28,-65.28"/>
<path fill="none" stroke="#ffffff" stroke-width="2" d="M833.5,-257.12C805,-269.12 748,-269.12 748,-162.12 748,-55.12 805,-55.12 833.5,-67.12"/>
<path fill="none" stroke="#000000" stroke-width="2" d="M832.72,-255.28C805,-267.12 748,-267.12 750,-162.12 748,-57.12 805,-57.12 832.72,-68.97"/>
<text xml:space="preserve" text-anchor="middle" x="746.12" y="-295.32" font-family="arial" font-size="14.00"> </text>
</g>
<!-- CN15_WIRES&#45;&#45;CN15 -->
<g id="edge6" class="edge">
<title>CN15_WIRES:e&#45;&#45;CN15:w</title>
<path fill="none" stroke="#000000" stroke-width="2" d="M688.5,-545.25C721.88,-545.47 730,-549.69 761.39,-547.75 792.41,-546.47 800.1,-540.54 833.5,-540.13"/>
<path fill="none" stroke="#000000" stroke-width="2" d="M688.5,-547.25C720.96,-547.25 729.08,-551.46 761.5,-549.75 793.63,-548.05 801.32,-542.12 833.5,-542.13"/>
<path fill="none" stroke="#000000" stroke-width="2" d="M688.5,-549.25C720.04,-549.03 728.16,-553.24 761.61,-551.75 794.86,-549.64 802.54,-543.71 833.5,-544.12"/>
</g>
<!-- CN15_WIRES&#45;&#45;CN15 -->
<g id="edge8" class="edge">
<title>CN15_WIRES:e&#45;&#45;CN15:w</title>
<path fill="none" stroke="#000000" stroke-width="2" d="M688.5,-519.5C752.58,-519.54 768.66,-516.41 833.5,-516.38"/>
<path fill="none" stroke="#00ff00" stroke-width="2" d="M688.5,-521.5C752.96,-521.5 769.04,-518.38 833.5,-518.38"/>
<path fill="none" stroke="#000000" stroke-width="2" d="M688.5,-523.5C753.34,-523.46 769.42,-520.34 833.5,-520.37"/>
</g>
<!-- CN15_WIRES&#45;&#45;CN15 -->
<g id="edge10" class="edge">
<title>CN15_WIRES:e&#45;&#45;CN15:w</title>
<path fill="none" stroke="#000000" stroke-width="2" d="M688.5,-493.75C752.81,-493.75 768.91,-492.63 833.5,-492.63"/>
<path fill="none" stroke="#0066ff" stroke-width="2" d="M688.5,-495.75C752.95,-495.75 769.05,-494.62 833.5,-494.62"/>
<path fill="none" stroke="#000000" stroke-width="2" d="M688.5,-497.75C753.09,-497.75 769.19,-496.62 833.5,-496.62"/>
</g>
<!-- CN15_WIRES&#45;&#45;CN15 -->
<g id="edge12" class="edge">
<title>CN15_WIRES:e&#45;&#45;CN15:w</title>
<path fill="none" stroke="#000000" stroke-width="2" d="M688.5,-468C753.05,-468 769.16,-468.88 833.5,-468.88"/>
<path fill="none" stroke="#8000ff" stroke-width="2" d="M688.5,-470C752.95,-470 769.05,-470.88 833.5,-470.87"/>
<path fill="none" stroke="#000000" stroke-width="2" d="M688.5,-472C752.84,-472 768.95,-472.87 833.5,-472.87"/>
</g>
<!-- CN15_WIRES&#45;&#45;CN15 -->
<g id="edge14" class="edge">
<title>CN15_WIRES:e&#45;&#45;CN15:w</title>
<path fill="none" stroke="#000000" stroke-width="2" d="M688.5,-442.25C753.31,-442.28 769.39,-445.16 833.5,-445.13"/>
<path fill="none" stroke="#999999" stroke-width="2" d="M688.5,-444.25C752.96,-444.25 769.04,-447.13 833.5,-447.12"/>
<path fill="none" stroke="#000000" stroke-width="2" d="M688.5,-446.25C752.61,-446.22 768.69,-449.09 833.5,-449.12"/>
</g>
<!-- CN15_WIRES&#45;&#45;CN15 -->
<g id="edge16" class="edge">
<title>CN15_WIRES:e&#45;&#45;CN15:w</title>
<path fill="none" stroke="#000000" stroke-width="2" d="M688.5,-416.5C753.56,-416.59 769.6,-421.46 833.5,-421.38"/>
<path fill="none" stroke="#ffffff" stroke-width="2" d="M688.5,-418.5C752.98,-418.5 769.02,-423.38 833.5,-423.38"/>
<path fill="none" stroke="#000000" stroke-width="2" d="M688.5,-420.5C752.4,-420.41 768.44,-425.29 833.5,-425.37"/>
</g>
<!-- CN15_WIRES&#45;&#45;CN15 -->
<g id="edge18" class="edge">
<title>CN15_WIRES:e&#45;&#45;CN15:w</title>
<path fill="none" stroke="#000000" stroke-width="2" d="M688.5,-390.75C753.81,-390.91 769.77,-397.79 833.5,-397.63"/>
<path fill="none" stroke="#ff66cc" stroke-width="2" d="M688.5,-392.75C753.02,-392.75 768.98,-399.62 833.5,-399.62"/>
<path fill="none" stroke="#000000" stroke-width="2" d="M688.5,-394.75C752.23,-394.59 768.19,-401.46 833.5,-401.62"/>
</g>
<!-- CN15_WIRES&#45;&#45;CN15 -->
<g id="edge20" class="edge">
<title>CN15_WIRES:e&#45;&#45;CN15:w</title>
<path fill="none" stroke="#000000" stroke-width="2" d="M688.5,-365C754.04,-365.25 769.91,-374.13 833.5,-373.88"/>
<path fill="none" stroke="#00ff00" stroke-width="2" d="M688.5,-367C753.07,-367 768.93,-375.87 833.5,-375.88"/>
<path fill="none" stroke="#000000" stroke-width="2" d="M688.5,-369C752.09,-368.75 767.96,-377.62 833.5,-377.87"/>
</g>
</g>
</svg>
