<?xml version="1.0" encoding="UTF-8" standalone="no"?>
<!DOCTYPE svg PUBLIC "-//W3C//DTD SVG 1.1//EN"
 "http://www.w3.org/Graphics/SVG/1.1/DTD/svg11.dtd">
<!-- Generated by graphviz version 14.0.2 (20251019.1705)
 -->
<!-- Pages: 1 -->
<svg width="833pt" height="699pt"
 viewBox="0.00 0.00 833.00 699.00" xmlns="http://www.w3.org/2000/svg" xmlns:xlink="http://www.w3.org/1999/xlink">
<g id="graph0" class="graph" transform="scale(1 1) rotate(0) translate(4 695.38)">
<polygon fill="#ffffff" stroke="none" points="-4,4 -4,-695.38 828.5,-695.38 828.5,4 -4,4"/>
<!-- CN2 -->
<g id="node1" class="node">
<title>CN2</title>
<polygon fill="#ffffff" stroke="black" points="481.25,-130.62 394.75,-130.62 394.75,-11.88 481.25,-11.88 481.25,-130.62"/>
<polygon fill="none" stroke="black" points="394.75,-106.88 394.75,-130.62 481.25,-130.62 481.25,-106.88 394.75,-106.88"/>
<text xml:space="preserve" text-anchor="start" x="424.5" y="-113.33" font-family="arial" font-size="14.00">CN2</text>
<polygon fill="none" stroke="black" points="394.75,-83.12 394.75,-106.88 443.25,-106.88 443.25,-83.12 394.75,-83.12"/>
<text xml:space="preserve" text-anchor="start" x="398.75" y="-89.58" font-family="arial" font-size="14.00">PHR&#45;3</text>
<polygon fill="none" stroke="black" points="443.25,-83.12 443.25,-106.88 481.25,-106.88 481.25,-83.12 443.25,-83.12"/>
<text xml:space="preserve" text-anchor="start" x="447.25" y="-89.58" font-family="arial" font-size="14.00">3&#45;pin</text>
<polygon fill="none" stroke="black" points="394.75,-59.38 394.75,-83.12 425.62,-83.12 425.62,-59.38 394.75,-59.38"/>
<text xml:space="preserve" text-anchor="start" x="406.44" y="-65.83" font-family="arial" font-size="14.00">1</text>
<polygon fill="none" stroke="black" points="394.75,-35.62 394.75,-59.38 425.62,-59.38 425.62,-35.62 394.75,-35.62"/>
<text xml:space="preserve" text-anchor="start" x="406.44" y="-42.08" font-family="arial" font-size="14.00">2</text>
<polygon fill="none" stroke="black" points="425.62,-35.62 425.62,-59.38 481.25,-59.38 481.25,-35.62 425.62,-35.62"/>
<text xml:space="preserve" text-anchor="start" x="437.31" y="-42.08" font-family="arial" font-size="14.00">+12V</text>
<polygon fill="none" stroke="black" points="394.75,-11.88 394.75,-35.62 425.62,-35.62 425.62,-11.88 394.75,-11.88"/>
<text xml:space="preserve" text-anchor="start" x="406.44" y="-18.32" font-family="arial" font-size="14.00">3</text>
<polygon fill="none" stroke="black" points="425.62,-11.88 425.62,-35.62 481.25,-35.62 481.25,-11.88 425.62,-11.88"/>
<text xml:space="preserve" text-anchor="start" x="438.06" y="-18.32" font-family="arial" font-size="14.00">GND</text>
</g>
<!-- Keypad -->
<g id="node2" class="node">
<title>Keypad</title>
<polygon fill="#ffffff" stroke="black" points="119.75,-400 33.25,-400 33.25,-162.5 119.75,-162.5 119.75,-400"/>
<polygon fill="none" stroke="black" points="33.25,-376.25 33.25,-400 119.75,-400 119.75,-376.25 33.25,-376.25"/>
<text xml:space="preserve" text-anchor="start" x="53.62" y="-382.7" font-family="arial" font-size="14.00">Keypad</text>
<polygon fill="none" stroke="black" points="33.25,-352.5 33.25,-376.25 81.75,-376.25 81.75,-352.5 33.25,-352.5"/>
<text xml:space="preserve" text-anchor="start" x="37.25" y="-358.95" font-family="arial" font-size="14.00">EHR&#45;8</text>
<polygon fill="none" stroke="black" points="81.75,-352.5 81.75,-376.25 119.75,-376.25 119.75,-352.5 81.75,-352.5"/>
<text xml:space="preserve" text-anchor="start" x="85.75" y="-358.95" font-family="arial" font-size="14.00">8&#45;pin</text>
<polygon fill="none" stroke="black" points="33.25,-328.75 33.25,-352.5 97.5,-352.5 97.5,-328.75 33.25,-328.75"/>
<text xml:space="preserve" text-anchor="start" x="54.88" y="-335.2" font-family="arial" font-size="14.00">IN4</text>
<polygon fill="none" stroke="black" points="97.5,-328.75 97.5,-352.5 119.75,-352.5 119.75,-328.75 97.5,-328.75"/>
<text xml:space="preserve" text-anchor="start" x="104.88" y="-335.2" font-family="arial" font-size="14.00">1</text>
<polygon fill="none" stroke="black" points="33.25,-305 33.25,-328.75 97.5,-328.75 97.5,-305 33.25,-305"/>
<text xml:space="preserve" text-anchor="start" x="54.88" y="-311.45" font-family="arial" font-size="14.00">IN3</text>
<polygon fill="none" stroke="black" points="97.5,-305 97.5,-328.75 119.75,-328.75 119.75,-305 97.5,-305"/>
<text xml:space="preserve" text-anchor="start" x="104.88" y="-311.45" font-family="arial" font-size="14.00">2</text>
<polygon fill="none" stroke="black" points="33.25,-281.25 33.25,-305 97.5,-305 97.5,-281.25 33.25,-281.25"/>
<text xml:space="preserve" text-anchor="start" x="54.88" y="-287.7" font-family="arial" font-size="14.00">IN2</text>
<polygon fill="none" stroke="black" points="97.5,-281.25 97.5,-305 119.75,-305 119.75,-281.25 97.5,-281.25"/>
<text xml:space="preserve" text-anchor="start" x="104.88" y="-287.7" font-family="arial" font-size="14.00">3</text>
<polygon fill="none" stroke="black" points="33.25,-257.5 33.25,-281.25 97.5,-281.25 97.5,-257.5 33.25,-257.5"/>
<text xml:space="preserve" text-anchor="start" x="54.88" y="-263.95" font-family="arial" font-size="14.00">IN1</text>
<polygon fill="none" stroke="black" points="97.5,-257.5 97.5,-281.25 119.75,-281.25 119.75,-257.5 97.5,-257.5"/>
<text xml:space="preserve" text-anchor="start" x="104.88" y="-263.95" font-family="arial" font-size="14.00">4</text>
<polygon fill="none" stroke="black" points="33.25,-233.75 33.25,-257.5 97.5,-257.5 97.5,-233.75 33.25,-233.75"/>
<text xml:space="preserve" text-anchor="start" x="40.62" y="-240.2" font-family="arial" font-size="14.00">OUT&#45;B1</text>
<polygon fill="none" stroke="black" points="97.5,-233.75 97.5,-257.5 119.75,-257.5 119.75,-233.75 97.5,-233.75"/>
<text xml:space="preserve" text-anchor="start" x="104.88" y="-240.2" font-family="arial" font-size="14.00">5</text>
<polygon fill="none" stroke="black" points="33.25,-210 33.25,-233.75 97.5,-233.75 97.5,-210 33.25,-210"/>
<text xml:space="preserve" text-anchor="start" x="40.62" y="-216.45" font-family="arial" font-size="14.00">OUT&#45;B2</text>
<polygon fill="none" stroke="black" points="97.5,-210 97.5,-233.75 119.75,-233.75 119.75,-210 97.5,-210"/>
<text xml:space="preserve" text-anchor="start" x="104.88" y="-216.45" font-family="arial" font-size="14.00">6</text>
<polygon fill="none" stroke="black" points="33.25,-186.25 33.25,-210 97.5,-210 97.5,-186.25 33.25,-186.25"/>
<text xml:space="preserve" text-anchor="start" x="40.62" y="-192.7" font-family="arial" font-size="14.00">OUT&#45;B3</text>
<polygon fill="none" stroke="black" points="97.5,-186.25 97.5,-210 119.75,-210 119.75,-186.25 97.5,-186.25"/>
<text xml:space="preserve" text-anchor="start" x="104.88" y="-192.7" font-family="arial" font-size="14.00">7</text>
<polygon fill="none" stroke="black" points="33.25,-162.5 33.25,-186.25 97.5,-186.25 97.5,-162.5 33.25,-162.5"/>
<text xml:space="preserve" text-anchor="start" x="61.62" y="-168.95" font-family="arial" font-size="14.00">8</text>
</g>
<!-- CN1_WIRES -->
<g id="node7" class="node">
<title>CN1_WIRES</title>
<polygon fill="#ffffff" stroke="black" points="579,-439.88 297,-439.88 297,-172.62 579,-172.62 579,-439.88"/>
<polygon fill="none" stroke="black" points="297,-416.12 297,-439.88 579,-439.88 579,-416.12 297,-416.12"/>
<text xml:space="preserve" text-anchor="start" x="398.25" y="-422.57" font-family="arial" font-size="14.00">CN1_WIRES</text>
<polygon fill="none" stroke="black" points="297,-392.38 297,-416.12 419.25,-416.12 419.25,-392.38 297,-392.38"/>
<text xml:space="preserve" text-anchor="start" x="351" y="-398.82" font-family="arial" font-size="14.00">7x</text>
<polygon fill="none" stroke="black" points="419.25,-392.38 419.25,-416.12 579,-416.12 579,-392.38 419.25,-392.38"/>
<text xml:space="preserve" text-anchor="start" x="473.25" y="-398.82" font-family="arial" font-size="14.00">26 AWG</text>
<text xml:space="preserve" text-anchor="start" x="352.25" y="-377.07" font-family="arial" font-size="14.00"> </text>
<text xml:space="preserve" text-anchor="start" x="313.25" y="-357.32" font-family="arial" font-size="14.00">Keypad:4:IN1</text>
<text xml:space="preserve" text-anchor="start" x="414.38" y="-357.32" font-family="arial" font-size="14.00"> &#160;&#160;&#160;&#160;1:GN &#160;&#160;&#160;</text>
<text xml:space="preserve" text-anchor="start" x="499.75" y="-357.32" font-family="arial" font-size="14.00">CN1:1:IN1</text>
<polygon fill="#000000" stroke="none" points="297,-350.88 297,-352.88 579,-352.88 579,-350.88 297,-350.88"/>
<polygon fill="#00ff00" stroke="none" points="297,-348.88 297,-350.88 579,-350.88 579,-348.88 297,-348.88"/>
<polygon fill="#000000" stroke="none" points="297,-346.88 297,-348.88 579,-348.88 579,-346.88 297,-346.88"/>
<text xml:space="preserve" text-anchor="start" x="313.25" y="-331.57" font-family="arial" font-size="14.00">Keypad:3:IN2</text>
<text xml:space="preserve" text-anchor="start" x="415.5" y="-331.57" font-family="arial" font-size="14.00"> &#160;&#160;&#160;&#160;2:BU &#160;&#160;&#160;</text>
<text xml:space="preserve" text-anchor="start" x="499.75" y="-331.57" font-family="arial" font-size="14.00">CN1:2:IN2</text>
<polygon fill="#000000" stroke="none" points="297,-325.12 297,-327.12 579,-327.12 579,-325.12 297,-325.12"/>
<polygon fill="#0066ff" stroke="none" points="297,-323.12 297,-325.12 579,-325.12 579,-323.12 297,-323.12"/>
<polygon fill="#000000" stroke="none" points="297,-321.12 297,-323.12 579,-323.12 579,-321.12 297,-321.12"/>
<text xml:space="preserve" text-anchor="start" x="313.25" y="-305.82" font-family="arial" font-size="14.00">Keypad:2:IN3</text>
<text xml:space="preserve" text-anchor="start" x="416.25" y="-305.82" font-family="arial" font-size="14.00"> &#160;&#160;&#160;&#160;3:VT &#160;&#160;&#160;</text>
<text xml:space="preserve" text-anchor="start" x="499.75" y="-305.82" font-family="arial" font-size="14.00">CN1:3:IN3</text>
<polygon fill="#000000" stroke="none" points="297,-299.38 297,-301.38 579,-301.38 579,-299.38 297,-299.38"/>
<polygon fill="#8000ff" stroke="none" points="297,-297.38 297,-299.38 579,-299.38 579,-297.38 297,-297.38"/>
<polygon fill="#000000" stroke="none" points="297,-295.38 297,-297.38 579,-297.38 579,-295.38 297,-295.38"/>
<text xml:space="preserve" text-anchor="start" x="313.25" y="-280.07" font-family="arial" font-size="14.00">Keypad:1:IN4</text>
<text xml:space="preserve" text-anchor="start" x="414.75" y="-280.07" font-family="arial" font-size="14.00"> &#160;&#160;&#160;&#160;4:GY &#160;&#160;&#160;</text>
<text xml:space="preserve" text-anchor="start" x="499.75" y="-280.07" font-family="arial" font-size="14.00">CN1:4:IN4</text>
<polygon fill="#000000" stroke="none" points="297,-273.62 297,-275.62 579,-275.62 579,-273.62 297,-273.62"/>
<polygon fill="#999999" stroke="none" points="297,-271.62 297,-273.62 579,-273.62 579,-271.62 297,-271.62"/>
<polygon fill="#000000" stroke="none" points="297,-269.62 297,-271.62 579,-271.62 579,-269.62 297,-269.62"/>
<text xml:space="preserve" text-anchor="start" x="299" y="-254.32" font-family="arial" font-size="14.00">Keypad:5:OUT&#45;B1</text>
<text xml:space="preserve" text-anchor="start" x="413.25" y="-254.32" font-family="arial" font-size="14.00"> &#160;&#160;&#160;&#160;5:WH &#160;&#160;&#160;</text>
<text xml:space="preserve" text-anchor="start" x="485.5" y="-254.32" font-family="arial" font-size="14.00">CN1:7:OUT&#45;B1</text>
<polygon fill="#000000" stroke="none" points="297,-247.88 297,-249.88 579,-249.88 579,-247.88 297,-247.88"/>
<polygon fill="#ffffff" stroke="none" points="297,-245.88 297,-247.88 579,-247.88 579,-245.88 297,-245.88"/>
<polygon fill="#000000" stroke="none" points="297,-243.88 297,-245.88 579,-245.88 579,-243.88 297,-243.88"/>
<text xml:space="preserve" text-anchor="start" x="299" y="-228.57" font-family="arial" font-size="14.00">Keypad:6:OUT&#45;B2</text>
<text xml:space="preserve" text-anchor="start" x="414.38" y="-228.57" font-family="arial" font-size="14.00"> &#160;&#160;&#160;&#160;6:GN &#160;&#160;&#160;</text>
<text xml:space="preserve" text-anchor="start" x="485.5" y="-228.57" font-family="arial" font-size="14.00">CN1:8:OUT&#45;B2</text>
<polygon fill="#000000" stroke="none" points="297,-222.12 297,-224.12 579,-224.12 579,-222.12 297,-222.12"/>
<polygon fill="#00ff00" stroke="none" points="297,-220.12 297,-222.12 579,-222.12 579,-220.12 297,-220.12"/>
<polygon fill="#000000" stroke="none" points="297,-218.12 297,-220.12 579,-220.12 579,-218.12 297,-218.12"/>
<text xml:space="preserve" text-anchor="start" x="299" y="-202.82" font-family="arial" font-size="14.00">Keypad:7:OUT&#45;B3</text>
<text xml:space="preserve" text-anchor="start" x="415.5" y="-202.82" font-family="arial" font-size="14.00"> &#160;&#160;&#160;&#160;7:BU &#160;&#160;&#160;</text>
<text xml:space="preserve" text-anchor="start" x="490" y="-202.82" font-family="arial" font-size="14.00">CN1:9:OUT&#45;3</text>
<polygon fill="#000000" stroke="none" points="297,-196.38 297,-198.38 579,-198.38 579,-196.38 297,-196.38"/>
<polygon fill="#0066ff" stroke="none" points="297,-194.38 297,-196.38 579,-196.38 579,-194.38 297,-194.38"/>
<polygon fill="#000000" stroke="none" points="297,-192.38 297,-194.38 579,-194.38 579,-192.38 297,-192.38"/>
<text xml:space="preserve" text-anchor="start" x="352.25" y="-177.07" font-family="arial" font-size="14.00"> </text>
</g>
<!-- Keypad&#45;&#45;CN1_WIRES -->
<g id="edge3" class="edge">
<title>Keypad:e&#45;&#45;CN1_WIRES:w</title>
<path fill="none" stroke="#000000" stroke-width="2" d="M120.75,-267.38C208.86,-269.28 212.88,-349.78 297,-347.88"/>
<path fill="none" stroke="#00ff00" stroke-width="2" d="M120.75,-269.38C206.87,-269.37 210.88,-349.87 297,-349.88"/>
<path fill="none" stroke="#000000" stroke-width="2" d="M120.75,-271.37C204.87,-269.47 208.89,-349.97 297,-351.87"/>
</g>
<!-- Keypad&#45;&#45;CN1_WIRES -->
<g id="edge5" class="edge">
<title>Keypad:e&#45;&#45;CN1_WIRES:w</title>
<path fill="none" stroke="#000000" stroke-width="2" d="M120.75,-291.13C202.04,-292.16 219.21,-323.16 297,-322.13"/>
<path fill="none" stroke="#0066ff" stroke-width="2" d="M120.75,-293.12C200.29,-293.12 217.46,-324.12 297,-324.12"/>
<path fill="none" stroke="#000000" stroke-width="2" d="M120.75,-295.12C198.54,-294.09 215.71,-325.09 297,-326.12"/>
</g>
<!-- Keypad&#45;&#45;CN1_WIRES -->
<g id="edge7" class="edge">
<title>Keypad:e&#45;&#45;CN1_WIRES:w</title>
<path fill="none" stroke="#000000" stroke-width="2" d="M120.75,-314.88C198.11,-315.45 216.83,-296.95 297,-296.38"/>
<path fill="none" stroke="#8000ff" stroke-width="2" d="M120.75,-316.88C199.51,-316.87 218.24,-298.37 297,-298.38"/>
<path fill="none" stroke="#000000" stroke-width="2" d="M120.75,-318.87C200.92,-318.3 219.64,-299.8 297,-300.37"/>
</g>
<!-- Keypad&#45;&#45;CN1_WIRES -->
<g id="edge9" class="edge">
<title>Keypad:e&#45;&#45;CN1_WIRES:w</title>
<path fill="none" stroke="#000000" stroke-width="2" d="M120.75,-338.63C202.73,-340.38 211.05,-272.38 297,-270.63"/>
<path fill="none" stroke="#999999" stroke-width="2" d="M120.75,-340.63C204.71,-340.63 213.04,-272.63 297,-272.63"/>
<path fill="none" stroke="#000000" stroke-width="2" d="M120.75,-342.62C206.7,-340.87 215.02,-272.87 297,-274.62"/>
</g>
<!-- Keypad&#45;&#45;CN1_WIRES -->
<g id="edge11" class="edge">
<title>Keypad:e&#45;&#45;CN1_WIRES:w</title>
<path fill="none" stroke="#000000" stroke-width="2" d="M120.75,-243.63C199.21,-243.63 218.79,-244.88 297,-244.88"/>
<path fill="none" stroke="#ffffff" stroke-width="2" d="M120.75,-245.62C199.09,-245.62 218.66,-246.88 297,-246.87"/>
<path fill="none" stroke="#000000" stroke-width="2" d="M120.75,-247.62C198.96,-247.62 218.54,-248.87 297,-248.87"/>
</g>
<!-- Keypad&#45;&#45;CN1_WIRES -->
<g id="edge13" class="edge">
<title>Keypad:e&#45;&#45;CN1_WIRES:w</title>
<path fill="none" stroke="#000000" stroke-width="2" d="M120.75,-219.88C199.01,-219.88 218.59,-219.13 297,-219.13"/>
<path fill="none" stroke="#00ff00" stroke-width="2" d="M120.75,-221.88C199.08,-221.88 218.67,-221.12 297,-221.12"/>
<path fill="none" stroke="#000000" stroke-width="2" d="M120.75,-223.87C199.16,-223.87 218.74,-223.12 297,-223.12"/>
</g>
<!-- Keypad&#45;&#45;CN1_WIRES -->
<g id="edge15" class="edge">
<title>Keypad:e&#45;&#45;CN1_WIRES:w</title>
<path fill="none" stroke="#000000" stroke-width="2" d="M120.75,-196.13C198.81,-196.14 218.38,-193.39 297,-193.38"/>
<path fill="none" stroke="#0066ff" stroke-width="2" d="M120.75,-198.12C199.09,-198.12 218.66,-195.37 297,-195.38"/>
<path fill="none" stroke="#000000" stroke-width="2" d="M120.75,-200.12C199.37,-200.11 218.94,-197.36 297,-197.37"/>
</g>
<!-- CN1 -->
<g id="node3" class="node">
<title>CN1</title>
<polygon fill="#ffffff" stroke="black" points="824.5,-409.75 723,-409.75 723,-124.75 824.5,-124.75 824.5,-409.75"/>
<polygon fill="none" stroke="black" points="723,-386 723,-409.75 824.5,-409.75 824.5,-386 723,-386"/>
<text xml:space="preserve" text-anchor="start" x="760.25" y="-392.45" font-family="arial" font-size="14.00">CN1</text>
<polygon fill="none" stroke="black" points="723,-362.25 723,-386 779,-386 779,-362.25 723,-362.25"/>
<text xml:space="preserve" text-anchor="start" x="727" y="-368.7" font-family="arial" font-size="14.00">PHR&#45;10</text>
<polygon fill="none" stroke="black" points="779,-362.25 779,-386 824.5,-386 824.5,-362.25 779,-362.25"/>
<text xml:space="preserve" text-anchor="start" x="783" y="-368.7" font-family="arial" font-size="14.00">10&#45;pin</text>
<polygon fill="none" stroke="black" points="723,-338.5 723,-362.25 756.5,-362.25 756.5,-338.5 723,-338.5"/>
<text xml:space="preserve" text-anchor="start" x="736" y="-344.95" font-family="arial" font-size="14.00">1</text>
<polygon fill="none" stroke="black" points="756.5,-338.5 756.5,-362.25 824.5,-362.25 824.5,-338.5 756.5,-338.5"/>
<text xml:space="preserve" text-anchor="start" x="780" y="-344.95" font-family="arial" font-size="14.00">IN1</text>
<polygon fill="none" stroke="black" points="723,-314.75 723,-338.5 756.5,-338.5 756.5,-314.75 723,-314.75"/>
<text xml:space="preserve" text-anchor="start" x="736" y="-321.2" font-family="arial" font-size="14.00">2</text>
<polygon fill="none" stroke="black" points="756.5,-314.75 756.5,-338.5 824.5,-338.5 824.5,-314.75 756.5,-314.75"/>
<text xml:space="preserve" text-anchor="start" x="780" y="-321.2" font-family="arial" font-size="14.00">IN2</text>
<polygon fill="none" stroke="black" points="723,-291 723,-314.75 756.5,-314.75 756.5,-291 723,-291"/>
<text xml:space="preserve" text-anchor="start" x="736" y="-297.45" font-family="arial" font-size="14.00">3</text>
<polygon fill="none" stroke="black" points="756.5,-291 756.5,-314.75 824.5,-314.75 824.5,-291 756.5,-291"/>
<text xml:space="preserve" text-anchor="start" x="780" y="-297.45" font-family="arial" font-size="14.00">IN3</text>
<polygon fill="none" stroke="black" points="723,-267.25 723,-291 756.5,-291 756.5,-267.25 723,-267.25"/>
<text xml:space="preserve" text-anchor="start" x="736" y="-273.7" font-family="arial" font-size="14.00">4</text>
<polygon fill="none" stroke="black" points="756.5,-267.25 756.5,-291 824.5,-291 824.5,-267.25 756.5,-267.25"/>
<text xml:space="preserve" text-anchor="start" x="780" y="-273.7" font-family="arial" font-size="14.00">IN4</text>
<polygon fill="none" stroke="black" points="723,-243.5 723,-267.25 756.5,-267.25 756.5,-243.5 723,-243.5"/>
<text xml:space="preserve" text-anchor="start" x="736" y="-249.95" font-family="arial" font-size="14.00">5</text>
<polygon fill="none" stroke="black" points="723,-219.75 723,-243.5 756.5,-243.5 756.5,-219.75 723,-219.75"/>
<text xml:space="preserve" text-anchor="start" x="736" y="-226.2" font-family="arial" font-size="14.00">6</text>
<polygon fill="none" stroke="black" points="723,-196 723,-219.75 756.5,-219.75 756.5,-196 723,-196"/>
<text xml:space="preserve" text-anchor="start" x="736" y="-202.45" font-family="arial" font-size="14.00">7</text>
<polygon fill="none" stroke="black" points="756.5,-196 756.5,-219.75 824.5,-219.75 824.5,-196 756.5,-196"/>
<text xml:space="preserve" text-anchor="start" x="765.75" y="-202.45" font-family="arial" font-size="14.00">OUT&#45;B1</text>
<polygon fill="none" stroke="black" points="723,-172.25 723,-196 756.5,-196 756.5,-172.25 723,-172.25"/>
<text xml:space="preserve" text-anchor="start" x="736" y="-178.7" font-family="arial" font-size="14.00">8</text>
<polygon fill="none" stroke="black" points="756.5,-172.25 756.5,-196 824.5,-196 824.5,-172.25 756.5,-172.25"/>
<text xml:space="preserve" text-anchor="start" x="765.75" y="-178.7" font-family="arial" font-size="14.00">OUT&#45;B2</text>
<polygon fill="none" stroke="black" points="723,-148.5 723,-172.25 756.5,-172.25 756.5,-148.5 723,-148.5"/>
<text xml:space="preserve" text-anchor="start" x="736" y="-154.95" font-family="arial" font-size="14.00">9</text>
<polygon fill="none" stroke="black" points="756.5,-148.5 756.5,-172.25 824.5,-172.25 824.5,-148.5 756.5,-148.5"/>
<text xml:space="preserve" text-anchor="start" x="770.25" y="-154.95" font-family="arial" font-size="14.00">OUT&#45;3</text>
<polygon fill="none" stroke="black" points="723,-124.75 723,-148.5 756.5,-148.5 756.5,-124.75 723,-124.75"/>
<text xml:space="preserve" text-anchor="start" x="732.25" y="-131.2" font-family="arial" font-size="14.00">10</text>
</g>
<!-- Serial -->
<g id="node4" class="node">
<title>Serial</title>
<polygon fill="#ffffff" stroke="black" points="135.12,-684.88 17.88,-684.88 17.88,-423.62 135.12,-423.62 135.12,-684.88"/>
<polygon fill="none" stroke="black" points="17.88,-661.12 17.88,-684.88 135.12,-684.88 135.12,-661.12 17.88,-661.12"/>
<text xml:space="preserve" text-anchor="start" x="59.25" y="-667.58" font-family="arial" font-size="14.00">Serial</text>
<polygon fill="none" stroke="black" points="17.88,-637.38 17.88,-661.12 97.12,-661.12 97.12,-637.38 17.88,-637.38"/>
<text xml:space="preserve" text-anchor="start" x="21.88" y="-643.83" font-family="arial" font-size="14.00">RS232 DB9</text>
<polygon fill="none" stroke="black" points="97.12,-637.38 97.12,-661.12 135.12,-661.12 135.12,-637.38 97.12,-637.38"/>
<text xml:space="preserve" text-anchor="start" x="101.12" y="-643.83" font-family="arial" font-size="14.00">9&#45;pin</text>
<polygon fill="none" stroke="black" points="17.88,-613.62 17.88,-637.38 88.12,-637.38 88.12,-613.62 17.88,-613.62"/>
<text xml:space="preserve" text-anchor="start" x="49.25" y="-620.08" font-family="arial" font-size="14.00">1</text>
<polygon fill="none" stroke="black" points="17.88,-589.88 17.88,-613.62 88.12,-613.62 88.12,-589.88 17.88,-589.88"/>
<text xml:space="preserve" text-anchor="start" x="38.75" y="-596.33" font-family="arial" font-size="14.00">RXD</text>
<polygon fill="none" stroke="black" points="88.12,-589.88 88.12,-613.62 135.12,-613.62 135.12,-589.88 88.12,-589.88"/>
<text xml:space="preserve" text-anchor="start" x="107.88" y="-596.33" font-family="arial" font-size="14.00">2</text>
<polygon fill="none" stroke="black" points="17.88,-566.12 17.88,-589.88 88.12,-589.88 88.12,-566.12 17.88,-566.12"/>
<text xml:space="preserve" text-anchor="start" x="39.5" y="-572.58" font-family="arial" font-size="14.00">TXD</text>
<polygon fill="none" stroke="black" points="88.12,-566.12 88.12,-589.88 135.12,-589.88 135.12,-566.12 88.12,-566.12"/>
<text xml:space="preserve" text-anchor="start" x="107.88" y="-572.58" font-family="arial" font-size="14.00">3</text>
<polygon fill="none" stroke="black" points="17.88,-542.38 17.88,-566.12 88.12,-566.12 88.12,-542.38 17.88,-542.38"/>
<text xml:space="preserve" text-anchor="start" x="49.25" y="-548.83" font-family="arial" font-size="14.00">4</text>
<polygon fill="none" stroke="black" points="17.88,-518.62 17.88,-542.38 88.12,-542.38 88.12,-518.62 17.88,-518.62"/>
<text xml:space="preserve" text-anchor="start" x="37.62" y="-525.08" font-family="arial" font-size="14.00">GND</text>
<polygon fill="none" stroke="black" points="88.12,-518.62 88.12,-542.38 135.12,-542.38 135.12,-518.62 88.12,-518.62"/>
<text xml:space="preserve" text-anchor="start" x="107.88" y="-525.08" font-family="arial" font-size="14.00">5</text>
<polygon fill="none" stroke="black" points="17.88,-494.88 17.88,-518.62 88.12,-518.62 88.12,-494.88 17.88,-494.88"/>
<text xml:space="preserve" text-anchor="start" x="49.25" y="-501.32" font-family="arial" font-size="14.00">6</text>
<polygon fill="none" stroke="black" points="17.88,-471.12 17.88,-494.88 88.12,-494.88 88.12,-471.12 17.88,-471.12"/>
<text xml:space="preserve" text-anchor="start" x="49.25" y="-477.57" font-family="arial" font-size="14.00">7</text>
<polygon fill="none" stroke="black" points="17.88,-447.38 17.88,-471.12 88.12,-471.12 88.12,-447.38 17.88,-447.38"/>
<text xml:space="preserve" text-anchor="start" x="49.25" y="-453.82" font-family="arial" font-size="14.00">8</text>
<polygon fill="none" stroke="black" points="17.88,-423.62 17.88,-447.38 88.12,-447.38 88.12,-423.62 17.88,-423.62"/>
<text xml:space="preserve" text-anchor="start" x="49.25" y="-430.07" font-family="arial" font-size="14.00">9</text>
</g>
<!-- CN3_WIRES -->
<g id="node8" class="node">
<title>CN3_WIRES</title>
<polygon fill="#ffffff" stroke="black" points="553.5,-691.38 322.5,-691.38 322.5,-527.12 553.5,-527.12 553.5,-691.38"/>
<polygon fill="none" stroke="black" points="322.5,-667.62 322.5,-691.38 553.5,-691.38 553.5,-667.62 322.5,-667.62"/>
<text xml:space="preserve" text-anchor="start" x="398.25" y="-674.08" font-family="arial" font-size="14.00">CN3_WIRES</text>
<polygon fill="none" stroke="black" points="322.5,-643.88 322.5,-667.62 419.25,-667.62 419.25,-643.88 322.5,-643.88"/>
<text xml:space="preserve" text-anchor="start" x="363.75" y="-650.33" font-family="arial" font-size="14.00">3x</text>
<polygon fill="none" stroke="black" points="419.25,-643.88 419.25,-667.62 553.5,-667.62 553.5,-643.88 419.25,-643.88"/>
<text xml:space="preserve" text-anchor="start" x="460.5" y="-650.33" font-family="arial" font-size="14.00">26 AWG</text>
<text xml:space="preserve" text-anchor="start" x="362.75" y="-628.58" font-family="arial" font-size="14.00"> </text>
<text xml:space="preserve" text-anchor="start" x="325.62" y="-608.83" font-family="arial" font-size="14.00">Serial:2:RXD</text>
<text xml:space="preserve" text-anchor="start" x="408.75" y="-608.83" font-family="arial" font-size="14.00"> &#160;&#160;&#160;&#160;1:GN &#160;&#160;&#160;</text>
<text xml:space="preserve" text-anchor="start" x="480.62" y="-608.83" font-family="arial" font-size="14.00">CN3:2:TXD</text>
<polygon fill="#000000" stroke="none" points="322.5,-602.38 322.5,-604.38 553.5,-604.38 553.5,-602.38 322.5,-602.38"/>
<polygon fill="#00ff00" stroke="none" points="322.5,-600.38 322.5,-602.38 553.5,-602.38 553.5,-600.38 322.5,-600.38"/>
<polygon fill="#000000" stroke="none" points="322.5,-598.38 322.5,-600.38 553.5,-600.38 553.5,-598.38 322.5,-598.38"/>
<text xml:space="preserve" text-anchor="start" x="326.38" y="-583.08" font-family="arial" font-size="14.00">Serial:3:TXD</text>
<text xml:space="preserve" text-anchor="start" x="409.88" y="-583.08" font-family="arial" font-size="14.00"> &#160;&#160;&#160;&#160;2:BU &#160;&#160;&#160;</text>
<text xml:space="preserve" text-anchor="start" x="479.88" y="-583.08" font-family="arial" font-size="14.00">CN3:1:RXD</text>
<polygon fill="#000000" stroke="none" points="322.5,-576.62 322.5,-578.62 553.5,-578.62 553.5,-576.62 322.5,-576.62"/>
<polygon fill="#0066ff" stroke="none" points="322.5,-574.62 322.5,-576.62 553.5,-576.62 553.5,-574.62 322.5,-574.62"/>
<polygon fill="#000000" stroke="none" points="322.5,-572.62 322.5,-574.62 553.5,-574.62 553.5,-572.62 322.5,-572.62"/>
<text xml:space="preserve" text-anchor="start" x="324.5" y="-557.33" font-family="arial" font-size="14.00">Serial:5:GND</text>
<text xml:space="preserve" text-anchor="start" x="410.25" y="-557.33" font-family="arial" font-size="14.00"> &#160;&#160;&#160;&#160;3:BK &#160;&#160;&#160;</text>
<text xml:space="preserve" text-anchor="start" x="478.75" y="-557.33" font-family="arial" font-size="14.00">CN3:3:GND</text>
<polygon fill="#000000" stroke="none" points="322.5,-550.88 322.5,-552.88 553.5,-552.88 553.5,-550.88 322.5,-550.88"/>
<polygon fill="#000000" stroke="none" points="322.5,-548.88 322.5,-550.88 553.5,-550.88 553.5,-548.88 322.5,-548.88"/>
<polygon fill="#000000" stroke="none" points="322.5,-546.88 322.5,-548.88 553.5,-548.88 553.5,-546.88 322.5,-546.88"/>
<text xml:space="preserve" text-anchor="start" x="362.75" y="-531.58" font-family="arial" font-size="14.00"> </text>
</g>
<!-- Serial&#45;&#45;CN3_WIRES -->
<g id="edge17" class="edge">
<title>Serial:e&#45;&#45;CN3_WIRES:w</title>
<path fill="none" stroke="#000000" stroke-width="2" d="M136.12,-599.75C218.48,-599.75 239.07,-599.38 321.5,-599.38"/>
<path fill="none" stroke="#00ff00" stroke-width="2" d="M136.12,-601.75C218.51,-601.75 239.11,-601.38 321.5,-601.38"/>
<path fill="none" stroke="#000000" stroke-width="2" d="M136.12,-603.75C218.55,-603.75 239.15,-603.37 321.5,-603.37"/>
</g>
<!-- Serial&#45;&#45;CN3_WIRES -->
<g id="edge19" class="edge">
<title>Serial:e&#45;&#45;CN3_WIRES:w</title>
<path fill="none" stroke="#000000" stroke-width="2" d="M136.12,-576C218.29,-576.01 238.88,-573.64 321.5,-573.63"/>
<path fill="none" stroke="#0066ff" stroke-width="2" d="M136.12,-578C218.52,-578 239.1,-575.62 321.5,-575.62"/>
<path fill="none" stroke="#000000" stroke-width="2" d="M136.12,-580C218.75,-579.99 239.33,-577.61 321.5,-577.62"/>
</g>
<!-- Serial&#45;&#45;CN3_WIRES -->
<g id="edge21" class="edge">
<title>Serial:e&#45;&#45;CN3_WIRES:w</title>
<path fill="none" stroke="#000000" stroke-width="2" d="M136.12,-528.5C220.37,-529.07 240.06,-548.45 321.5,-547.88"/>
<path fill="none" stroke="#000000" stroke-width="2" d="M136.12,-530.5C218.96,-530.5 238.66,-549.88 321.5,-549.88"/>
<path fill="none" stroke="#000000" stroke-width="2" d="M136.12,-532.5C217.56,-531.93 237.26,-551.3 321.5,-551.87"/>
</g>
<!-- CN3 -->
<g id="node5" class="node">
<title>CN3</title>
<polygon fill="#ffffff" stroke="black" points="816.62,-657.62 730.88,-657.62 730.88,-538.88 816.62,-538.88 816.62,-657.62"/>
<polygon fill="none" stroke="black" points="730.88,-633.88 730.88,-657.62 816.62,-657.62 816.62,-633.88 730.88,-633.88"/>
<text xml:space="preserve" text-anchor="start" x="760.25" y="-640.33" font-family="arial" font-size="14.00">CN3</text>
<polygon fill="none" stroke="black" points="730.88,-610.12 730.88,-633.88 778.62,-633.88 778.62,-610.12 730.88,-610.12"/>
<text xml:space="preserve" text-anchor="start" x="734.88" y="-616.58" font-family="arial" font-size="14.00">XHP&#45;3</text>
<polygon fill="none" stroke="black" points="778.62,-610.12 778.62,-633.88 816.62,-633.88 816.62,-610.12 778.62,-610.12"/>
<text xml:space="preserve" text-anchor="start" x="782.62" y="-616.58" font-family="arial" font-size="14.00">3&#45;pin</text>
<polygon fill="none" stroke="black" points="730.88,-586.38 730.88,-610.12 762.12,-610.12 762.12,-586.38 730.88,-586.38"/>
<text xml:space="preserve" text-anchor="start" x="742.75" y="-592.83" font-family="arial" font-size="14.00">1</text>
<polygon fill="none" stroke="black" points="762.12,-586.38 762.12,-610.12 816.62,-610.12 816.62,-586.38 762.12,-586.38"/>
<text xml:space="preserve" text-anchor="start" x="775.12" y="-592.83" font-family="arial" font-size="14.00">RXD</text>
<polygon fill="none" stroke="black" points="730.88,-562.62 730.88,-586.38 762.12,-586.38 762.12,-562.62 730.88,-562.62"/>
<text xml:space="preserve" text-anchor="start" x="742.75" y="-569.08" font-family="arial" font-size="14.00">2</text>
<polygon fill="none" stroke="black" points="762.12,-562.62 762.12,-586.38 816.62,-586.38 816.62,-562.62 762.12,-562.62"/>
<text xml:space="preserve" text-anchor="start" x="775.88" y="-569.08" font-family="arial" font-size="14.00">TXD</text>
<polygon fill="none" stroke="black" points="730.88,-538.88 730.88,-562.62 762.12,-562.62 762.12,-538.88 730.88,-538.88"/>
<text xml:space="preserve" text-anchor="start" x="742.75" y="-545.33" font-family="arial" font-size="14.00">3</text>
<polygon fill="none" stroke="black" points="762.12,-538.88 762.12,-562.62 816.62,-562.62 816.62,-538.88 762.12,-538.88"/>
<text xml:space="preserve" text-anchor="start" x="774" y="-545.33" font-family="arial" font-size="14.00">GND</text>
</g>
<!-- CN2_WIRES -->
<g id="node6" class="node">
<title>CN2_WIRES</title>
<polygon fill="#ffffff" stroke="black" points="153,-138.5 0,-138.5 0,0 153,0 153,-138.5"/>
<polygon fill="none" stroke="black" points="0,-114.75 0,-138.5 153,-138.5 153,-114.75 0,-114.75"/>
<text xml:space="preserve" text-anchor="start" x="36.75" y="-121.2" font-family="arial" font-size="14.00">CN2_WIRES</text>
<polygon fill="none" stroke="black" points="0,-91 0,-114.75 57.75,-114.75 57.75,-91 0,-91"/>
<text xml:space="preserve" text-anchor="start" x="21.75" y="-97.45" font-family="arial" font-size="14.00">2x</text>
<polygon fill="none" stroke="black" points="57.75,-91 57.75,-114.75 153,-114.75 153,-91 57.75,-91"/>
<text xml:space="preserve" text-anchor="start" x="79.5" y="-97.45" font-family="arial" font-size="14.00">26 AWG</text>
<text xml:space="preserve" text-anchor="start" x="2" y="-75.7" font-family="arial" font-size="14.00"> </text>
<text xml:space="preserve" text-anchor="start" x="9.75" y="-55.95" font-family="arial" font-size="14.00"> &#160;&#160;&#160;&#160;1:YE &#160;&#160;&#160;</text>
<text xml:space="preserve" text-anchor="start" x="76.75" y="-55.95" font-family="arial" font-size="14.00">CN2:2:+12V</text>
<polygon fill="#000000" stroke="none" points="0,-49.5 0,-51.5 153,-51.5 153,-49.5 0,-49.5"/>
<polygon fill="#ffff00" stroke="none" points="0,-47.5 0,-49.5 153,-49.5 153,-47.5 0,-47.5"/>
<polygon fill="#000000" stroke="none" points="0,-45.5 0,-47.5 153,-47.5 153,-45.5 0,-45.5"/>
<text xml:space="preserve" text-anchor="start" x="9.75" y="-30.2" font-family="arial" font-size="14.00"> &#160;&#160;&#160;&#160;2:BK &#160;&#160;&#160;</text>
<text xml:space="preserve" text-anchor="start" x="77.5" y="-30.2" font-family="arial" font-size="14.00">CN2:3:GND</text>
<polygon fill="#000000" stroke="none" points="0,-23.75 0,-25.75 153,-25.75 153,-23.75 0,-23.75"/>
<polygon fill="#000000" stroke="none" points="0,-21.75 0,-23.75 153,-23.75 153,-21.75 0,-21.75"/>
<polygon fill="#000000" stroke="none" points="0,-19.75 0,-21.75 153,-21.75 153,-19.75 0,-19.75"/>
<text xml:space="preserve" text-anchor="start" x="2" y="-4.45" font-family="arial" font-size="14.00"> </text>
</g>
<!-- CN2_WIRES&#45;&#45;CN2 -->
<g id="edge1" class="edge">
<title>CN2_WIRES:e&#45;&#45;CN2:w</title>
<path fill="none" stroke="#000000" stroke-width="2" d="M153,-46.5C259.93,-46.5 286.67,-45.5 393.75,-45.5"/>
<path fill="none" stroke="#ffff00" stroke-width="2" d="M153,-48.5C260,-48.5 286.75,-47.5 393.75,-47.5"/>
<path fill="none" stroke="#000000" stroke-width="2" d="M153,-50.5C260.08,-50.5 286.82,-49.5 393.75,-49.5"/>
</g>
<!-- CN2_WIRES&#45;&#45;CN2 -->
<g id="edge2" class="edge">
<title>CN2_WIRES:e&#45;&#45;CN2:w</title>
<path fill="none" stroke="#000000" stroke-width="2" d="M153,-20.75C260.08,-20.75 286.82,-21.75 393.75,-21.75"/>
<path fill="none" stroke="#000000" stroke-width="2" d="M153,-22.75C260,-22.75 286.75,-23.75 393.75,-23.75"/>
<path fill="none" stroke="#000000" stroke-width="2" d="M153,-24.75C259.93,-24.75 286.67,-25.75 393.75,-25.75"/>
</g>
<!-- CN1_WIRES&#45;&#45;CN1 -->
<g id="edge4" class="edge">
<title>CN1_WIRES:e&#45;&#45;CN1:w</title>
<path fill="none" stroke="#000000" stroke-width="2" d="M579,-347.88C643.06,-347.88 659.06,-348.38 723,-348.38"/>
<path fill="none" stroke="#00ff00" stroke-width="2" d="M579,-349.87C643,-349.87 659,-350.37 723,-350.37"/>
<path fill="none" stroke="#000000" stroke-width="2" d="M579,-351.87C642.94,-351.87 658.94,-352.37 723,-352.37"/>
</g>
<!-- CN1_WIRES&#45;&#45;CN1 -->
<g id="edge6" class="edge">
<title>CN1_WIRES:e&#45;&#45;CN1:w</title>
<path fill="none" stroke="#000000" stroke-width="2" d="M579,-322.13C643.32,-322.15 659.3,-324.65 723,-324.63"/>
<path fill="none" stroke="#0066ff" stroke-width="2" d="M579,-324.13C643.01,-324.12 658.99,-326.62 723,-326.63"/>
<path fill="none" stroke="#000000" stroke-width="2" d="M579,-326.12C642.7,-326.1 658.68,-328.6 723,-328.62"/>
</g>
<!-- CN1_WIRES&#45;&#45;CN1 -->
<g id="edge8" class="edge">
<title>CN1_WIRES:e&#45;&#45;CN1:w</title>
<path fill="none" stroke="#000000" stroke-width="2" d="M579,-296.38C643.57,-296.45 659.51,-300.95 723,-300.88"/>
<path fill="none" stroke="#8000ff" stroke-width="2" d="M579,-298.37C643.03,-298.37 658.97,-302.87 723,-302.87"/>
<path fill="none" stroke="#000000" stroke-width="2" d="M579,-300.37C642.49,-300.3 658.43,-304.8 723,-304.87"/>
</g>
<!-- CN1_WIRES&#45;&#45;CN1 -->
<g id="edge10" class="edge">
<title>CN1_WIRES:e&#45;&#45;CN1:w</title>
<path fill="none" stroke="#000000" stroke-width="2" d="M579,-270.63C643.82,-270.77 659.69,-277.27 723,-277.13"/>
<path fill="none" stroke="#999999" stroke-width="2" d="M579,-272.63C643.07,-272.62 658.93,-279.12 723,-279.13"/>
<path fill="none" stroke="#000000" stroke-width="2" d="M579,-274.62C642.31,-274.48 658.18,-280.98 723,-281.12"/>
</g>
<!-- CN1_WIRES&#45;&#45;CN1 -->
<g id="edge12" class="edge">
<title>CN1_WIRES:e&#45;&#45;CN1:w</title>
<path fill="none" stroke="#000000" stroke-width="2" d="M579,-244.88C643.39,-246.31 654.77,-207.31 723,-205.88"/>
<path fill="none" stroke="#ffffff" stroke-width="2" d="M579,-246.87C645.31,-246.88 656.69,-207.88 723,-207.87"/>
<path fill="none" stroke="#000000" stroke-width="2" d="M579,-248.87C647.23,-247.44 658.61,-208.44 723,-209.87"/>
</g>
<!-- CN1_WIRES&#45;&#45;CN1 -->
<g id="edge14" class="edge">
<title>CN1_WIRES:e&#45;&#45;CN1:w</title>
<path fill="none" stroke="#000000" stroke-width="2" d="M579,-219.13C643.17,-220.52 655.02,-183.52 723,-182.13"/>
<path fill="none" stroke="#00ff00" stroke-width="2" d="M579,-221.12C645.08,-221.12 656.92,-184.12 723,-184.12"/>
<path fill="none" stroke="#000000" stroke-width="2" d="M579,-223.12C646.98,-221.73 658.83,-184.73 723,-186.12"/>
</g>
<!-- CN1_WIRES&#45;&#45;CN1 -->
<g id="edge16" class="edge">
<title>CN1_WIRES:e&#45;&#45;CN1:w</title>
<path fill="none" stroke="#000000" stroke-width="2" d="M579,-193.38C642.98,-194.71 655.25,-159.71 723,-158.38"/>
<path fill="none" stroke="#0066ff" stroke-width="2" d="M579,-195.38C644.86,-195.38 657.14,-160.38 723,-160.38"/>
<path fill="none" stroke="#000000" stroke-width="2" d="M579,-197.37C646.75,-196.04 659.02,-161.04 723,-162.37"/>
</g>
<!-- CN3_WIRES&#45;&#45;CN3 -->
<g id="edge18" class="edge">
<title>CN3_WIRES:e&#45;&#45;CN3:w</title>
<path fill="none" stroke="#000000" stroke-width="2" d="M554.5,-599.38C631.68,-600.28 649.35,-573.4 729.88,-572.5"/>
<path fill="none" stroke="#00ff00" stroke-width="2" d="M554.5,-601.37C633.35,-601.37 651.02,-574.5 729.88,-574.5"/>
<path fill="none" stroke="#000000" stroke-width="2" d="M554.5,-603.37C635.03,-602.47 652.69,-575.6 729.88,-576.5"/>
</g>
<!-- CN3_WIRES&#45;&#45;CN3 -->
<g id="edge20" class="edge">
<title>CN3_WIRES:e&#45;&#45;CN3:w</title>
<path fill="none" stroke="#000000" stroke-width="2" d="M554.5,-573.63C634.65,-574.37 652.84,-597 729.88,-596.25"/>
<path fill="none" stroke="#0066ff" stroke-width="2" d="M554.5,-575.63C633.09,-575.63 651.28,-598.25 729.88,-598.25"/>
<path fill="none" stroke="#000000" stroke-width="2" d="M554.5,-577.62C631.53,-576.88 649.73,-599.5 729.88,-600.25"/>
</g>
<!-- CN3_WIRES&#45;&#45;CN3 -->
<g id="edge22" class="edge">
<title>CN3_WIRES:e&#45;&#45;CN3:w</title>
<path fill="none" stroke="#000000" stroke-width="2" d="M554.5,-547.88C632.54,-547.88 652.02,-548.75 729.88,-548.75"/>
<path fill="none" stroke="#000000" stroke-width="2" d="M554.5,-549.88C632.45,-549.88 651.93,-550.75 729.88,-550.75"/>
<path fill="none" stroke="#000000" stroke-width="2" d="M554.5,-551.87C632.36,-551.87 651.84,-552.75 729.88,-552.75"/>
</g>
</g>
</svg>
